<?xml version="1.0" standalone="no"?>
<!DOCTYPE svg PUBLIC "-//W3C//DTD SVG 1.1//EN" "http://www.w3.org/Graphics/SVG/1.1/DTD/svg11.dtd" >
<svg>
<metadata>
Created by FontForge 20090914 at Sat Aug  6 11:03:43 2016
 By www-data
Aleijadinho &#194;&#169; (Matias Romero). 2015. All Rights Reserved
</metadata>
<defs>
<font id="Aleijadinho" horiz-adv-x="1039" >
  <font-face 
    font-family="Aleijadinho"
    font-weight="400"
    font-stretch="normal"
    units-per-em="2048"
    panose-1="2 0 0 0 0 0 0 0 0 0"
    ascent="1638"
    descent="-410"
    x-height="1017"
    cap-height="1488"
    bbox="-370.006 -440 2570 1846"
    underline-thickness="150"
    underline-position="-142"
    unicode-range="U+0020-U+2265"
  />
<missing-glyph horiz-adv-x="800" 
d="M509 472l-0.000976562 -378.999c26.667 -22 60.334 -34.333 101.001 -37v-56h-421v56c39.333 2.66699 72.333 15 99 37v381c-2.66699 -2.66699 -5.66699 -5.33398 -9 -8.00098c-77.333 -68 -124.666 -88.667 -141.999 -62c-17.333 26 -3.33301 97.667 42 215l22 56
c-12 6.66699 -26 13 -42 19c-86.667 32.667 -130 68.667 -130 108c0 37.333 43.333 73.333 130 108l42 13l-22 56c-45.333 119.333 -58.666 192.333 -39.999 219c16 26 62 4 138 -66c4 -2.66699 7.66699 -5.66699 11 -9v255c-26.667 26 -59.667 39.667 -99 41v69h421v-69
c-40.667 -1.33301 -74.334 -15 -101.001 -41v-253c3.33301 2 6.66602 4.33301 9.99902 7c76 70 122.667 93 140 69c17.333 -28.667 3.33301 -101.667 -42 -219l-20 -56c13.333 -6 27.333 -11.333 42 -16c86.667 -34.667 130 -70.667 130 -108
c0 -39.333 -43.333 -75.333 -130 -108c-16 -6 -30.667 -12.333 -44 -19l22 -59c45.333 -117.333 60 -188 44 -212c-18.667 -28.667 -66.667 -8 -144 62z" />
    <glyph glyph-name=".notdef" horiz-adv-x="800" 
d="M509 472l-0.000976562 -378.999c26.667 -22 60.334 -34.333 101.001 -37v-56h-421v56c39.333 2.66699 72.333 15 99 37v381c-2.66699 -2.66699 -5.66699 -5.33398 -9 -8.00098c-77.333 -68 -124.666 -88.667 -141.999 -62c-17.333 26 -3.33301 97.667 42 215l22 56
c-12 6.66699 -26 13 -42 19c-86.667 32.667 -130 68.667 -130 108c0 37.333 43.333 73.333 130 108l42 13l-22 56c-45.333 119.333 -58.666 192.333 -39.999 219c16 26 62 4 138 -66c4 -2.66699 7.66699 -5.66699 11 -9v255c-26.667 26 -59.667 39.667 -99 41v69h421v-69
c-40.667 -1.33301 -74.334 -15 -101.001 -41v-253c3.33301 2 6.66602 4.33301 9.99902 7c76 70 122.667 93 140 69c17.333 -28.667 3.33301 -101.667 -42 -219l-20 -56c13.333 -6 27.333 -11.333 42 -16c86.667 -34.667 130 -70.667 130 -108
c0 -39.333 -43.333 -75.333 -130 -108c-16 -6 -30.667 -12.333 -44 -19l22 -59c45.333 -117.333 60 -188 44 -212c-18.667 -28.667 -66.667 -8 -144 62z" />
    <glyph glyph-name="space" unicode=" " horiz-adv-x="569" 
 />
    <glyph glyph-name="space" unicode="&#xa0;" horiz-adv-x="569" 
 />
    <glyph glyph-name="exclam" unicode="!" horiz-adv-x="356" 
d="M77 283l0.000976562 1095c-20.667 26 -46.334 39.667 -77.001 41v69h328v-69c-32 -1.33301 -58.333 -15 -79 -41v-1095h-172zM165.001 196c16.667 0 32.834 -4.16699 48.501 -12.5s28.167 -20.333 37.5 -36s14 -32.167 14 -49.5c0 -16.667 -4.5 -33 -13.5 -49
s-21.333 -28.167 -37 -36.5s-32.167 -12.5 -49.5 -12.5c-18 0 -35 4.16699 -51 12.5s-28.333 20.5 -37 36.5s-13 32.333 -13 49c0 17.333 4.33301 33.833 13 49.5s21.167 27.667 37.5 36s33.166 12.5 50.499 12.5z" />
    <glyph glyph-name="quotedbl" unicode="&#x22;" horiz-adv-x="498" 
d="M101 1488c16.667 0 32.834 -4.16699 48.501 -12.5s28.167 -20.5 37.5 -36.5s14 -32.333 14 -49c0 -17.333 -4.5 -33.833 -13.5 -49.5s-21.333 -54.334 -37 -116.001s-32.167 -92.5 -49.5 -92.5c-18 0 -35 30.833 -51 92.5s-28.333 100.334 -37 116.001
s-13 32.167 -13 49.5c0 16.667 4.33301 33 13 49s21.167 28.167 37.5 36.5s33.166 12.5 50.499 12.5zM338 1488c16.667 0 32.834 -4.33301 48.501 -13s28.167 -20.834 37.5 -36.501s14 -31.834 14 -48.501c0 -17.333 -4.5 -33.833 -13.5 -49.5s-21.333 -54.5 -37 -116.5
s-32.167 -93 -49.5 -93c-18 0 -35 31 -51 93s-28.333 100.833 -37 116.5s-13 32.167 -13 49.5c0 16.667 4.33301 32.834 13 48.501s21.167 27.834 37.5 36.501s33.166 13 50.499 13z" />
    <glyph glyph-name="numbersign" unicode="#" horiz-adv-x="1367" 
d="M419 599l71.0059 288h-279c-26.667 -26.667 -45.334 -59.667 -56.001 -99h-53l81 331h53c-8.66699 -40.667 -6.33398 -74.334 6.99902 -101.001h279l88 360c-14.667 26 -37 39.667 -67 41l17 69h257l-17 -69c-32 -1.33301 -61.333 -15 -88 -41l-88 -360h224l88 360
c-14.667 26 -37 39.667 -67 41l17 69h257l-17 -69c-32 -1.33301 -61.333 -15 -88 -41l-88 -360h293c23.333 26.667 41 60.334 53 101.001h44l-81 -331h-44c8 39.333 6.66699 72.333 -4 99h-293l-71 -288h293c24 26.667 42 60.334 54 101.001h43l-81 -331h-43
c7.33301 39.333 5.66602 72.333 -5.00098 99h-293l-92 -375c15.333 -22 38.666 -34.333 69.999 -37l-14 -56h-257l13 56c31.333 2.66699 60 15 86 37l92 375h-224l-92 -375c15.333 -22 38.666 -34.333 69.999 -37l-14 -56h-257l13 56c31.333 2.66699 60.333 15 87 37l91 375
h-278c-26.667 -26.667 -45.334 -59.667 -56.001 -99h-54l81 331h54c-9.33301 -40.667 -7 -74.334 7 -101.001h278zM592.006 887l-71 -288h224l71 288h-224z" />
    <glyph glyph-name="dollar" unicode="$" horiz-adv-x="892" 
d="M566 565l0.000976562 -471c24.667 11.333 47 26.333 67 45c54 48.667 78.667 110.667 74 186c-4 73.333 -34.333 138.666 -91 195.999c-14.667 14.667 -31.334 29.334 -50.001 44.001zM305.001 1407c-24 -11.333 -44.667 -25.999 -62 -43.999
c-36.667 -38.667 -53.667 -84.334 -51 -137.001c3.33301 -58.667 36 -113.667 98 -165c4.66699 -4 9.66699 -8 15 -12v358zM386.001 994.001c0.666992 0 1.33301 -0.333008 2 -1l97 -59v492c-18 3.33301 -36 5 -54 5c-16 0 -31 -1 -45 -3v-434zM386 69.001
c14.667 -1.33301 29.667 -2 45 -2c18.667 0 36.667 1.33301 54 4v550l-58 37l-41 26v-615zM485 3.00098c-30 -4 -61.335 -6.00195 -94.002 -6.00195c-2 0 -3.66699 0.333008 -5 1v-139h-81v141c-83.333 6 -149.666 22 -198.999 48v-76h-85v384h74l3 -52
c6 -43.333 11 -74.666 15 -93.999c43.333 -66 107.333 -109 192 -129v658l-24 17c-48.667 35.333 -88.667 69.666 -120 102.999c-74 80 -114 172.333 -120 277c-4.66699 92.667 23.333 172.667 84 240c46.667 50.667 106.667 85.334 180 104.001v144h81v-130
c18.667 1.33301 37.667 2 57 2c14 0 28 -0.333008 42 -1v129h81v-136l43 -6c22 -3.33301 43.667 -7.33301 65 -12l48 -11c4.66699 20 2.33398 39.667 -6.99902 59h73c2 -91.333 6.66699 -191 14 -299l-81 -8c-2 21.333 -5 43 -9 65c-14.667 23.333 -46.667 53.333 -96 90
c-16.667 12 -33.334 22.667 -50.001 32v-514l3 -2c24 -15.333 45.333 -29.666 64 -42.999c46 -32.667 84.333 -65.667 115 -99c76 -82.667 117 -181.667 123 -297c7.33301 -138 -36 -248 -130 -330c-49.333 -43.333 -107.666 -74.333 -174.999 -93v-161h-81v144z" />
    <glyph glyph-name="percent" unicode="%" horiz-adv-x="1294" 
d="M113 0l26.001 56c30.667 2.66699 61 15 91 37l598 1285c-7.33301 26 -25.333 39.667 -54 41l32 69h313l-32 -69c-31.333 -1.33301 -63 -15 -95 -41l-598 -1285c9.33301 -22 28.666 -34.333 57.999 -37l-26 -56h-313zM921.001 650c52 0 102.833 -14.5 152.5 -43.5
s88.667 -70.5 117 -124.5s42.5 -110.333 42.5 -169s-13.833 -114.834 -41.5 -168.501s-66.167 -95.167 -115.5 -124.5s-101 -44 -155 -44c-54.667 0 -106.667 14.667 -156 44s-87.833 70.833 -115.5 124.5s-41.5 109.834 -41.5 168.501s13.833 115 41.5 169
s66.667 95.5 117 124.5s101.833 43.5 154.5 43.5zM843.001 574c-28 -26 -49.8311 -63 -65.498 -111s-23.5 -98 -23.5 -150c0 -52.667 7.66699 -102.667 23 -150s37.166 -84.333 65.499 -111s57.166 -40 86.499 -40c30.667 0 60 13.333 88 40s49.833 63.667 65.5 111
s23.5 97.333 23.5 150c0 52 -8 102 -24 150s-38 85 -66 111s-57 39 -87 39c-29.333 0 -58 -13 -86 -39zM235.003 1412.5c-28 -25.667 -49.8311 -62.667 -65.498 -111s-23.5 -98.5 -23.5 -150.5c0 -52.667 7.66699 -102.667 23 -150s37.166 -84.333 65.499 -111
s57.166 -40 86.499 -40c30.667 0 60 13.333 88 40s49.833 63.667 65.5 111s23.5 97.333 23.5 150c0 52 -8 102.167 -24 150.5s-38 85.333 -66 111s-57 38.5 -87 38.5c-29.333 0 -58 -12.833 -86 -38.5zM313.005 1488c52 0 102.833 -14.5 152.5 -43.5
s88.667 -70.5 117 -124.5s42.5 -110.333 42.5 -169s-13.833 -114.834 -41.5 -168.501s-66.167 -95.167 -115.5 -124.5s-101 -44 -155 -44c-54.667 0 -106.667 14.667 -156 44s-87.833 70.833 -115.5 124.5s-41.5 109.834 -41.5 168.501s13.833 115 41.5 169
s66.667 95.5 117 124.5s101.833 43.5 154.5 43.5z" />
    <glyph glyph-name="ampersand" unicode="&#x26;" horiz-adv-x="987" 
d="M666 59h79.998c12 5.33301 23.667 13 35 23c23.333 21.333 41.5 51.166 54.5 89.499s19.5 78.833 19.5 121.5c0 42 -6.66699 82.333 -20 121s-31.833 68.5 -55.5 89.5s-48.167 31.5 -73.5 31.5s-49.666 -10.5 -72.999 -31.5s-41.666 -50.833 -54.999 -89.5
s-20 -79 -20 -121c0 -42.667 6.5 -83.167 19.5 -121.5s31.5 -68.166 55.5 -89.499c10.667 -10 21.667 -17.667 33 -23zM914.998 136l-0.00195312 -136.002h-333c-165.333 0 -302.5 42.5 -411.5 127.5s-163.5 188.5 -163.5 310.5c0 126 57.667 233.667 173 323
c85.333 64.667 187 105.667 305 123c-43.333 15.333 -83 36.666 -119 63.999c-76 60 -114 132.667 -114 218c0 88.667 40.833 164.334 122.5 227.001s160.167 94 235.5 94h267l43 -91l-63 -25c-14 36 -48.333 57.667 -103 65h-70
c-32 0.666992 -64.167 -3.66602 -96.5 -12.999s-58.833 -27 -79.5 -53c-15.333 -20 -28.166 -46.667 -38.499 -80s-15.5 -67.666 -15.5 -102.999c0 -98.667 23 -171.334 69 -218.001s106.667 -70 182 -70c20.667 0 40.334 1.33301 59.001 4v-72
c-37.333 12.667 -78.333 19 -123 19c-59.333 0 -111.833 -11.167 -157.5 -33.5s-83.167 -52.166 -112.5 -89.499c-21.333 -28.667 -39.166 -66.5 -53.499 -113.5s-21.5 -95.833 -21.5 -146.5c0 -140 32.667 -243 98 -309c61.333 -62 117.333 -95 168 -99
c-39.333 24 -70 56.667 -92 98c-23.333 42.667 -35 88 -35 136c0 46.667 11.667 91.834 35 135.501s56.166 77.167 98.499 100.5s85.833 35 130.5 35c44 0 87 -11.667 129 -35s74.833 -56.833 98.5 -100.5s35.5 -88.834 35.5 -135.501c0 -48 -11.667 -93.333 -35 -136z" />
    <glyph glyph-name="quotesingle" unicode="'" horiz-adv-x="229" 
d="M101 1488c16.667 0 32.834 -4.16699 48.501 -12.5s28.167 -20.5 37.5 -36.5s14 -32.333 14 -49c0 -17.333 -4.5 -33.833 -13.5 -49.5s-21.333 -54.334 -37 -116.001s-32.167 -92.5 -49.5 -92.5c-18 0 -35 30.833 -51 92.5s-28.333 100.334 -37 116.001
s-13 32.167 -13 49.5c0 16.667 4.33301 33 13 49s21.167 28.167 37.5 36.5s33.166 12.5 50.499 12.5z" />
    <glyph glyph-name="parenleft" unicode="(" horiz-adv-x="536" 
d="M505 1457c-51.333 -1.33301 -101.333 -31.999 -150 -91.999c-49.333 -62 -88 -150.5 -116 -265.5s-42 -235.167 -42 -360.5c0 -124.667 13.667 -243.834 41 -357.501s66 -202.167 116 -265.5c48.667 -62 99 -93.667 151 -95v-26c-79.333 8.66699 -155.333 40.667 -228 96
c-88 66 -156.333 158.667 -205 278s-73 244.666 -73 375.999s24.667 257.333 74 378s118.333 213.334 207 278.001c73.333 54 148.333 85.333 225 94v-38z" />
    <glyph glyph-name="parenright" unicode=")" horiz-adv-x="536" 
d="M0 1495c76 -8.66699 151.002 -40.001 225.002 -94.001c88 -64.667 156.667 -157.334 206 -278.001s74 -246.667 74 -378s-24.333 -256.666 -73 -375.999s-116.667 -212 -204 -278c-73.333 -55.333 -149.666 -87.333 -228.999 -96l1 26
c51.333 1.33301 101.666 33 150.999 95c49.333 63.333 87.666 151.833 114.999 265.5s41 232.834 41 357.501c0 125.333 -14 245.5 -42 360.5s-66.667 203.5 -116 265.5c-48.667 60 -98.334 90.667 -149.001 92v38z" />
    <glyph glyph-name="asterisk" unicode="*" horiz-adv-x="410" 
d="M85 1277c-6 2 -12.999 4.00195 -20.999 6.00195c-43.333 10 -65 21 -65 33c0 11.333 21.667 22.333 65 33l21 4l-11 17c-22.667 36.667 -29.334 59 -20.001 67c8 8 31 1.33301 69 -20c6.66699 -3.33301 13 -6.66602 19 -9.99902c2 6 4 12.667 6 20
c11.333 40 23.333 60 36 60c12 0 23.667 -20 35 -60c2 -7.33301 3.66699 -14 5 -20c6 3.33301 12.667 6.66602 20 9.99902c38 21.333 61.333 28.333 70 21c8.66699 -8.66699 1.66699 -31 -21 -67c-3.33301 -6 -6.66602 -11.667 -9.99902 -17
c6.66699 -2 13.667 -3.66699 21 -5c43.333 -10.667 65 -21.667 65 -33c0 -12 -21.667 -23 -65 -33c-8 -2 -15.333 -4 -22 -6l11 -18c22.667 -36 30 -57.667 22 -65c-9.33301 -8.66699 -33.333 -2.33398 -72 18.999c-6.66699 3.33301 -13 6.66602 -19 9.99902
c-1.33301 -6 -3 -12.333 -5 -19c-11.333 -40.667 -23 -61 -35 -61c-12.667 0 -24.667 20.333 -36 61c-2 6.66699 -3.66699 13 -5 19c-6 -2.66699 -12.333 -6 -19 -10c-38.667 -20.667 -62.334 -27 -71.001 -19s-1.66699 30 21 66z" />
    <glyph glyph-name="plus" unicode="+" horiz-adv-x="819" 
d="M441 497v-269c16 -11.333 36.333 -17.666 61 -18.999v-28h-253v28c24 1.33301 44 7.66602 60 18.999v269h-262c-11.333 -16 -17.666 -36.333 -18.999 -61h-29v253h29c1.33301 -24 7.66602 -44 18.999 -60h262v249c-16 13.333 -36 20.333 -60 21v35h253v-35
c-24.667 -0.666992 -45 -7.66699 -61 -21v-249h256c13.333 16 20.333 36 21 60h34v-253h-34c-0.666992 24.667 -7.66699 45 -21 61h-256z" />
    <glyph glyph-name="comma" unicode="," horiz-adv-x="229" 
d="M99 203c17.333 0 33.833 -4.16699 49.5 -12.5s28.167 -20.5 37.5 -36.5s14 -32.333 14 -49c0 -17.333 -4.5 -33.833 -13.5 -49.5s-36.333 -54.334 -82 -116.001s-77.5 -92.5 -95.5 -92.5c-17.333 0 -14 30.833 10 92.5s26.667 100.334 8 116.001s-28 32.167 -28 49.5
c0 16.667 4.33301 33 13 49s21.167 28.167 37.5 36.5s32.833 12.5 49.5 12.5z" />
    <glyph glyph-name="hyphen" unicode="-" horiz-adv-x="819" 
d="M0 617h28c1.33301 -24 7.66602 -44 18.999 -60h650c13.333 16 20.333 36 21 60h35v-253h-35c-0.666992 24.667 -7.66699 45 -21 61h-650c-11.333 -16 -17.666 -36.333 -18.999 -61h-28v253z" />
    <glyph glyph-name="hyphen" unicode="&#xad;" horiz-adv-x="819" 
d="M0 617h28c1.33301 -24 7.66602 -44 18.999 -60h650c13.333 16 20.333 36 21 60h35v-253h-35c-0.666992 24.667 -7.66699 45 -21 61h-650c-11.333 -16 -17.666 -36.333 -18.999 -61h-28v253z" />
    <glyph glyph-name="period" unicode="." horiz-adv-x="229" 
d="M101 196c16.667 0 32.834 -4.16699 48.501 -12.5s28.167 -20.333 37.5 -36s14 -32.167 14 -49.5c0 -16.667 -4.5 -33 -13.5 -49s-21.333 -28.167 -37 -36.5s-32.167 -12.5 -49.5 -12.5c-18 0 -35 4.16699 -51 12.5s-28.333 20.5 -37 36.5s-13 32.333 -13 49
c0 17.333 4.33301 33.833 13 49.5s21.167 27.667 37.5 36s33.166 12.5 50.499 12.5z" />
    <glyph glyph-name="slash" unicode="/" horiz-adv-x="1004" 
d="M-1 0l26.001 56c30.667 2.66699 61 15 91 37l598 1285c-7.33301 26 -25.333 39.667 -54 41l32 69h313l-32 -69c-31.333 -1.33301 -63 -15 -95 -41l-598 -1285c9.33301 -22 28.666 -34.333 57.999 -37l-26 -56h-313z" />
    <glyph glyph-name="zero" unicode="0" horiz-adv-x="1130" 
d="M552 1498c92.667 0 183.004 -32.333 271.004 -97s157 -157.334 207 -278.001s75 -246.667 75 -378s-24.333 -256.666 -73 -375.999s-116.834 -212 -204.501 -278s-179.5 -99 -275.5 -99s-187.833 33 -275.5 99s-155.834 158.667 -204.501 278s-73 244.666 -73 375.999
s24.667 257.333 74 378s118.166 213.334 206.499 278.001s179.166 97 272.499 97zM415.004 1329.5c-49.333 -57.667 -87.999 -140.334 -115.999 -248.001s-42 -219.834 -42 -336.501s13.667 -228.167 41 -334.5s65.833 -189.166 115.5 -248.499s101.167 -89 154.5 -89
c54 0 105.833 29.667 155.5 89s88.167 142.166 115.5 248.499s41 217.833 41 334.5s-14 228.834 -42 336.501s-66.833 190.334 -116.5 248.001s-100.834 86.5 -153.501 86.5s-103.667 -28.833 -153 -86.5z" />
    <glyph glyph-name="one" unicode="1" horiz-adv-x="459" 
d="M-1 0v56c39.333 2.66699 72.333 15 99 37v1285c-26.667 26 -59.667 39.667 -99 41v69h421v-69c-40.667 -1.33301 -74.334 -15 -101.001 -41v-1285c26.667 -22 60.334 -34.333 101.001 -37v-56h-421z" />
    <glyph glyph-name="two" unicode="2" horiz-adv-x="892" 
d="M-35 -2l-0.000976562 70.0029c30.667 0.666992 57.334 8.66699 80.001 24c-2 100 -2.33301 164.333 -1 193c6 132 47 245.333 123 340c30.667 38.667 69 76.667 115 114c18.667 15.333 40 31.666 64 48.999l181 128c41.333 28.667 74 54.667 98 78
c62 58.667 94.667 121.667 98 189c2.66699 60.667 -14.333 113 -51 157c-44 52 -106.667 78 -188 78c-65.333 0 -127 -24.667 -185 -74c-49.333 -42 -81.333 -76.667 -96 -104c-4 -25.333 -7 -50 -9 -74l-81 9v343h87c-9.33301 -22 -11.666 -44.667 -6.99902 -68l48 13
c21.333 5.33301 43 10 65 14c58 10.667 113.333 16 166 16c138.667 0 244.667 -46 318 -138c60.667 -77.333 88.667 -169 84 -275c-6 -120 -46 -226 -120 -318c-31.333 -38 -71.333 -77.333 -120 -118c-34 -29.333 -82.667 -67 -146 -113l-101 -74
c-35.333 -28.667 -72.833 -67.334 -112.5 -116.001s-55.834 -124 -48.501 -226c26 -30.667 66 -46.334 120 -47.001h360c56.667 0 85.667 68.667 87 206h56v-276h-884z" />
    <glyph glyph-name="three" unicode="3" horiz-adv-x="934" 
d="M163 903c18.667 -2.66699 38.332 -3.99805 58.999 -3.99805c75.333 0 136 23.333 182 70s69 119.334 69 218.001c0 35.333 -5.16699 69.666 -15.5 102.999s-23.166 60 -38.499 80c-20.667 26 -47.167 43.667 -79.5 53s-64.5 13.666 -96.5 12.999h-70
c-54.667 -7.33301 -89 -29 -103 -65l-63 25l43 91h267c75.333 0 153.833 -31.333 235.5 -94s122.5 -138.334 122.5 -227.001c0 -85.333 -38 -158 -114 -218c-36 -27.333 -75.667 -48.666 -119 -63.999c118 -17.333 219.667 -58.333 305 -123
c115.333 -89.333 173 -197 173 -323c0 -122 -54.5 -225.5 -163.5 -310.5s-246.167 -127.5 -411.5 -127.5h-242h-91v152l52 -1c0.666992 -61.333 21 -92 61 -92h230c53.333 0 112.666 33 177.999 99s98 169 98 309c0 50.667 -7.16699 99.5 -21.5 146.5
s-32.166 84.833 -53.499 113.5c-29.333 37.333 -66.833 67.166 -112.5 89.499s-98.167 33.5 -157.5 33.5c-44.667 0 -85.667 -6.33301 -123 -19v72z" />
    <glyph glyph-name="four" unicode="4" horiz-adv-x="948" 
d="M-1 586l463 791.999c-26.667 26 -59.667 39.333 -99 40v70h497v-70c-40.667 -0.666992 -74.334 -14 -101.001 -40v-825h54c22 20.667 34.333 46.334 37 77.001h56v-318h-56c-2.66699 29.333 -15 54 -37 74h-54v-293c26.667 -22 60.334 -34.333 101.001 -37v-56h-411v56
c39.333 2.66699 73 15 101 37v293h-547l-4 -7v207zM550 552.999v755l-448 -755h448z" />
    <glyph glyph-name="five" unicode="5" horiz-adv-x="892" 
d="M874 1488l0.000976562 -275.997h-56c-1.33301 137.333 -30.333 206 -87 206h-360c-54 -0.666992 -94 -16.334 -120 -47.001c-7.33301 -102 8.83398 -177.333 48.501 -226s77.167 -87.334 112.5 -116.001l101 -74c63.333 -46 112 -83.667 146 -113
c48.667 -40.667 88.667 -80 120 -118c74 -92 114 -198 120 -318c4.66699 -106 -23.333 -197.667 -84 -275c-73.333 -92 -179.333 -138 -318 -138c-52.667 0 -108 5.33301 -166 16c-22 4 -43.667 8.66699 -65 14l-48 13c-4.66699 -23.333 -2.33398 -46 6.99902 -68h-87v343
l81 9c2 -24 5 -48.667 9 -74c14.667 -27.333 46.667 -62 96 -104c58 -49.333 119.667 -74 185 -74c81.333 0 144 26 188 78c36.667 44 53.667 96.333 51 157c-3.33301 67.333 -36 130.333 -98 189c-24 23.333 -56.667 49.333 -98 78l-181 128
c-24 17.333 -45.333 33.666 -64 48.999c-46 37.333 -84.333 75.333 -115 114c-76 94.667 -117 208 -123 340c-1.33301 28 -1 92 1 192c-22.667 16 -49.334 24.333 -80.001 25v70h884z" />
    <glyph glyph-name="six" unicode="6" horiz-adv-x="1106" 
d="M349 355c10 -22.667 21 -44.666 33 -65.999c62 -110 135.667 -172 221 -186c46 0.666992 90.333 17 133 49c42.667 32.667 75.834 78.5 99.501 137.5s35.5 120.5 35.5 184.5c0 64.667 -12.167 126.834 -36.5 186.501s-57.833 105.334 -100.5 137.001
s-86.667 47.5 -132 47.5s-89.333 -15.833 -132 -47.5s-75.834 -77.334 -99.501 -137.001s-35.5 -121.834 -35.5 -186.501c0 -40.667 4.66699 -80.334 14 -119.001zM571 0.000976562c-146.667 0 -272.165 73.168 -376.498 219.501s-156.5 323.5 -156.5 531.5
s51.667 385.5 155 532.5s229.333 220.5 378 220.5c139.333 0 259 -64.333 359 -193c38.667 -5.33301 66.334 7.33398 83.001 38.001l35 -54l-143 -285l-63 57c14 66.667 14.667 117 2 151c-38 114 -105.667 171 -203 171c-102 0 -188.333 -62.667 -259 -188
c-60 -106 -94.667 -231 -104 -375c23.333 17.333 48.666 33 75.999 47c76 37.333 154.333 56 235 56c79.333 0 156.833 -18.833 232.5 -56.5s135 -91.334 178 -161.001s64.5 -142.834 64.5 -219.501c0 -76 -21 -148.333 -63 -217
c-54.667 -89.333 -115.834 -157.5 -183.501 -204.5s-149.834 -70.5 -246.501 -70.5z" />
    <glyph glyph-name="seven" unicode="7" horiz-adv-x="928" 
d="M63 150l502.003 1228c-26.667 26 -60.334 39.333 -101.001 40h-320c-56.667 0 -85.667 -32 -87 -96h-56v166h904v-70c-32.667 -0.666992 -62.334 -14 -89.001 -40l-481 -1189h1l-6 -12l-11 -27h-3l-28 -56c21.333 -22 56.666 -34.333 105.999 -37v-56h-470v56
c30 2.66699 67 15 111 37z" />
    <glyph glyph-name="eight" unicode="8" horiz-adv-x="1071" 
d="M276.5 537c-25.667 -53.333 -38.498 -109 -38.498 -167s12.5 -113.333 37.5 -166s60.5 -93.667 106.5 -123s93.667 -44 143 -44c50 0 98 14.667 144 44s81.667 70.333 107 123s38 108 38 166s-13 113.667 -39 167s-62 94.333 -108 123s-93.333 43 -142 43
s-95.834 -14.333 -141.501 -43s-81.334 -69.667 -107.001 -123zM423.002 781c28.667 4 58.002 5.99902 88.002 5.99902c36.667 0 73 -3.33301 109 -10c16.667 6.66699 33 15.334 49 26.001c46 29.333 81.667 70.333 107 123s38 108 38 166s-13 113.833 -39 167.5
s-62 94.667 -108 123s-93.333 42.5 -142 42.5s-95.834 -14.167 -141.501 -42.5s-81.334 -69.333 -107.001 -123s-38.5 -109.5 -38.5 -167.5s12.5 -113.333 37.5 -166s60.5 -93.667 106.5 -123c13.333 -8.66699 27 -16 41 -22zM736.004 744.999l25 -10
c81.333 -34.667 145.166 -84.167 191.499 -148.5s69.5 -131.5 69.5 -201.5c0 -70.667 -22.5 -137.834 -67.5 -201.501s-108 -113.167 -189 -148.5s-165.833 -53 -254.5 -53c-89.333 0 -174.5 17.667 -255.5 53s-144 84.833 -189 148.5s-67.5 130.834 -67.5 201.501
c0 70 22.833 137.167 68.5 201.5s109.167 113.833 190.5 148.5c8.66699 4 17.334 7.33301 26.001 10l-28 12c-81.333 35.333 -144.5 85 -189.5 149s-67.5 131 -67.5 201s22.833 137.167 68.5 201.5s109.334 113.833 191.001 148.5s165.834 52 252.501 52
c85.333 0 168.666 -17.333 249.999 -52s145.166 -84.167 191.499 -148.5s69.5 -131.5 69.5 -201.5s-22.5 -137 -67.5 -201s-108.167 -113.667 -189.5 -149z" />
    <glyph glyph-name="nine" unicode="9" horiz-adv-x="1078" 
d="M721 1149c-10 22.667 -21 44.999 -33 66.999c-62 109.333 -135.667 171 -221 185c-46 -0.666992 -90.333 -17 -133 -49c-42.667 -32.667 -75.834 -78.5 -99.501 -137.5s-35.5 -120.5 -35.5 -184.5c0 -64.667 12.167 -126.834 36.5 -186.501
s57.833 -105.334 100.5 -137.001s86.667 -47.5 132 -47.5s89.333 15.833 132 47.5s75.834 77.334 99.501 137.001s35.5 121.834 35.5 186.501c0 40.667 -4.66699 80.334 -14 119.001zM499 1504c146.667 0 272.165 -73.1689 376.498 -219.502s156.5 -323.5 156.5 -531.5
s-51.667 -385.5 -155 -532.5s-229.333 -220.5 -378 -220.5c-139.333 0 -259 64.333 -359 193c-38.667 5.33301 -66.334 -7.33398 -83.001 -38.001l-35 54l143 285l63 -57c-14 -66.667 -14.667 -117 -2 -151c38 -114 105.667 -171 203 -171c102 0 188.333 62.667 259 188
c60 106 94.667 231 104 375c-23.333 -17.333 -48.666 -32.666 -75.999 -45.999c-76 -38 -154.333 -57 -235 -57c-79.333 0 -156.833 18.833 -232.5 56.5s-135 91.334 -178 161.001s-64.5 142.834 -64.5 219.501c0 76 21 148.667 63 218
c54.667 88.667 115.834 156.5 183.501 203.5s149.834 70.5 246.501 70.5z" />
    <glyph glyph-name="colon" unicode=":" horiz-adv-x="230" 
d="M87 846c16.667 0 32.835 -4.16699 48.502 -12.5s28.167 -20.333 37.5 -36s14 -32.167 14 -49.5c0 -16.667 -4.5 -33 -13.5 -49s-21.333 -28.167 -37 -36.5s-32.167 -12.5 -49.5 -12.5c-18 0 -35 4.16699 -51 12.5s-28.167 20.5 -36.5 36.5s-12.5 32.333 -12.5 49
c0 17.333 4.16699 33.833 12.5 49.5s20.666 27.667 36.999 36s33.166 12.5 50.499 12.5zM86.001 196c16.667 0 32.834 -4.16699 48.501 -12.5s28.167 -20.333 37.5 -36s14 -32.167 14 -49.5c0 -16.667 -4.5 -33 -13.5 -49s-21.333 -28.167 -37 -36.5
s-32.167 -12.5 -49.5 -12.5c-18 0 -35 4.16699 -51 12.5s-28.333 20.5 -37 36.5s-13 32.333 -13 49c0 17.333 4.33301 33.833 13 49.5s21.167 27.667 37.5 36s33.166 12.5 50.499 12.5z" />
    <glyph glyph-name="semicolon" unicode=";" horiz-adv-x="229" 
d="M101 159c17.333 0 33.833 -4.16699 49.5 -12.5s28.167 -20.5 37.5 -36.5s14 -32.333 14 -49c0 -17.333 -4.5 -33.666 -13.5 -48.999s-36.333 -54 -82 -116s-77.5 -93 -95.5 -93c-17.333 0 -14 31 10 93s26.667 100.667 8 116s-28 31.666 -28 48.999
c0 16.667 4.33301 33 13 49s21.167 28.167 37.5 36.5s32.833 12.5 49.5 12.5zM101 846c16.667 0 32.834 -4.16699 48.501 -12.5s28.167 -20.333 37.5 -36s14 -32.167 14 -49.5c0 -16.667 -4.5 -33 -13.5 -49s-21.333 -28.167 -37 -36.5s-32.167 -12.5 -49.5 -12.5
c-18 0 -35 4.16699 -51 12.5s-28.333 20.5 -37 36.5s-13 32.333 -13 49c0 17.333 4.33301 33.833 13 49.5s21.167 27.667 37.5 36s33.166 12.5 50.499 12.5z" />
    <glyph glyph-name="semicolon" unicode="&#x37e;" horiz-adv-x="229" 
d="M101 159c17.333 0 33.833 -4.16699 49.5 -12.5s28.167 -20.5 37.5 -36.5s14 -32.333 14 -49c0 -17.333 -4.5 -33.666 -13.5 -48.999s-36.333 -54 -82 -116s-77.5 -93 -95.5 -93c-17.333 0 -14 31 10 93s26.667 100.667 8 116s-28 31.666 -28 48.999
c0 16.667 4.33301 33 13 49s21.167 28.167 37.5 36.5s32.833 12.5 49.5 12.5zM101 846c16.667 0 32.834 -4.16699 48.501 -12.5s28.167 -20.333 37.5 -36s14 -32.167 14 -49.5c0 -16.667 -4.5 -33 -13.5 -49s-21.333 -28.167 -37 -36.5s-32.167 -12.5 -49.5 -12.5
c-18 0 -35 4.16699 -51 12.5s-28.333 20.5 -37 36.5s-13 32.333 -13 49c0 17.333 4.33301 33.833 13 49.5s21.167 27.667 37.5 36s33.166 12.5 50.499 12.5z" />
    <glyph glyph-name="less" unicode="&#x3c;" horiz-adv-x="767" 
d="M652 372c10 34 15.667 77 17 129h26v-537h-26c-1.33301 52.667 -7 96.667 -17 132l-600 418c-12.667 -35.333 -19 -79.333 -19 -132h-33v692h33c0 -51.333 6.33301 -94.333 19 -129l600 457c10 34 15.667 77 17 129h26v-424h-26c-1.33301 53.333 -7 97.333 -17 132
l-596 -453z" />
    <glyph glyph-name="equal" unicode="=" horiz-adv-x="819" 
d="M0 617h28c1.33301 -24 7.66602 -44 18.999 -60h650c13.333 16 20.333 36 21 60h35v-253h-35c-0.666992 24.667 -7.66699 45 -21 61h-650c-11.333 -16 -17.666 -36.333 -18.999 -61h-28v253zM0 902h29c1.33301 -24 7.66602 -44 18.999 -60h650c13.333 16 20.333 36 21 60
h34v-253h-34c-0.666992 24.667 -7.66699 45 -21 61h-650c-11.333 -16 -17.666 -36.333 -18.999 -61h-29v253z" />
    <glyph glyph-name="greater" unicode="&#x3e;" horiz-adv-x="767" 
d="M43 1123c-10 -34 -15.667 -77 -17 -129h-26v537h26c1.33301 -52.667 7 -96.667 17 -132l600 -418c12.667 35.333 19 79.333 19 132h33v-692h-33c0 51.333 -6.33301 94.333 -19 129l-600 -457c-10 -34 -15.667 -77 -17 -129h-26v424h26c1.33301 -53.333 7 -97.333 17 -132
l596 453z" />
    <glyph glyph-name="question" unicode="?" horiz-adv-x="854" 
d="M43 302c-12 128 -18.333 202 -19 222c-2 97.333 32 184.666 102 261.999c28 32 63.667 63.333 107 94c17.333 12.667 37.666 26 60.999 40l172 105c39.333 23.333 70 44.666 92 63.999c58 48 86.667 99.667 86 155c-2 49.333 -22.667 92 -62 128
c-47.333 42.667 -111.666 64 -192.999 64c-65.333 0 -125.333 -20.333 -180 -61c-46.667 -34 -76.334 -62.333 -89.001 -85c-2.66699 -20.667 -4 -40.667 -4 -60h-117v288h99c-8 -18 -9 -36.667 -3 -56l47 11c21.333 4.66699 43 8.33398 65 11.001
c56.667 9.33301 111.334 14 164.001 14c138.667 0 248 -38 328 -114c66 -63.333 100.333 -138.333 103 -225c2 -98 -31 -184.667 -99 -260c-28.667 -31.333 -66 -63.666 -112 -96.999c-32 -24 -78 -55 -138 -93l-96 -60c-33.333 -24 -66.833 -49.5 -100.5 -76.5
s-44.5 -117.167 -32.5 -270.5h-181zM138 197c16.667 0 32.834 -4.33301 48.501 -13s28.167 -20.834 37.5 -36.501s14 -32.167 14 -49.5c0 -16.667 -4.5 -32.834 -13.5 -48.501s-21.333 -27.834 -37 -36.501s-32.167 -13 -49.5 -13c-18 0 -35 4.33301 -51 13
s-28.333 20.834 -37 36.501s-13 31.834 -13 48.501c0 17.333 4.33301 33.833 13 49.5s21.167 27.834 37.5 36.501s33.166 13 50.499 13z" />
    <glyph glyph-name="at" unicode="@" horiz-adv-x="1141" 
d="M630 727c-80.667 0 -149.333 -19 -206 -57s-85 -84.333 -85 -139c0 -54 28.333 -100 85 -138s125.334 -57 206.001 -57c61.333 0 108 11 140 33v326c-32.667 21.333 -79.334 32 -140.001 32zM972.001 336c0.666992 2 1.66797 4 3.00098 6c41.333 88 62 180.333 62 277
c0 97.333 -21.333 190.666 -64 279.999s-101.667 158 -177 206s-153 72 -233 72s-157.333 -24 -232 -72s-133.334 -116.667 -176.001 -206s-64 -182.666 -64 -279.999c0 -96.667 20.833 -189.167 62.5 -277.5s100.167 -157.166 175.5 -206.499s153.333 -74 234 -74
c82 0 160.667 24.667 236 74c64 42 116 98.333 156 169h-185v21c-58.667 -16 -124 -24 -196 -24c-118 0 -218.333 22.167 -301 66.5s-124 97.833 -124 160.5s41.667 116.167 125 160.5s183.333 66.5 300 66.5c71.333 0 138 -8 200 -24v23c-0.666992 30 -11 58.333 -31 85
c-20 28 -48.333 50 -85 66s-73.667 24 -111 24c-41.333 0 -80 -8 -116 -24s-64 -38 -84 -66c-2.66699 -3.33301 -5 -7 -7 -11l-90 1c4 4.66699 8.33301 9.33398 13 14.001c32 31.333 76.667 55.833 134 73.5s118 26.5 182 26.5c61.333 0 120.833 -8.83301 178.5 -26.5
s102.5 -42.334 134.5 -74.001s48 -64.834 48 -99.501v-395c9.33301 -4.66699 20 -8.66699 32 -12zM553.002 1243c92.667 0 183.004 -26.833 271.004 -80.5s157 -130.667 207 -231s75 -204.833 75 -313.5c0 -109.333 -24.333 -213.666 -73 -312.999
s-116.834 -176.333 -204.501 -231s-179.5 -82 -275.5 -82s-187.833 27.333 -275.5 82s-155.834 131.667 -204.501 231s-73 203.666 -73 312.999c0 108.667 24.667 213.167 74 313.5s118.166 177.333 206.499 231s179.166 80.5 272.499 80.5z" />
    <glyph glyph-name="A" unicode="A" horiz-adv-x="1186" 
d="M644 934l-108 434l-118 -434h226zM391 836l-196.002 -743c26.667 -22 60.334 -34.333 101.001 -37v-56h-297v56c39.333 2.66699 72.333 15 99 37l350 1285c-26.667 26 -53 39.333 -79 40v70h457v-70c-27.333 -0.666992 -54.333 -14 -81 -40l320 -1285
c26.667 -22 60.334 -34.333 101.001 -37v-56h-411v56c39.333 2.66699 72.333 15 99 37l-185 743h-278z" />
    <glyph glyph-name="B" unicode="B" horiz-adv-x="934" 
d="M97 1378c-26.667 26 -59.666 39.333 -98.999 40v70l433 -1c100.667 0 183.5 -31.333 248.5 -94s97.5 -138.334 97.5 -227.001c0 -85.333 -30.333 -158 -91 -218c-28.667 -27.333 -60.334 -48.666 -95.001 -63.999c94 -17.333 175 -58.333 243 -123
c92 -89.333 138 -197 138 -323c0 -122 -43.333 -225.5 -130 -310.5s-196 -127.5 -328 -127.5h-95h-421v56c39.333 2.66699 72.333 15 99 37v1285zM318.001 1378v-454.999c29.333 -16 62 -24 98 -24c60 0 108.333 23.333 145 70s55 119.334 55 218.001
c0 35.333 -4.16699 69.666 -12.5 102.999s-18.5 60 -30.5 80c-16.667 26 -37.834 43.667 -63.501 53s-58.167 10.666 -97.5 3.99902s-70.666 -23 -93.999 -49zM318.001 802.001l-0.00292969 -707.999c42 -23.333 89 -35 141 -35c84.667 0 153 33 205 99s78 169 78 309
c0 50.667 -5.66699 99.5 -17 146.5s-25.666 84.833 -42.999 113.5c-23.333 37.333 -53.166 67.166 -89.499 89.499s-78.166 33.5 -125.499 33.5c-57.333 0 -107 -16 -149 -48z" />
    <glyph glyph-name="C" unicode="C" horiz-adv-x="1133" 
d="M1027 219c-113.333 -146 -250.335 -219 -411.002 -219c-159.333 0 -295.666 73.167 -408.999 219.5s-170 323.5 -170 531.5s56.167 385.5 168.5 532.5s249.166 220.5 410.499 220.5c151.333 0 281 -64.333 389 -193c42.667 -5.33301 73 7.33398 91 38.001l38 -54
l-156 -285l-68 57c15.333 66.667 16 117 2 151c-41.333 114 -114.666 171 -219.999 171c-110.667 0 -204.5 -62.667 -281.5 -188s-115.5 -277.333 -115.5 -456s38.5 -330.834 115.5 -456.501s170.833 -188.5 281.5 -188.5c109.333 0 186 62.667 230 188
c12.667 21.333 24.667 43.333 36 66l127 -49c-17.333 -30 -36.666 -58.667 -57.999 -86z" />
    <glyph glyph-name="D" unicode="D" horiz-adv-x="1075" 
d="M342 0h-362.999v56c39.333 2.66699 72.333 15 99 37v1285c-26.667 26 -59.667 39.333 -99 40v70h411v-5c24 3.33301 48.667 5 74 5c161.333 0 298.166 -73.5 410.499 -220.5s168.5 -324.5 168.5 -532.5s-56.667 -385 -170 -531s-249.666 -219 -408.999 -219
c-42.667 0 -83.334 5 -122.001 15zM289.001 1352v-1247c29.333 -14 62.333 -21 99 -21c110.667 0 204.5 62.833 281.5 188.5s115.5 277.834 115.5 456.501s-38.5 330.667 -115.5 456s-170.833 188 -281.5 188c-37.333 0 -70.333 -7 -99 -21z" />
    <glyph glyph-name="E" unicode="E" horiz-adv-x="903" 
d="M-32 0l0.000976562 86c39.333 2.66699 72.333 15 99 37v1225c-26.667 26 -59.667 39.333 -99 40v100h884v-196h-26c-1.33301 64 -30.333 96 -87 96h-350c-40.667 -0.666992 -74.334 -14 -101.001 -40v-416h332c56.667 0 85.667 32 87 96h26v-292h-26
c-1.33301 64 -30.333 96 -87 96h-332v-709c11.333 -9.33301 24 -17 38 -23h452c56.667 0 85.667 32 87 96h26v-196h-923z" />
    <glyph glyph-name="F" unicode="F" horiz-adv-x="871" 
d="M733 736h-26c-1.33301 64 -30.333 96 -87 96h-332v-739c26.667 -22 60.334 -34.333 101.001 -37v-56h-421v56c39.333 2.66699 72.333 15 99 37v1255c-26.667 26 -59.667 39.333 -99 40v100h884v-196h-26c-1.33301 64 -30.333 96 -87 96h-350
c-40.667 -0.666992 -74.334 -14 -101.001 -40v-416h332c56.667 0 85.667 32 87 96h26v-292z" />
    <glyph glyph-name="G" unicode="G" horiz-adv-x="1133" 
d="M1048 305c-17.333 -30 -36.668 -58.667 -58.001 -86c-113.333 -146 -250.333 -219 -411 -219c-159.333 0 -295.666 73.167 -408.999 219.5s-170 323.5 -170 531.5s56.167 385.5 168.5 532.5s249.166 220.5 410.499 220.5c151.333 0 281 -64.333 389 -193
c42.667 -5.33301 73 7.33398 91 38.001l38 -54l-156 -285l-68 57c15.333 66.667 16 117 2 151c-41.333 114 -114.666 171 -219.999 171c-110.667 0 -204.5 -62.667 -281.5 -188s-115.5 -277.333 -115.5 -456s38.5 -330.834 115.5 -456.501s170.833 -188.5 281.5 -188.5
c109.333 0 186 62.667 230 188c12.667 21.333 24.667 43.333 36 66v479h-383v101h510v-629z" />
    <glyph glyph-name="H" unicode="H" horiz-adv-x="1123" 
d="M319 840v-747c26.667 -22 60.334 -34.333 101.001 -37v-56h-421v56c39.333 2.66699 72.333 15 99 37v1285c-26.667 26 -59.667 39.667 -99 41v69h421v-69c-40.667 -1.33301 -74.334 -15 -101.001 -41v-444h408v444c-26.667 26 -59.667 39.667 -99 41v69h421v-69
c-40.667 -1.33301 -74.334 -15 -101.001 -41v-1284c26.667 -22.667 60.334 -35.334 101.001 -38.001v-56h-421v56c39.333 2.66699 72.333 15.334 99 38.001v746h-408z" />
    <glyph glyph-name="I" unicode="I" horiz-adv-x="459" 
d="M-1 0v56c39.333 2.66699 72.333 15 99 37v1285c-26.667 26 -59.667 39.667 -99 41v69h421v-69c-40.667 -1.33301 -74.334 -15 -101.001 -41v-1285c26.667 -22 60.334 -34.333 101.001 -37v-56h-421z" />
    <glyph glyph-name="J" unicode="J" horiz-adv-x="439" 
d="M144 -404l-113.999 175.999c50 100.667 73 215.334 69 344.001v1262c-26.667 26 -59.667 39.667 -99 41v69h421v-69c-40.667 -1.33301 -74.334 -15 -101.001 -41v-1262c-2 -204 -60.667 -377.333 -176 -520z" />
    <glyph glyph-name="K" unicode="K" horiz-adv-x="997" 
d="M319 680v-587c26.667 -22 60.334 -34.333 101.001 -37v-56h-421v56c39.333 2.66699 72.333 15 99 37v1285c-26.667 26 -59.667 39.667 -99 41v69h421v-69c-40.667 -1.33301 -74.334 -15 -101.001 -41v-494l398 494c-26.667 26 -59.667 39.667 -99 41v69h351v-69
c-40.667 -1.33301 -74.334 -15 -101.001 -41l-280 -354l360 -930c26.667 -22.667 60.334 -35.334 101.001 -38.001v-56h-351v56c39.333 2.66699 72.333 15.334 99 38.001l-300 806z" />
    <glyph glyph-name="L" unicode="L" horiz-adv-x="934" 
d="M770 100c56.667 0 85.667 32 87 96h26v-196h-884v100c39.333 0.666992 72.333 14 99 40v1255c-26.667 22 -59.667 34.333 -99 37v56h421v-56c-40.667 -2.66699 -74.334 -15 -101.001 -37v-1255c26.667 -26 60.334 -39.333 101.001 -40h350z" />
    <glyph glyph-name="M" unicode="M" horiz-adv-x="1367" 
d="M310 1308l2 -1215c26.667 -22 59.667 -34.333 99 -37v-56h-411v56c40.667 2.66699 74.334 15 101.001 37v1285c-26.667 26 -60.334 39.333 -101.001 40v70h497v-70c-39.333 -0.666992 -72.333 -14 -99 -40l299 -884l308 884c-26.667 26 -59.667 39.333 -99 40v70h417v-70
c-40.667 -0.666992 -74.334 -14 -101.001 -40v-1285c26.667 -22 60.334 -34.333 101.001 -37v-56h-341v56c39.333 2.66699 72.333 15 99 37v1175l-366 -1067h-30z" />
    <glyph glyph-name="N" unicode="N" horiz-adv-x="1200" 
d="M860 379l-551 929v-1215c28 -22 61.667 -34.333 101 -37v-56h-411v56c40.667 2.66699 74.334 15 101.001 37v1285c-26.667 26 -60.334 39.333 -101.001 40v70h497v-70c-39.333 -0.666992 -72.333 -14 -99 -40l463 -792v792c-26.667 26 -59.667 39.667 -99 41v69h381v-69
c-40.667 -1.33301 -74.334 -15 -101.001 -41v-1285c26.667 -22 60.334 -34.333 101.001 -37v-56h-381v56c39.333 2.66699 72.333 15 99 37v286z" />
    <glyph glyph-name="O" unicode="O" horiz-adv-x="1130" 
d="M552 1498c92.667 0 183.004 -32.333 271.004 -97s157 -157.334 207 -278.001s75 -246.667 75 -378s-24.333 -256.666 -73 -375.999s-116.834 -212 -204.501 -278s-179.5 -99 -275.5 -99s-187.833 33 -275.5 99s-155.834 158.667 -204.501 278s-73 244.666 -73 375.999
s24.667 257.333 74 378s118.166 213.334 206.499 278.001s179.166 97 272.499 97zM415.004 1329.5c-49.333 -57.667 -87.999 -140.334 -115.999 -248.001s-42 -219.834 -42 -336.501s13.667 -228.167 41 -334.5s65.833 -189.166 115.5 -248.499s101.167 -89 154.5 -89
c54 0 105.833 29.667 155.5 89s88.167 142.166 115.5 248.499s41 217.833 41 334.5s-14 228.834 -42 336.501s-66.833 190.334 -116.5 248.001s-100.834 86.5 -153.501 86.5s-103.667 -28.833 -153 -86.5z" />
    <glyph glyph-name="P" unicode="P" horiz-adv-x="904" 
d="M320 835l0.000976562 -742.002c26.667 -22 60.334 -34.333 101.001 -37v-56h-421v56c39.333 2.66699 72.333 15 99 37v1285c-26.667 26 -59.667 39.667 -99 41v69h421c69.333 -7.33301 137.333 -21.666 204 -42.999c80.667 -26.667 144 -65 190 -115s69 -102 69 -156
s-22.333 -105.667 -67 -155s-107.334 -92.666 -188.001 -129.999s-165 -56 -253 -56c-18.667 0 -37.334 0.666992 -56.001 2zM421.001 1419c-40.667 -1.33301 -74.333 -15.001 -101 -41.001v-442c23.333 -6 47 -9 71 -9c49.333 0 96.833 7.16699 142.5 21.5
s81 43.333 106 87s37.5 89.834 37.5 138.501c0 48 -12.833 94.167 -38.5 138.5s-61.167 78.5 -106.5 102.5c-36.667 2 -73.667 3.33301 -111 4z" />
    <glyph glyph-name="Q" unicode="Q" horiz-adv-x="1130" 
d="M299 1081.5c-28 -107.667 -41.999 -219.834 -41.999 -336.501s13.667 -228.167 41 -334.5s65.833 -189.166 115.5 -248.499s101.167 -89 154.5 -89c54 0 105.833 29.667 155.5 89s88.167 142.166 115.5 248.499s41 217.833 41 334.5s-14 228.834 -42 336.501
s-66.833 190.334 -116.5 248.001s-100.834 86.5 -153.501 86.5s-103.667 -28.833 -153 -86.5s-88 -140.334 -116 -248.001zM573.001 -7c5.33301 -4 11.3359 -7.99707 18.0029 -11.9971c74.667 -48.667 127 -73 157 -73c33.333 0 61.333 16.167 84 48.5
s36.334 78.5 41.001 138.5h29c-2 -87.333 -18.5 -155.333 -49.5 -204s-68.5 -73 -112.5 -73c-20.667 0 -42.667 5.16699 -66 15.5s-84 45.5 -182 105.5c-68.667 42.667 -117 64 -145 64c-30.667 0 -56.834 -14.333 -78.501 -43s-36.5 -75.334 -44.5 -140.001h-30
c2.66699 90.667 19 160 49 208c14.667 23.333 30.667 40.666 48 51.999c-4.66699 4 -9.33398 7.66699 -14.001 11c-88 66 -156.333 158.667 -205 278s-73 244.666 -73 375.999s24.667 257.333 74 378s118.166 213.334 206.499 278.001s179.166 97 272.499 97
c92.667 0 183 -32.333 271 -97s157 -157.334 207 -278.001s75 -246.667 75 -378s-24.333 -256.666 -73 -375.999s-116.667 -212 -204 -278c-82 -60.667 -167 -93.334 -255 -98.001z" />
    <glyph glyph-name="R" unicode="R" horiz-adv-x="904" 
d="M422 1419c-40.667 -1.33301 -74.333 -15.001 -101 -41.001v-442c23.333 -6 47 -9 71 -9c49.333 0 96.833 7.16699 142.5 21.5s81 43.333 106 87s37.5 89.834 37.5 138.501c0 48 -12.833 94.167 -38.5 138.5s-61.167 78.5 -106.5 102.5c-36.667 2 -73.667 3.33301 -111 4z
M366.001 832.999c-14.667 0 -29.6689 0.666016 -45.002 1.99902v-742c26.667 -22 60.334 -34.333 101.001 -37v-56h-421v56c39.333 2.66699 72.333 15 99 37v1285c-26.667 26 -59.667 39.667 -99 41v69h421c69.333 -7.33301 137.333 -21.666 204 -42.999
c80.667 -26.667 144 -65 190 -115s69 -102 69 -156s-22.333 -105.667 -67 -155s-107.334 -92.666 -188.001 -129.999c-19.333 -8.66699 -38.666 -16.334 -57.999 -23.001l374 -773c26.667 -22 60.334 -34.333 101.001 -37v-56h-421v56c39.333 2.66699 72.333 15 99 37z" />
    <glyph glyph-name="S" unicode="S" horiz-adv-x="892" 
d="M21 -28l-0.000976562 384.001h74l3 -52c6 -43.333 11 -74.666 15 -93.999c62.667 -95.333 168.667 -143 318 -143c82 0 149.333 24 202 72c54 48.667 78.667 110.667 74 186c-4 73.333 -34.333 138.666 -91 195.999c-23.333 23.333 -52.666 47.333 -87.999 72l-101 65
c-63.333 40 -112 72.667 -146 98c-48.667 35.333 -88.667 69.666 -120 102.999c-74 80 -114 172.333 -120 277c-4.66699 92.667 23.333 172.667 84 240c73.333 80 179.333 120 318 120c52.667 0 108 -4.66699 166 -14c22 -3.33301 43.667 -7.33301 65 -12l48 -11
c4.66699 20 2.33398 39.667 -6.99902 59h73c2 -91.333 6.66699 -191 14 -299l-81 -8c-2 21.333 -5 43 -9 65c-14.667 23.333 -46.667 53.333 -96 90c-58 43.333 -119.667 65 -185 65c-81.333 0 -144 -22.667 -188 -68c-36.667 -38.667 -53.667 -84.334 -51 -137.001
c3.33301 -58.667 36 -113.667 98 -165c24 -20 56.667 -42.667 98 -68l181 -111c24 -15.333 45.333 -29.666 64 -42.999c46 -32.667 84.333 -65.667 115 -99c76 -82.667 117 -181.667 123 -297c7.33301 -138 -36 -248 -130 -330c-88.667 -77.333 -205.334 -116 -350.001 -116
c-124.667 0 -219.667 17 -285 51v-76h-85z" />
    <glyph glyph-name="T" unicode="T" horiz-adv-x="837" 
d="M802 1488v-206h-26c-1.33301 64 -30.333 96 -87 96h-60c-40.667 -0.666992 -74.334 -14 -101.001 -40v-1245c26.667 -22 60.334 -34.333 101.001 -37v-56h-448v56c40.667 2.66699 74.334 15 101.001 37v1245c-26.667 26 -60.334 39.333 -101.001 40h-60
c-56.667 0 -85.667 -32 -87 -96h-26v206h794z" />
    <glyph glyph-name="U" unicode="U" horiz-adv-x="1098" 
d="M5 744l-0.00195312 634.999c-26.667 26 -60 39.667 -100 41v69h456v-69c-41.333 -1.33301 -75.333 -15 -102 -41v-635h1c2.66699 -172.667 41.334 -319.667 116.001 -441c76.667 -125.333 170.334 -188 281.001 -188c37.333 0 69.666 7 96.999 21v1241
c-25.333 26 -56.666 39.667 -93.999 41v69h400v-69c-38.667 -1.33301 -70.667 -15 -96 -41v-1267c28.667 -26 62.667 -39.333 102 -40v-70h-411v5c-24 -3.33301 -48.667 -5 -74 -5c-161.333 0 -298 73.333 -410 220c-110.667 144.667 -166.667 319.334 -168 524.001h2z" />
    <glyph glyph-name="V" unicode="V" horiz-adv-x="1158" 
d="M537 119l-347.001 1276c26.667 22 60.334 34.333 101.001 37v56h-291v-56c39.333 -2.66699 72.333 -15 99 -37l350 -1285c-26.667 -26 -59.667 -39.333 -99 -40v-70h497v70c-40.667 0.666992 -74.334 14 -101.001 40l320 1285c26.667 22 60.334 34.333 101.001 37v56
h-411v-56c39.333 -2.66699 72.333 -15 99 -37z" />
    <glyph glyph-name="W" unicode="W" horiz-adv-x="1685" 
d="M838 551l109.998 -441c-26.667 -26 -60.334 -39.333 -101.001 -40v-70h497v70c-39.333 0.666992 -72.333 14 -99 40l350 1285c26.667 22 59.334 34.333 98.001 37v56h-290v-56c40.667 -2.66699 74.334 -15 101.001 -37l-348 -1275l-208 835l120 440
c26.667 22 59.667 34.333 99 37v56h-640v-56c40.667 -2.66699 74.334 -15 101.001 -37l167 -669l-166 -606l-317 1275c26.667 22 59.667 34.333 99 37v56h-411v-56c40.667 -2.66699 74.334 -15 101.001 -37l320 -1285c-26.667 -26 -60.334 -39.333 -101.001 -40v-70h497v70
c-39.333 0.666992 -72.333 14 -99 40zM904.998 1130l-65.999 265c19.333 16 42 27 68 33c27.333 -6 50.666 -17 69.999 -33z" />
    <glyph glyph-name="X" unicode="X" horiz-adv-x="1019" 
d="M566 823l324 -730c26.667 -22 60.334 -34.333 101.001 -37v-56h-421v56c39.333 2.66699 72.333 15 99 37l-213 481l-214 -481c26.667 -22 59.667 -34.333 99 -37v-56h-341v56c40.667 2.66699 74.334 15 101.001 37l284 640l-286 645c-26.667 26 -59.667 39.667 -99 41v69
h421v-69c-40.667 -1.33301 -74.334 -15 -101.001 -41l176 -396l175 396c-26.667 26 -60.334 39.667 -101.001 41v69h341v-69c-39.333 -1.33301 -72.333 -15 -99 -41z" />
    <glyph glyph-name="Y" unicode="Y" horiz-adv-x="956" 
d="M347 835h-6.99902l-241 543c-26.667 26 -59.667 39.667 -99 41v69h421v-69c-40.667 -1.33301 -74.334 -15 -101.001 -41l176 -396l175 396c-26.667 26 -60.334 39.667 -101.001 41v69h341v-69c-39.333 -1.33301 -72.333 -15 -99 -41l-241 -543h-3v-742
c26.667 -22 60.334 -34.333 101.001 -37v-56h-421v56c39.333 2.66699 72.333 15 99 37v742z" />
    <glyph glyph-name="Z" unicode="Z" horiz-adv-x="913" 
d="M564 1378c-26.667 26 -60.332 39.333 -100.999 40h-320c-56.667 0 -85.667 -32 -87 -96h-56v166h904v-70c-32.667 -0.666992 -62.334 -14 -89.001 -40l-520 -1285c2 -14.667 14 -22 36 -22l451 -1c56.667 0 85.667 32 87 96h46v-166h-913v56z" />
    <glyph glyph-name="bracketleft" unicode="[" horiz-adv-x="372" 
d="M0 0v1488h341v-69c-94 -1.33301 -154.333 -15 -181 -41v-1285c26.667 -22 87 -34.333 181 -37v-56h-341z" />
    <glyph glyph-name="backslash" unicode="\" horiz-adv-x="1004" 
d="M692 0l-26 56c28.667 2.66699 48 15 58 37l-599 1285c-32 26 -63.333 39.667 -94 41l-32 69h313l32 -69c-28.667 -1.33301 -47 -15 -55 -41l599 -1285c30 -22 60.333 -34.333 91 -37l26 -56h-313z" />
    <glyph glyph-name="bracketright" unicode="]" horiz-adv-x="372" 
d="M0 0v56c94 2.66699 154.333 15 181 37v1285c-26.667 26 -87 39.667 -181 41v69h341v-1488h-341z" />
    <glyph glyph-name="asciicircum" unicode="^" horiz-adv-x="369" 
d="M265 1702c-6.66699 -2 -15 -3.33301 -25 -4v-6h103v6c-10 0.666992 -18.333 2 -25 4l-81 133c6.66699 2.66699 15.334 4 26.001 4v7h-134v-7c10 0 18.333 -1.33301 25 -4l-88 -133c-6.66699 -2 -15 -3.33301 -25 -4v-6h82v6c-10.667 0.666992 -19.334 2 -26.001 4l88 132
z" />
    <glyph glyph-name="underscore" unicode="_" horiz-adv-x="1139" 
d="M14 170h43c2 -16 11.333 -29.333 28 -40h978c20 10.667 30.333 24 31 40h53v-170h-53c-0.666992 16 -11 29.333 -31 40h-978c-16.667 -10.667 -26 -24 -28 -40h-43v170z" />
    <glyph glyph-name="grave" unicode="`" horiz-adv-x="499" 
d="M6 1643c7.33301 8 19.833 13.667 37.5 17s38.5 3.83301 62.5 1.5s46.667 -7.16602 68 -14.499c22 -7.33301 41 -16.333 57 -27s59.667 -32.834 131 -66.501s103 -54.5 95 -62.5c-7.33301 -8 -53.666 -2.5 -138.999 16.5s-139.833 29.833 -163.5 32.5
s-46.167 7.66699 -67.5 15c-22 7.33301 -41 16.333 -57 27s-25.833 21.5 -29.5 32.5s-1.83398 20.5 5.49902 28.5z" />
    <glyph glyph-name="a" unicode="a" horiz-adv-x="992" 
d="M535 622c-90 0 -166.5 -25.668 -229.5 -77.001s-94.5 -113.666 -94.5 -186.999c0 -72.667 31.5 -134.667 94.5 -186s139.5 -77 229.5 -77c68 0 120 14.667 156 44v440c-36.667 28.667 -88.667 43 -156 43zM877 736.999l0.000976562 -661.999
c26.667 -18 59 -27.333 97 -28v-47h-283v39c-65.333 -26 -138 -39 -218 -39c-131.333 -0 -243 35.333 -335 106s-138 156 -138 256s46.333 185.167 139 255.5s204 105.5 334 105.5c79.333 0 153.333 -12.667 222 -38v37c0 5.33301 -0.333008 10.333 -1 15h1
c-4 16 -18.667 44 -44 84c-30 47.333 -71.5 83.666 -124.5 108.999s-108.167 38 -165.5 38c-56 0 -110.333 -12.333 -163 -37c-49.333 -24 -88.333 -57.667 -117 -101l-51 40l9 15c40 57.333 95.667 101.333 167 132s144.666 46 219.999 46
c74.667 0 147.334 -15.333 218.001 -46s126 -75 166 -133c33.333 -47.333 55.666 -96.333 66.999 -147z" />
    <glyph glyph-name="b" unicode="b" horiz-adv-x="1000" 
d="M769.5 729.5c-21.667 55.667 -51.167 102.5 -88.5 140.5s-76 57 -116 57c-40.667 0 -80 -19 -118 -57s-67.667 -84.833 -89 -140.5s-32 -122.167 -32 -199.5c0 -76.667 10.5 -150.167 31.5 -220.5s50.333 -125 88 -164s77.5 -58.5 119.5 -58.5c40 0 79 19.5 117 58.5
s67.5 93.667 88.5 164s31.5 143.833 31.5 220.5c0 77.333 -10.833 143.833 -32.5 199.5zM324 1494l0.000976562 -576c14.667 12.667 29.667 25 45 37c68 46 137 69 207 69c71.333 0 140.666 -23.333 207.999 -70s119.833 -104.167 157.5 -172.5s56.5 -149.5 56.5 -243.5
c0 -93.333 -18.5 -182.333 -55.5 -267s-88.833 -150.5 -155.5 -197.5s-144 -74.5 -232 -82.5c-91.333 -8.66699 -177 30 -257 116v-107h-279v59c34.667 0.666992 65.667 9 93 25v1273c-13.333 42 -51 60 -113 54l1 83h324z" />
    <glyph glyph-name="c" unicode="c" 
d="M901 151c-99.333 -100.667 -218.997 -150.999 -358.997 -150.999c-138.667 0 -257.5 50.333 -356.5 151s-148.5 222.334 -148.5 365.001c0 143.333 49 265.5 147 366.5s217.333 151.5 358 151.5c132 0 245 -44.333 339 -133c37.333 -3.33301 64 5.33398 80 26.001l33 -37
l-136 -226l-59 40c13.333 45.333 13.666 79.666 0.999023 102.999c-36 78.667 -100 118 -192 118c-96 0 -177.667 -38.167 -245 -114.5s-101 -175.833 -101 -298.5s33.667 -218.834 101 -288.501s149 -104.5 245 -104.5c95.333 0 162.333 43 201 129
c11.333 14.667 21.666 29.667 30.999 45l111 -83c-14.667 -20.667 -31.334 -40.334 -50.001 -59.001z" />
    <glyph glyph-name="d" unicode="d" horiz-adv-x="1000" 
d="M195 530c0 -76.667 10.5 -150 31.5 -220s50.5 -124.5 88.5 -163.5s77.333 -58.5 118 -58.5c41.333 0 81 19.5 119 58.5s67.333 93.5 88 163.5s31 143.333 31 220c0 77.333 -10.5 143.666 -31.5 198.999s-50.667 102 -89 140s-77.5 57 -117.5 57
c-40.667 0 -79.667 -19 -117 -57s-66.833 -84.667 -88.5 -140s-32.5 -121.666 -32.5 -198.999zM998 1488v-76.999c-62 19.333 -99.667 14.666 -113 -14.001v-1303c27.333 -16 58.333 -24.333 93 -25v-69h-279v107c-79.333 -86 -164.666 -124.667 -255.999 -116
c-88 8 -165.5 35.5 -232.5 82.5s-119 112.833 -156 197.5s-55.5 173.667 -55.5 267c0 94 18.833 175.167 56.5 243.5s90.167 125.833 157.5 172.5s136.666 70 207.999 70c70.667 0 139.667 -23 207 -69c16 -12 31 -24.333 45 -37v570h325z" />
    <glyph glyph-name="e" unicode="e" horiz-adv-x="1015" 
d="M277 768h511.999c4.66699 26 -1.66602 55 -18.999 87c-62.667 53.333 -140 80 -232 80c-96 0 -164.333 -29.667 -205 -89c-22 -24.667 -40.667 -50.667 -56 -78zM256.999 645c-10 -41.333 -14.998 -85.666 -14.998 -132.999c0 -122.667 33.667 -218.834 101 -288.501
s149 -104.5 245 -104.5c95.333 0 162.333 43 201 129c11.333 14.667 21.666 29.667 30.999 45l111 -83c-14.667 -20.667 -31.334 -40.334 -50.001 -59.001c-99.333 -100.667 -219 -151 -359 -151c-138.667 0 -257.5 50.333 -356.5 151s-148.5 222.334 -148.5 365.001
c0 143.333 49 265.5 147 366.5s217.333 151.5 358 151.5c132 0 245 -44.333 339 -133c58 -58.667 99.667 -144 125 -256h-729z" />
    <glyph glyph-name="f" unicode="f" horiz-adv-x="439" 
d="M93 1020l-0.000976562 102c-8 197.333 81.333 332 268 404l2 -180c-92.667 -56 -115.667 -130.667 -69 -224v-102h148v-86h-148v-834c26.667 -26 59.667 -39.667 99 -41v-59h-401v59c40.667 1.33301 74.334 15 101.001 41v834h-86v86h86z" />
    <glyph glyph-name="g" unicode="g" horiz-adv-x="1008" 
d="M736 164l0.000976562 670c-38 44.667 -93.333 67 -166 67c-96 0 -177.667 -39 -245 -117s-101 -172.667 -101 -284s33.667 -206 101 -284s149 -117 245 -117c71.333 0 126.666 21.667 165.999 65zM740.001 -6l0.00585938 51.999
c-72.667 -35.333 -151.334 -53 -236.001 -53c-138.667 0 -257.5 49.833 -356.5 149.5s-148.5 220.5 -148.5 362.5c0 142.667 49 264.167 147 364.5s217.333 150.5 358 150.5c85.333 0 162.666 -18.333 231.999 -55v55h302v-76
c-40.667 -1.33301 -74.334 -14.666 -101.001 -39.999v-886c0 -78 -18.833 -152.833 -56.5 -224.5s-85.834 -127.5 -144.501 -167.5s-134.334 -60 -227.001 -60c-96 0 -173 20 -231 60s-105.667 95.667 -143 167c-6 10.667 -11.333 21.334 -16 32.001l106 61
c2.66699 -8.66699 5.66699 -17.334 9 -26.001c24 -63.333 57.333 -112.666 100 -147.999s88 -53 136 -53c45.333 0 89.666 7.66699 132.999 23s77 54.666 101 117.999c23.333 62 35.333 126.667 36 194z" />
    <glyph glyph-name="h" unicode="h" 
d="M325 822l0.000976562 -822.002h-296v66c34.667 0.666992 65.667 9 93 25v1303c-13.333 28.667 -51 33.334 -113 14.001l1 80h315v-528c0.666992 0.666992 1.66699 1.33398 3 2.00098c68.667 38.667 139.667 58 213 58c72.667 0 142.667 -19.5 210 -58.5
s120.666 -86.833 159.999 -143.5c30.667 -44.667 50 -96.334 58 -155.001v-570c26.667 -22 60.334 -34.333 101.001 -37v-56h-398v56c39.333 2.66699 71.666 15 96.999 37v517c-4.66699 46.667 -16 88.334 -34 125.001c-24.667 50 -58.334 92.333 -101.001 127
s-86.667 52 -132 52c-46 0 -90.667 -17.333 -134 -52c-15.333 -12.667 -29.666 -26 -42.999 -40z" />
    <glyph glyph-name="i" unicode="i" horiz-adv-x="379" 
d="M-1 0v56c66 0 99 15.667 99 47v791c0 26 -33 39.667 -99 41v85h381v-85c-67.333 -1.33301 -101 -15 -101 -41v-791c0 -31.333 33.667 -47 101 -47v-56h-381zM186 1352c22.667 0 44.4971 -5.66699 65.4971 -17s37.667 -27.5 50 -48.5s18.5 -42.833 18.5 -65.5
s-6 -44.5 -18 -65.5s-28.5 -37.167 -49.5 -48.5s-43.167 -17 -66.5 -17s-45.666 5.66699 -66.999 17s-37.833 27.5 -49.5 48.5s-17.5 42.833 -17.5 65.5s5.83301 44.5 17.5 65.5s28.334 37.167 50.001 48.5s43.834 17 66.501 17z" />
    <glyph glyph-name="j" unicode="j" horiz-adv-x="436" 
d="M218 1355c22.667 0 44.4971 -5.66699 65.4971 -17s37.667 -27.5 50 -48.5s18.5 -42.833 18.5 -65.5s-6 -44.5 -18 -65.5s-28.5 -37.167 -49.5 -48.5s-43.167 -17 -66.5 -17s-45.666 5.66699 -66.999 17s-37.833 27.5 -49.5 48.5s-17.5 42.833 -17.5 65.5
s5.83301 44.5 17.5 65.5s28.334 37.167 50.001 48.5s43.834 17 66.501 17zM-203.003 -367c30 -18.667 60.9971 -28.001 92.9971 -28.001c42 0 83.167 17.667 123.5 53s71.833 84.666 94.5 147.999c14 39.333 23.667 80 29 122v972c0 23.333 -33 35 -99 35v85h381v-85
c-67.333 0 -101 -11.667 -101 -35v-946l-4 -39c-8.66699 -39.333 -22 -78 -40 -116c-36 -71.333 -86 -127 -150 -167s-130 -60 -198 -60c-70.667 0 -138 20 -202 60l-8 6c-6 2.66699 -12.333 5.33398 -19 8.00098c-21.333 11.333 -37.833 27.5 -49.5 48.5
s-17.5 42.833 -17.5 65.5s5.83301 44.5 17.5 65.5s28.334 37.167 50.001 48.5s43.834 17 66.501 17s44.5 -5.66699 65.5 -17s37.667 -27.5 50 -48.5s18.5 -42.833 18.5 -65.5s-6 -44.5 -18 -65.5s-28.333 -37.167 -49 -48.5
c-11.333 -5.33301 -22.666 -9.66602 -33.999 -12.999z" />
    <glyph glyph-name="k" unicode="k" horiz-adv-x="840" 
d="M289 410v-317c26.667 -22 60.334 -34.333 101.001 -37v-56h-391v56c39.333 2.66699 72.333 15 99 37v1285c-26.667 26 -59.667 39.667 -99 41v69h391v-69c-40.667 -1.33301 -74.334 -15 -101.001 -41v-794l268 324c-26.667 26 -59.667 39.667 -99 41v71h351v-71
c-40.667 -1.33301 -74.334 -15 -101.001 -41l-150 -174l360 -640c26.667 -22.667 60.334 -35.334 101.001 -38.001v-56h-351v56c39.333 2.66699 72.333 15.334 99 38.001l-290 556z" />
    <glyph glyph-name="l" unicode="l" horiz-adv-x="386" 
d="M-1 0v56c39.333 2.66699 72.333 15 99 37v1285c-26.667 26 -59.667 39.667 -99 41v69h381v-69c-40.667 -1.33301 -74.334 -15 -101.001 -41v-1285c26.667 -22 60.334 -34.333 101.001 -37v-56h-381z" />
    <glyph glyph-name="m" unicode="m" horiz-adv-x="1730" 
d="M1667 649l0.000976562 -542c26.667 -22 60.334 -34.333 101.001 -37v-76h-388v76c39.333 2.66699 72.333 15 99 37v512c-6 28 -13.333 55.333 -22 82c-24 74.667 -57.333 132 -100 172s-86.334 60 -131.001 60c-45.333 0 -89 -20 -131 -60s-75 -97.333 -99 -172
c-5.33301 -16.667 -10 -33.334 -14 -50.001h-6c1.33301 -6 2.33301 -12 3 -18v-520c26.667 -22 60.334 -34.333 101.001 -37v-76h-398v76c39.333 2.66699 71.666 15 96.999 37v507l-4 31h-6c1.33301 3.33301 2.66602 7 3.99902 11c-6 30 -15.333 57.667 -28 83
c-24.667 50 -58.334 92.333 -101.001 127s-86.667 52 -132 52c-46 0 -90.667 -17.333 -134 -52c-15.333 -12.667 -29.666 -26 -42.999 -40v-832h-296v66c34.667 0.666992 65.667 9 93 25v783c-13.333 48.667 -51 66.667 -113 54l1 93h315v-61
c0.666992 0.666992 1.66699 1.33398 3 2.00098c68.667 38.667 139.667 58 213 58c72.667 0 142.667 -19.333 210 -58c45.333 -26.667 84.333 -57.334 117 -92.001c30 32.667 64 60.334 102 83.001c75.333 44.667 153 67 233 67c78.667 0 155.667 -22.5 231 -67.5
s134.333 -109.167 177 -192.5c18.667 -36 34 -73 46 -111z" />
    <glyph glyph-name="n" unicode="n" 
d="M325 832l0.000976562 -832.001h-296v66c34.667 0.666992 65.667 9 93 25v799c-13.333 35.333 -51 50 -113 44l1 87h315v-61c0.666992 0.666992 1.66699 1.33398 3 2.00098c68.667 38.667 139.667 58 213 58c72.667 0 142.667 -19.5 210 -58.5
s120.666 -86.833 159.999 -143.5c30.667 -44.667 50 -96.334 58 -155.001v-560c26.667 -22 60.334 -34.333 101.001 -37v-66h-398v66c39.333 2.66699 71.666 15 96.999 37v517c-4.66699 46.667 -16 88.334 -34 125.001c-24.667 50 -58.334 92.333 -101.001 127
s-86.667 52 -132 52c-46 0 -90.667 -17.333 -134 -52c-15.333 -12.667 -29.666 -26 -42.999 -40z" />
    <glyph glyph-name="o" unicode="o" horiz-adv-x="1046" 
d="M509 1028c85.333 0 168.501 -22.5 249.501 -67.5s144.5 -109.333 190.5 -193s69 -170.834 69 -261.501c0 -91.333 -22.5 -178.5 -67.5 -261.5s-107.833 -147.333 -188.5 -193s-165 -68.5 -253 -68.5c-88.667 0 -173.334 22.833 -254.001 68.5s-143.5 110 -188.5 193
s-67.5 170.167 -67.5 261.5c0 90.667 22.667 177.834 68 261.501s108.833 148 190.5 193s165.5 67.5 251.5 67.5zM372.001 864c-45.333 -36 -80.832 -87.667 -106.499 -155s-38.5 -137.333 -38.5 -210c0 -73.333 12.5 -143.166 37.5 -209.499s60.5 -118.166 106.5 -155.499
s93.333 -56 142 -56c50 0 97.833 18.667 143.5 56s81.167 89.166 106.5 155.499s38 136.166 38 209.499c0 72.667 -13 142.667 -39 210s-61.833 119 -107.5 155s-92.834 54 -141.501 54s-95.667 -18 -141 -54z" />
    <glyph glyph-name="p" unicode="p" horiz-adv-x="1000" 
d="M780 490c0 71.333 -10.5 139.666 -31.5 204.999s-50.5 116 -88.5 152s-77 54 -117 54c-42 0 -81.833 -18 -119.5 -54s-67 -86.667 -88 -152s-31.5 -133.666 -31.5 -204.999s10.667 -132.666 32 -183.999s51 -94.5 89 -129.5s77.333 -52.5 118 -52.5
c40 0 78.667 17.5 116 52.5s66.833 78.167 88.5 129.5s32.5 112.666 32.5 183.999zM-23 -434l-0.000976562 82.998c62 -19.333 99.667 -14.666 113 14.001v1247c-27.333 16.667 -58 25.334 -92 26.001v81h278v-104c80 86 165.667 124.667 257 116
c88 -8 165.333 -35.5 232 -82.5s118.5 -112.833 155.5 -197.5s55.5 -174 55.5 -268c0 -93.333 -18.833 -174.333 -56.5 -243s-90.167 -126.167 -157.5 -172.5s-136.666 -69.5 -207.999 -69.5c-70 0 -139 23 -207 69c-15.333 12 -30.333 24.333 -45 37v-536h-325z" />
    <glyph glyph-name="q" unicode="q" horiz-adv-x="977" 
d="M245.5 289c21.667 -53.333 51.167 -98.333 88.5 -135s76.333 -55 117 -55c40 0 79.167 18.333 117.5 55s68 81.667 89 135s31.5 117.666 31.5 192.999c0 74 -10.333 145.167 -31 213.5s-50 121.333 -88 159s-77.667 56.5 -119 56.5c-40.667 0 -80 -18.833 -118 -56.5
s-67.5 -90.667 -88.5 -159s-31.5 -139.5 -31.5 -213.5c0 -75.333 10.833 -139.666 32.5 -192.999zM691 -434v536.002c-14 -12.667 -29 -25 -45 -37c-67.333 -46 -136.333 -69 -207 -69c-71.333 0 -140.666 23.167 -207.999 69.5s-119.833 103.833 -157.5 172.5
s-56.5 149.667 -56.5 243c0 94 18.5 183.333 55.5 268s89 150.5 156 197.5s144.5 74.5 232.5 82.5c91.333 8.66699 176.666 -30 255.999 -116v104h279v-76c-34.667 -0.666992 -65.667 -9.33398 -93 -26.001v-1252c13.333 -28.667 51 -33.334 113 -14.001v-83h-325z" />
    <glyph glyph-name="r" unicode="r" horiz-adv-x="818" 
d="M645 869c-40 30 -80.999 44.998 -122.999 44.998c-46 0 -90.667 -17.333 -134 -52c-15.333 -12.667 -29.666 -26 -42.999 -40v-822h-296v66c34.667 0.666992 65.667 9 93 25v803c-13.333 28.667 -51 43.334 -113 44.001l1 83h315v-61
c0.666992 0.666992 1.66699 1.33398 3 2.00098c68.667 38.667 139.667 58 213 58c72.667 0 142.667 -32.667 210 -98c18 -12.667 29.667 -25.5 35 -38.5s8 -27.167 8 -42.5s-3.83301 -30 -11.5 -44s-18.334 -24.833 -32.001 -32.5s-28.167 -11.5 -43.5 -11.5
s-29.833 3.83301 -43.5 11.5s-24.334 18.5 -32.001 32.5s-11.5 28.667 -11.5 44c0 10 1.66699 19.333 5 28z" />
    <glyph glyph-name="s" unicode="s" horiz-adv-x="892" 
d="M21 -24l-0.000976562 319h76l3 -37c6 -30 11.333 -51.667 16 -65c64 -67.333 173 -101 327 -101c84 0 153 17 207 51c56 34 81.333 60.667 76 80c-4 51.333 -35 97 -93 137c-24 16.667 -54.333 33.667 -91 51l-104 45c-64.667 28 -114.667 51 -150 69
c-50 24.667 -91 48.667 -123 72c-76 56 -117 120.667 -123 194c-5.33301 64.667 23.334 120.667 86.001 168c75.333 56 184.333 84 327 84c54 0 111 -3.33301 171 -10c22.667 -2.66699 44.667 -5.66699 66 -9l50 -7c4.66699 14 2.33398 27.667 -6.99902 41h75
c2 -97.333 6.66699 -185.666 14 -264.999h-83c-2 15.333 -5.33301 30.666 -10 45.999c-14.667 16 -47.334 37 -98.001 63c-60 30 -123.333 45 -190 45c-84 0 -148.667 -15.667 -194 -47c-37.333 -27.333 -54.666 -59.333 -51.999 -96c-0.666992 -28 26.333 -50 81 -66
c38 -14 78 -29.667 120 -47l186 -78c24.667 -10.667 46.667 -20.667 66 -30c47.333 -23.333 87 -46.333 119 -69c78 -58 120 -127.333 126 -208c7.33301 -96.667 -37.334 -173.667 -134.001 -231c-90.667 -54 -210.667 -81 -360 -81c-128 0 -225.667 11.667 -293 35v-53h-87
z" />
    <glyph glyph-name="t" unicode="t" horiz-adv-x="421" 
d="M0 854l0.000976562 166.001h100v354c-26.667 26 -53.667 39.667 -81 41v73h341v-73c-26 -1.33301 -52.333 -15 -79 -41v-354h148v-166h-148v-372c-37.333 -128.667 -14.333 -243.334 69 -344.001l-74 -176c-148.667 142.667 -207.334 316 -176.001 520v372h-100z" />
    <glyph glyph-name="u" unicode="u" 
d="M744 159l-0.000976562 862h296v-86c-62 0 -93 -20.333 -93 -61v-737c13.333 -42 51 -60 113 -54v-83h-316v61c-0.666992 -0.666992 -1.66699 -1 -3 -1c-68.667 -39.333 -139.667 -59 -213 -59c-72.667 0 -142.667 19.5 -210 58.5s-120.666 86.833 -159.999 143.5
c-30.667 44.667 -50 96.334 -58 155.001v516c0 40.667 -33.667 61 -101 61v86h398v-86c-64.667 0 -97 -20.333 -97 -61v-503c4.66699 -46.667 16 -88.334 34 -125.001c24.667 -50 58.334 -92.333 101.001 -127s86.667 -52 132 -52c46 0 90.667 17.333 134 52
c15.333 12.667 29.666 26 42.999 40z" />
    <glyph glyph-name="v" unicode="v" horiz-adv-x="969" 
d="M218 919c23.333 15.333 52.667 24 88 26v78h-366v-78c36 -2 66 -10.667 90 -26l285 -823c-17.333 -18 -37.333 -27.333 -60 -28v-68h412v68c-21.333 0.666992 -40.666 10 -57.999 28l312 823c23.333 15.333 52.666 24 87.999 26v78h-289v-78c36 -2 66 -10.667 90 -26
l-309 -817z" />
    <glyph glyph-name="w" unicode="w" horiz-adv-x="1486" 
d="M686 376l97.0039 -279.999c-24 -18 -54 -27.333 -90 -28v-68h472v68c-34.667 0.666992 -67.334 10 -98.001 28l322 823c23.333 15.333 52.666 24 87.999 26v75h-289v-75c36 -2 66 -10.667 90 -26l-309 -817l-185 552l107 262c23.333 15.333 52.666 23.666 87.999 24.999
v79h-571v-75c36 -2 66 -10.667 90 -26l150 -424l-147 -396l-283 817c23.333 15.333 52.666 23.666 87.999 24.999v79h-366v-79c36 -1.33301 66 -9.66602 90 -24.999l285 -823c-24 -18 -54 -27.333 -90 -28v-68h442v68c-34.667 0.666992 -64 10 -88 28zM607.004 916.001
c20 12.667 44.666 20.667 73.999 24c18.667 -4.66699 35.334 -11.667 50.001 -21l-60 -145z" />
    <glyph glyph-name="x" unicode="x" horiz-adv-x="903" 
d="M537 564l308 -470c25.333 -15.333 57.333 -24 96 -26v-68h-400v68c37.333 2 68.666 10.667 93.999 26l-202 299l-203 -299c25.333 -15.333 56.666 -24 93.999 -26v-68h-324v68c38.667 2 70.667 10.667 96 26l270 408l-272 403
c-25.333 17.333 -56.666 26.666 -93.999 27.999v87h400v-87c-38.667 -1.33301 -70.667 -10.666 -96 -27.999l167 -232l166 232c-25.333 17.333 -57.333 26.666 -96 27.999v87h324v-87c-37.333 -1.33301 -68.666 -10.666 -93.999 -27.999z" />
    <glyph glyph-name="y" unicode="y" 
d="M744 -49l0.000976562 109.001c-0.666992 -0.666992 -1.66699 -1.33398 -3 -2.00098c-68.667 -38.667 -139.667 -58 -213 -58c-72.667 0 -142.667 19.5 -210 58.5s-120.666 86.833 -159.999 143.5c-30.667 44.667 -50 96.334 -58 155.001v540
c-26.667 22 -60.334 34.333 -101.001 37v86h398v-86c-39.333 -2.66699 -71.666 -15 -96.999 -37v-527c4.66699 -46.667 16 -88.334 34 -125.001c24.667 -50 58.334 -92.333 101.001 -127s86.667 -52 132 -52c46 0 90.667 17.333 134 52c15.333 12 29.666 25.333 42.999 40
v862h296v-82c-34.667 -0.666992 -65.667 -9 -93 -25v-963c-12 -50.667 -30.667 -100.667 -56 -150c-38 -72 -91.333 -128 -160 -168s-139.334 -60 -212.001 -60c-76 0 -148 20 -216 60s-120.667 95.667 -158 167c-6 10.667 -11.333 21.334 -16 32.001l106 1
c2.66699 -8.66699 5.66699 -17.334 9 -26.001c24 -63.333 57.333 -112.666 100 -147.999s88 -53 136 -53c45.333 0 89.666 17.667 132.999 53s77 84.666 101 147.999c17.333 46.667 27.333 95 30 145z" />
    <glyph glyph-name="z" unicode="z" horiz-adv-x="863" 
d="M516 909c-24.667 17.333 -55.333 26.334 -92 27.001h-293c-52 0 -78.667 -21.667 -80 -65h-51v146h827v-81c-30 -0.666992 -57 -9.66699 -81 -27l-476 -815c2 -10 13 -15 33 -15h412c52 -0.666992 78.667 20.666 80 63.999h42v-143h-835v68z" />
    <glyph glyph-name="braceleft" unicode="{" horiz-adv-x="466" 
d="M110 0v371c33.333 124 -3.33398 248 -110.001 372c106.667 124 143.334 248 110.001 372v372h341v-69c-94 -1.33301 -154.333 -15 -181 -41v-261c33.333 -124 -3.33398 -248 -110.001 -372c106.667 -124 143.334 -248 110.001 -372v-280c26.667 -22 87 -34.333 181 -37
v-55h-341z" />
    <glyph glyph-name="bar" unicode="|" horiz-adv-x="365" 
d="M-1 0v56c30 2.66699 55.333 15 76 37v1285c-20.667 26 -46 39.667 -76 41v69h324v-69c-31.333 -1.33301 -57.333 -15 -78 -41v-1285c20.667 -22 46.667 -34.333 78 -37v-56h-324z" />
    <glyph glyph-name="braceright" unicode="}" horiz-adv-x="466" 
d="M0 0v55c94 2.66699 154.333 15 181 37v280c-33.333 124 3.33398 248 110.001 372c-106.667 124 -143.334 248 -110.001 372v261c-26.667 26 -87 39.667 -181 41v69h341v-372c-33.333 -124 3.33398 -248 110.001 -372c-106.667 -124 -143.334 -248 -110.001 -372v-371
h-341z" />
    <glyph glyph-name="asciitilde" unicode="~" horiz-adv-x="487" 
d="M453 1684l20.001 -0.00195312c-1.33301 -62 -12.333 -110.167 -33 -144.5s-46 -51.5 -76 -51.5c-13.333 0 -27.833 3.66699 -43.5 11s-56.5 32.333 -122.5 75c-45.333 30 -77.666 45 -96.999 45c-20.667 0 -38.167 -10.167 -52.5 -30.5s-24.166 -53.5 -29.499 -99.5h-20
c1.33301 64.667 12.166 113.834 32.499 147.501s44.166 50.5 71.499 50.5c12.667 0 25.667 -3.66699 39 -11c31.333 -14 72.166 -38.167 122.499 -72.5s85.5 -51.5 105.5 -51.5c22 0 40.667 11.333 56 34s24.333 55.334 27 98.001z" />
    <glyph glyph-name="exclamdown" unicode="&#xa1;" horiz-adv-x="310" 
d="M250 776l-0.000976562 -1095c20.667 -26 47 -39.667 79 -41v-69h-328v69c30.667 1.33301 56.334 15 77.001 41v1095h172zM115.499 875.5c-16.333 8.33301 -28.833 20.333 -37.5 36s-13 32.167 -13 49.5c0 16.667 4.33301 33 13 49s21 28.167 37 36.5s33 12.5 51 12.5
c17.333 0 33.833 -4.16699 49.5 -12.5s28 -20.5 37 -36.5s13.5 -32.333 13.5 -49c0 -17.333 -4.66699 -33.833 -14 -49.5s-21.833 -27.667 -37.5 -36s-31.834 -12.5 -48.501 -12.5c-17.333 0 -34.166 4.16699 -50.499 12.5z" />
    <glyph glyph-name="cent" unicode="&#xa2;" horiz-adv-x="1001" 
d="M441 1015l0.00292969 75.001c-16 24 -36 36.333 -60 37v63h258v-63c-25.333 -0.666992 -46 -13 -62 -37v-73c106.667 -11.333 200 -54.666 280 -129.999c37.333 -3.33301 64 5.33398 80 26.001l33 -37l-136 -196l-59 40c13.333 45.333 13.666 79.666 0.999023 102.999
c-36 78.667 -100 118 -192 118c-96 0 -177.667 -43.167 -245 -129.5s-101 -190.833 -101 -313.5s33.667 -227.167 101 -313.5s149 -129.5 245 -129.5c95.333 0 162.333 43 201 129c11.333 14.667 21.666 29.667 30.999 45l111 -33
c-14.667 -20.667 -31.334 -40.334 -50.001 -59.001c-85.333 -86 -185.333 -135 -300 -147v-90c16 -19.333 36.667 -30.333 62 -33v-51h-258v51c24 2.66699 44 13.667 60 33v92c-106 15.333 -199 63.666 -279 144.999c-99.333 100.667 -149 222.334 -149 365.001
c0 143.333 49 265.666 147 366.999c79.333 82 173 130.667 281 146z" />
    <glyph glyph-name="yen" unicode="&#xa5;" horiz-adv-x="966" 
d="M568 577l0.000976562 -484c26.667 -22 60.334 -34.333 101.001 -37v-56h-421v56c39.333 2.66699 72.333 15 99 37v484h-200c-11.333 -10 -17.666 -22.667 -18.999 -38h-28v156h28c1.33301 -14.667 7.66602 -27 18.999 -37h200v94h-199
c-11.333 -10 -17.666 -22.667 -18.999 -38h-29v156h29c1.33301 -14.667 7.66602 -27 18.999 -37h199v2h-7l-241 543c-26.667 26 -59.667 39.667 -99 41v69h421v-69c-40.667 -1.33301 -74.334 -15 -101.001 -41l176 -396l175 396c-26.667 26 -60.334 39.667 -101.001 41v69
h341v-69c-39.333 -1.33301 -72.333 -15 -99 -41l-241 -543h-3v-2h220c13.333 10 20.333 22.333 21 37h34v-156h-34c-0.666992 15.333 -7.66699 28 -21 38h-220v-94h219c13.333 10 20.333 22.333 21 37h35v-156h-35c-0.666992 15.333 -7.66699 28 -21 38h-219z" />
    <glyph glyph-name="brokenbar" unicode="&#xa6;" horiz-adv-x="460" 
d="M322 633l-0.000976562 -540c26.667 -22 60.334 -34.333 101.001 -37v-56h-421v56c39.333 2.66699 72.333 15 99 37v540h221zM100.999 854l0.000976562 524c-26.667 26 -59.667 39.667 -99 41v69h421v-69c-40.667 -1.33301 -74.334 -15 -101.001 -41v-524h-221z" />
    <glyph glyph-name="dieresis" unicode="&#xa8;" horiz-adv-x="435" 
d="M80 1644c13.333 0 26.333 -3.33301 39 -10s22.667 -16.167 30 -28.5s11 -25.5 11 -39.5c0 -13.333 -3.5 -26.333 -10.5 -39s-16.833 -22.334 -29.5 -29.001s-26 -10 -40 -10s-27.333 3.33301 -40 10s-22.5 16.334 -29.5 29.001s-10.5 25.667 -10.5 39
c0 14 3.5 27.167 10.5 39.5s17 21.833 30 28.5s26.167 10 39.5 10zM292 1644c13.333 0 26.332 -3.33301 38.999 -10s22.667 -16.167 30 -28.5s11 -25.5 11 -39.5c0 -13.333 -3.66699 -26.333 -11 -39s-17.166 -22.334 -29.499 -29.001s-25.5 -10 -39.5 -10
s-27.333 3.33301 -40 10s-22.5 16.334 -29.5 29.001s-10.5 25.667 -10.5 39c0 14 3.5 27.167 10.5 39.5s17 21.833 30 28.5s26.167 10 39.5 10z" />
    <glyph glyph-name="copyright" unicode="&#xa9;" horiz-adv-x="1145" 
d="M537 1075c90 0 177.666 -23.167 262.999 -69.5s152.166 -112.5 200.499 -198.5s72.5 -176 72.5 -270c0 -93.333 -23.667 -182.666 -71 -267.999s-113.333 -151.5 -198 -198.5s-173.667 -70.5 -267 -70.5s-182.333 23.5 -267 70.5s-150.667 113.167 -198 198.5
s-71 174.666 -71 267.999c0 94 23.833 184 71.5 270s114.334 152.167 200.001 198.5s173.834 69.5 264.501 69.5zM329.499 954.5c-67.667 -41 -120.831 -100 -159.498 -177s-58 -157.167 -58 -240.5s18.833 -162.833 56.5 -238.5s90.667 -134.834 159 -177.501
s139.166 -64 212.499 -64c74 0 145.167 21.333 213.5 64s121.166 101.834 158.499 177.501s56 155.167 56 238.5s-19.167 163.5 -57.5 240.5s-91.666 136 -159.999 177s-138.5 61.5 -210.5 61.5c-72.667 0 -142.834 -20.5 -210.501 -61.5zM832.002 271
c-76 -70.667 -167.667 -106 -275 -106s-199 35.333 -275 106s-114 156.334 -114 257.001s37.667 186.667 113 258s167.333 107 276 107c101.333 0 188 -31.333 260 -94c28.667 -2.66699 49.334 3.66602 62.001 18.999l25 -26l-105 -138l-45 27c10 32.667 10.333 57 1 73
c-27.333 55.333 -76.333 83 -147 83c-74.667 0 -137.834 -30.333 -189.501 -91s-77.5 -134.334 -77.5 -221.001c0 -86 25.833 -159.5 77.5 -220.5s114.834 -91.5 189.501 -91.5c73.333 0 124.666 30.333 153.999 91c8.66699 10.667 16.667 21.334 24 32.001l85 -23
c-11.333 -14.667 -24.333 -28.667 -39 -42z" />
    <glyph glyph-name="ordfeminine" unicode="&#xaa;" horiz-adv-x="600" 
d="M294 1299c-49.333 0 -91.332 -16.6689 -125.999 -50.002s-52 -73.666 -52 -120.999s17.333 -87.666 52 -120.999s76.667 -50 126 -50c37.333 0 66 9.66699 86 29v285c-20.667 18.667 -49.334 28 -86.001 28zM363.001 1398c-12.667 24 -30.1641 42.999 -52.4971 56.999
s-44.833 21 -67.5 21c-25.333 0 -48.833 -7 -70.5 -21s-38.834 -33 -51.501 -57c-1.33301 -3.33301 -3 -6.66602 -5 -9.99902h-54c2 4 4.66699 8 8 12c19.333 28 46.5 49.667 81.5 65s72.167 23 111.5 23c37.333 0 73.666 -7.66699 108.999 -23s62.666 -36.833 81.999 -64.5
s29 -56.834 29 -87.501v-346c14 -9.33301 31.333 -14.333 52 -15v-23h-155v19c-36 -14.667 -76 -22 -120 -22c-72 0 -133.333 19.5 -184 58.5s-76 85.833 -76 140.5s25.5 101.334 76.5 140.001s112.167 58 183.5 58c43.333 0 84 -7 122 -21v21c-0.666992 26 -7 51 -19 75z
" />
    <glyph glyph-name="guillemotleft" unicode="&#xab;" horiz-adv-x="767" 
d="M27 820l289 208c4.66699 -16.667 7.33398 -37 8.00098 -61h13v194h-13c-0.666992 -24 -3.33398 -43.667 -8.00098 -59l-291 -209c-6 16 -9 35.667 -9 59h-16v-317h16c0 24 3 44.333 9 61l291 -192c4.66699 -16 7.33398 -36 8.00098 -60h13v245h-13
c-0.666992 -23.333 -3.33398 -43 -8.00098 -59zM427 820l289 208c5.33301 -16.667 8.33301 -37 9 -61h12v194h-12c-0.666992 -24 -3.66699 -43.667 -9 -59l-291 -209c-6 16 -9 35.667 -9 59h-16v-317h16c0 24 3 44.333 9 61l291 -192c5.33301 -16 8.33301 -36 9 -60h12v245
h-12c-0.666992 -23.333 -3.66699 -43 -9 -59z" />
    <glyph glyph-name="registered" unicode="&#xae;" horiz-adv-x="859" 
d="M389 1498c65.333 0 128.834 -16.5 190.501 -49.5s110.167 -80.5 145.5 -142.5s53 -126.333 53 -193c0 -67.333 -17.167 -131.666 -51.5 -192.999s-82.333 -108.833 -144 -142.5s-126.167 -50.5 -193.5 -50.5s-131.833 16.833 -193.5 50.5s-109.667 81.167 -144 142.5
s-51.5 125.666 -51.5 192.999c0 66.667 17.333 131 52 193s83.167 109.5 145.5 142.5s126.166 49.5 191.499 49.5zM238.501 1411.5c-49 -29.667 -87.4971 -72 -115.497 -127s-42 -112.167 -42 -171.5c0 -60 13.667 -117.167 41 -171.5s65.666 -96.833 114.999 -127.5
s100.666 -46 153.999 -46c54 0 105.667 15.333 155 46s87.666 73.167 114.999 127.5s41 111.5 41 171.5c0 59.333 -14 116.5 -42 171.5s-66.667 97.333 -116 127s-100.333 44.5 -153 44.5s-103.5 -14.833 -152.5 -44.5zM357.004 1297
c-19.333 0 -35.333 -3.66797 -48 -11.001v-119c11.333 -1.33301 22.666 -2 33.999 -2c22.667 0 44.667 1.83301 66 5.5s38 11.5 50 23.5s18 24.333 18 37c0 13.333 -6 25.833 -18 37.5s-28.667 20.834 -50 27.501c-17.333 0.666992 -34.666 1 -51.999 1zM331.004 1140
l-22.002 -0.000976562v-200c12.667 -5.33301 28.667 -8.66602 48 -9.99902v-15h-197v15c18 1.33301 33.333 4.66602 46 9.99902v346c-12.667 7.33301 -28 11 -46 11v19h197c32 -2 63.667 -6 95 -12c38 -7.33301 67.667 -17.666 89 -30.999s32 -27.333 32 -42
s-10.333 -28.5 -31 -41.5s-50 -24.5 -88 -34.5c-8.66699 -2.66699 -17.667 -5 -27 -7l175 -208c12.667 -5.33301 28.334 -8.66602 47.001 -9.99902v-15h-197v15c18.667 1.33301 34.334 4.66602 47.001 9.99902z" />
    <glyph glyph-name="macron" unicode="&#xaf;" horiz-adv-x="800" 
d="M0 1786h28c1.33301 -24 7.66602 -44 18.999 -60h650c13.333 16 20.333 36 21 60h35v-253h-35c-0.666992 24.667 -7.66699 45 -21 61h-650c-11.333 -16 -17.666 -36.333 -18.999 -61h-28v253z" />
    <glyph glyph-name="degree" unicode="&#xb0;" horiz-adv-x="558" 
d="M267 1545c42.667 0 84.333 -10 125 -30s72.5 -48.667 95.5 -86s34.5 -76.333 34.5 -117s-11.333 -79.5 -34 -116.5s-54.167 -65.667 -94.5 -86s-82.5 -30.5 -126.5 -30.5s-86.167 10.167 -126.5 30.5s-71.833 49 -94.5 86s-34 75.833 -34 116.5s11.333 79.667 34 117
s54.5 66 95.5 86s82.833 30 125.5 30zM203.999 1493c-22.667 -18 -40.5 -43.667 -53.5 -77s-19.5 -68 -19.5 -104s6.33301 -70.5 19 -103.5s30.5 -58.667 53.5 -77s46.5 -27.5 70.5 -27.5c25.333 0 49.333 9.16699 72 27.5s40.334 44 53.001 77s19 67.5 19 103.5
s-6.5 70.667 -19.5 104s-30.833 59 -53.5 77s-46.334 27 -71.001 27c-24 0 -47.333 -9 -70 -27z" />
    <glyph glyph-name="plusminus" unicode="&#xb1;" horiz-adv-x="837" 
d="M0 353h28c1.33301 -24 7.66602 -44 18.999 -60h650c13.333 16 20.333 36 21 60h35v-253h-35c-0.666992 24.667 -7.66699 45 -21 61h-650c-11.333 -16 -17.666 -36.333 -18.999 -61h-28v253zM309 697h-262c-11.333 -16 -17.666 -36.333 -18.999 -61h-28v253h28
c1.33301 -24 7.66602 -44 18.999 -60h262v255c-16 13.333 -36 20.333 -60 21v34h253v-34c-24.667 -0.666992 -45 -7.66699 -61 -21v-255h256c13.333 16 20.333 36 21 60h34v-253h-34c-0.666992 24.667 -7.66699 45 -21 61h-256v-263c16 -11.333 36.333 -17.666 61 -18.999
v-29h-253v29c24 1.33301 44 7.66602 60 18.999v263z" />
    <glyph glyph-name="uni00B2" unicode="&#xb2;" horiz-adv-x="622" 
d="M-17.751 649.9v38.499c19.9346 0.366211 37.2686 4.76562 52.002 13.1982c-1.2998 54.999 -1.5166 90.3818 -0.649414 106.148c3.89941 72.5986 30.5498 134.931 79.9512 186.996c19.9346 21.2666 44.8525 42.166 74.7539 62.6992
c12.1338 8.43262 26.001 17.416 41.6016 26.9492l117.654 70.3984c26.8682 15.7666 48.1025 30.0664 63.7031 42.8994c40.3018 32.2666 61.5361 66.916 63.7031 103.948c1.7334 33.3662 -9.31738 62.1484 -33.1514 86.3477
c-28.6006 28.5996 -69.3359 42.8994 -122.205 42.8994c-42.4678 0 -82.5527 -13.5664 -120.254 -40.6992c-32.0674 -23.0996 -52.8682 -42.166 -62.4023 -57.1992c-2.60059 -13.9326 -4.55078 -27.499 -5.85059 -40.6982l-52.6514 4.94922v188.646h56.5518
c-6.06738 -12.0996 -7.58398 -24.5664 -4.5498 -37.3994l31.2012 7.14941c13.8672 2.93359 27.9512 5.5 42.251 7.7002c37.7021 5.86621 73.6699 8.7998 107.904 8.7998c90.1367 0 159.039 -25.2998 206.708 -75.8984c39.4346 -42.5322 57.6348 -92.9482 54.6006 -151.247
c-3.89941 -65.998 -29.9004 -124.297 -78.0029 -174.896c-20.3672 -20.8994 -46.3682 -42.5322 -78.0029 -64.8984c-22.1006 -16.1338 -53.7354 -36.8496 -94.9033 -62.1484l-65.6523 -40.6992c-22.9678 -15.7666 -47.3438 -37.0332 -73.1279 -63.7998
s-36.293 -68.1992 -31.5264 -124.298c16.9014 -16.8662 42.9023 -25.4824 78.0029 -25.8486h234.009c36.835 0 55.6855 37.7656 56.5527 113.297h36.4014v-151.796h-574.622z" />
    <glyph glyph-name="uni00B3" unicode="&#xb3;" horiz-adv-x="657" 
d="M103.954 1166.64c12.1338 -1.46582 24.916 -2.20117 38.3506 -2.20117c48.9678 0 88.4023 12.833 118.304 38.499s44.8525 65.6318 44.8525 119.897c0 19.4326 -3.3584 38.3154 -10.0762 56.6484c-6.7168 18.333 -15.0586 32.999 -25.0254 43.999
c-13.4346 14.2998 -30.6602 24.0166 -51.6768 29.1504c-21.0176 5.13281 -41.9268 7.51562 -62.7275 7.14941h-45.502c-35.5342 -4.0332 -57.8516 -15.9492 -66.9521 -35.749l-40.9521 13.75l27.9512 50.0488h173.557c48.9688 0 99.9961 -17.2334 153.081 -51.6992
s79.6279 -76.0811 79.6279 -124.846c0 -46.9326 -24.7012 -86.8984 -74.1025 -119.897c-23.4014 -15.0332 -49.1855 -26.7666 -77.3535 -35.1992c76.7031 -9.5332 142.789 -32.083 198.258 -67.6484c74.9697 -49.1318 112.454 -108.348 112.454 -177.646
c0 -67.0986 -35.4268 -124.022 -106.279 -170.771s-160.014 -70.123 -267.484 -70.123h-157.307h-59.1514v83.5977l33.8008 -0.549805c0.433594 -33.7324 13.6504 -50.5986 39.6514 -50.5986h149.506c34.668 0 73.2363 18.1494 115.704 54.4492
c42.4678 36.2988 63.7021 92.9473 63.7021 169.946c0 27.8662 -4.6582 54.7236 -13.9756 80.5732c-9.31641 25.8486 -20.9082 46.6562 -34.7754 62.4229c-19.0674 20.5332 -43.4434 36.9414 -73.1279 49.2246c-29.6846 12.2822 -63.8105 18.4238 -102.378 18.4238
c-29.0342 0 -55.6855 -3.4834 -79.9531 -10.4492v39.5986z" />
    <glyph glyph-name="acute" unicode="&#xb4;" horiz-adv-x="499" 
d="M463.5 1614.5c-3.66699 -11 -13.6689 -21.833 -30.002 -32.5s-35.166 -19.667 -56.499 -27s-43.833 -12.333 -67.5 -15s-78.167 -13.5 -163.5 -32.5s-132 -24.5 -140 -16.5c-7.33301 8 24.667 28.833 96 62.5s115 55.834 131 66.501s34.667 19.667 56 27
c22 7.33301 44.833 12.166 68.5 14.499s44.334 1.83301 62.001 -1.5s30.167 -9 37.5 -17c8 -8 10.167 -17.5 6.5 -28.5z" />
    <glyph glyph-name="mu" unicode="&#xb5;" 
d="M100 928c-26.667 22 -60.334 34.335 -101.001 37.002v56h398v-56c-39.333 -2.66699 -71.666 -15 -96.999 -37v-557c4.66699 -46.667 16 -88.334 34 -125.001c24.667 -50 58.334 -92.333 101.001 -127s86.667 -52 132 -52c46 0 90.667 17.333 134 52
c15.333 12.667 29.666 26 42.999 40v862h296v-46c-34.667 -0.666992 -65.667 -9 -93 -25v-853c13.333 -28.667 51 -33.334 113 -14.001l-1 -83h-315v61c-0.666992 -0.666992 -1.66699 -1 -3 -1c-68.667 -39.333 -139.667 -59 -213 -59c-72.667 0 -142.667 19.667 -210 59
c-11.333 6 -22 12.333 -32 19v-273c22 -22 49.667 -34.333 83 -37v-56h-343v56c32 2.66699 56.667 15 74 37v1122z" />
    <glyph glyph-name="paragraph" unicode="&#xb6;" horiz-adv-x="959" 
d="M718 1488h166v-69c-39.333 -1.33301 -72.333 -15 -99 -41v-1285c26.667 -22 59.667 -34.333 99 -37v-56h-166v1488zM662 0l-198.999 0.00195312v56c40.667 2.66699 74.334 15 101.001 37v742c-18.667 -1.33301 -37.334 -2 -56.001 -2c-88 0 -172.333 18.667 -253 56
s-143.334 80.666 -188.001 129.999s-67 101 -67 155s23 106 69 156s109.333 88.333 190 115c66.667 21.333 134.667 35.666 204 42.999h199v-1488z" />
    <glyph glyph-name="periodcentered" unicode="&#xb7;" horiz-adv-x="257" 
d="M101 846c16.667 0 32.834 -4.16699 48.501 -12.5s28.167 -20.333 37.5 -36s14 -32.167 14 -49.5c0 -16.667 -4.5 -33 -13.5 -49s-21.333 -28.167 -37 -36.5s-32.167 -12.5 -49.5 -12.5c-18 0 -35 4.16699 -51 12.5s-28.333 20.5 -37 36.5s-13 32.333 -13 49
c0 17.333 4.33301 33.833 13 49.5s21.167 27.667 37.5 36s33.166 12.5 50.499 12.5z" />
    <glyph glyph-name="periodcentered" unicode="&#x2219;" horiz-adv-x="257" 
d="M101 846c16.667 0 32.834 -4.16699 48.501 -12.5s28.167 -20.333 37.5 -36s14 -32.167 14 -49.5c0 -16.667 -4.5 -33 -13.5 -49s-21.333 -28.167 -37 -36.5s-32.167 -12.5 -49.5 -12.5c-18 0 -35 4.16699 -51 12.5s-28.333 20.5 -37 36.5s-13 32.333 -13 49
c0 17.333 4.33301 33.833 13 49.5s21.167 27.667 37.5 36s33.166 12.5 50.499 12.5z" />
    <glyph glyph-name="cedilla" unicode="&#xb8;" horiz-adv-x="300" 
d="M116 203c17.333 0 33.833 -4.16699 49.5 -12.5s28.167 -20.5 37.5 -36.5s14 -32.333 14 -49c0 -17.333 -4.5 -33.833 -13.5 -49.5s-36.333 -54.334 -82 -116.001s-77.5 -92.5 -95.5 -92.5c-17.333 0 -14 30.833 10 92.5s26.667 100.334 8 116.001s-28 32.167 -28 49.5
c0 16.667 4.33301 33 13 49s21.167 28.167 37.5 36.5s32.833 12.5 49.5 12.5z" />
    <glyph glyph-name="uni00B9" unicode="&#xb9;" horiz-adv-x="351" 
d="M0.349609 669v30.7988c25.5674 1.4668 47.0186 8.25 64.3525 20.3496v706.734c-17.334 14.2998 -38.7852 21.8164 -64.3525 22.5498v37.9492h273.66v-37.9492c-26.4346 -0.733398 -48.3184 -8.25 -65.6523 -22.5498v-706.734
c17.334 -12.0996 39.2178 -18.8828 65.6523 -20.3496v-30.7988h-273.66z" />
    <glyph glyph-name="ordmasculine" unicode="&#xba;" horiz-adv-x="601" 
d="M261 1500c46 0 91.001 -12.167 135.001 -36.5s78.667 -59.333 104 -105s38 -93.167 38 -142.5s-12.333 -96.666 -37 -141.999s-59 -80.333 -103 -105s-89.667 -37 -137 -37c-48.667 0 -95 12.333 -139 37s-78.167 59.667 -102.5 105s-36.5 92.666 -36.5 141.999
s12.333 96.833 37 142.5s59.167 80.667 103.5 105s90.166 36.5 137.499 36.5zM191.001 1436.5c-24.667 -21.667 -43.8311 -52.834 -57.498 -93.501s-20.5 -83 -20.5 -127s6.66699 -86 20 -126s32.5 -71.333 57.5 -94s50.833 -34 77.5 -34c27.333 0 53.5 11.333 78.5 34
s44.333 54 58 94s20.5 82 20.5 126s-7.16699 86.333 -21.5 127s-33.833 71.834 -58.5 93.501s-50.334 32.5 -77.001 32.5s-52.334 -10.833 -77.001 -32.5z" />
    <glyph glyph-name="guillemotright" unicode="&#xbb;" horiz-adv-x="767" 
d="M710 785l-289 -208c-4.66699 16.667 -7.33398 37 -8.00098 61h-13v-194h13c0.666992 24 3.33398 43.667 8.00098 59l291 209c6 -16 9.33301 -35.667 10 -59h15v317h-15c-0.666992 -24 -4 -44.333 -10 -61l-291 192c-4.66699 16 -7.33398 36 -8.00098 60h-13v-245h13
c0.666992 23.333 3.33398 43 8.00098 59zM310 785l-289 -208c-4.66699 16.667 -7.33398 37 -8.00098 61h-13v-194h13c0.666992 24 3.33398 43.667 8.00098 59l291 209c6 -16 9 -35.667 9 -59h16v317h-16c0 -24 -3 -44.333 -9 -61l-291 192
c-4.66699 16 -7.33398 36 -8.00098 60h-13v-245h13c0.666992 23.333 3.33398 43 8.00098 59z" />
    <glyph glyph-name="onequarter" unicode="&#xbc;" horiz-adv-x="1137" 
d="M-0.650391 669v30.7988c25.5674 1.4668 47.0186 8.25 64.3525 20.3496v706.734c-17.334 14.2998 -38.7852 21.8164 -64.3525 22.5498v37.9492h273.66v-37.9492c-26.4346 -0.733398 -48.3184 -8.25 -65.6523 -22.5498v-706.734
c17.334 -12.0996 39.2178 -18.8828 65.6523 -20.3496v-30.7988h-273.66zM0 0l26.001 56c30.667 2.66699 61 15 91 37l598 1285c-7.33301 26 -25.333 39.667 -54 41l32 69h313l-32 -69c-31.333 -1.33301 -63 -15 -95 -41l-598 -1285c9.33301 -22 28.666 -34.333 57.999 -37
l-26 -56h-313zM500.351 322.293l300.963 435.59c-17.334 14.2998 -38.7852 21.6328 -64.3525 21.999v38.499h323.062v-38.499c-26.4346 -0.366211 -48.3193 -7.69922 -65.6533 -21.999v-453.739h35.1016c14.3008 11.3662 22.3174 25.4824 24.0508 42.3486h36.4014v-174.896
h-36.4014c-1.7334 16.1338 -9.75 29.7002 -24.0508 40.6992h-35.1016v-161.146c17.334 -12.0996 39.2188 -18.8828 65.6533 -20.3496v-30.7988h-267.16v30.7988c25.5674 1.4668 47.4512 8.25 65.6514 20.3496v161.146h-355.563l-2.60059 -3.84961v113.848zM858.516 304.144
v415.24l-291.211 -415.24h291.211z" />
    <glyph glyph-name="onehalf" unicode="&#xbd;" horiz-adv-x="1238" 
d="M0.349609 670v30.7988c25.5674 1.4668 47.0186 8.25 64.3525 20.3496v706.734c-17.334 14.2998 -38.7852 21.8164 -64.3525 22.5498v37.9492h273.66v-37.9492c-26.4346 -0.733398 -48.3184 -8.25 -65.6523 -22.5498v-706.734
c17.334 -12.0996 39.2178 -18.8828 65.6523 -20.3496v-30.7988h-273.66zM0 0l26.001 56c30.667 2.66699 61 15 91 37l598 1285c-7.33301 26 -25.333 39.667 -54 41l32 69h313l-32 -69c-31.333 -1.33301 -63 -15 -95 -41l-598 -1285c9.33301 -22 28.666 -34.333 57.999 -37
l-26 -56h-313zM600.25 -36.0996v38.5c19.9346 0.366211 37.2686 4.76562 52.002 13.1982c-1.2998 54.999 -1.5166 90.3818 -0.649414 106.148c3.89941 72.5986 30.5498 134.931 79.9512 186.996c19.9346 21.2666 44.8525 42.166 74.7539 62.6992
c12.1338 8.43262 26.001 17.416 41.6016 26.9492l117.654 70.3984c26.8682 15.7666 48.1025 30.0664 63.7031 42.8994c40.3018 32.2666 61.5361 66.916 63.7031 103.948c1.7334 33.3662 -9.31738 62.1484 -33.1514 86.3477
c-28.6006 28.5996 -69.3359 42.8994 -122.205 42.8994c-42.4678 0 -82.5527 -13.5664 -120.254 -40.6992c-32.0674 -23.0996 -52.8682 -42.166 -62.4023 -57.1992c-2.60059 -13.9326 -4.55078 -27.499 -5.85059 -40.6982l-52.6514 4.94922v188.646h56.5518
c-6.06738 -12.1006 -7.58398 -24.5674 -4.5498 -37.4004l31.2012 7.14941c13.8672 2.93359 27.9512 5.5 42.251 7.7002c37.7021 5.86621 73.6699 8.7998 107.904 8.7998c90.1367 0 159.039 -25.2998 206.708 -75.8984c39.4346 -42.5322 57.6348 -92.9482 54.6006 -151.247
c-3.89941 -65.998 -29.9004 -124.297 -78.0029 -174.896c-20.3672 -20.8994 -46.3682 -42.5322 -78.0029 -64.8984c-22.1006 -16.1338 -53.7354 -36.8496 -94.9033 -62.1484l-65.6523 -40.6992c-22.9678 -15.7666 -47.3438 -37.0332 -73.1279 -63.7998
s-36.293 -68.1992 -31.5264 -124.298c16.9014 -16.8662 42.9023 -25.4824 78.0029 -25.8486h234.009c36.835 0 55.6855 37.7656 56.5527 113.297h36.4014v-151.796h-574.622z" />
    <glyph glyph-name="threequarters" unicode="&#xbe;" horiz-adv-x="1349" 
d="M103.954 1166.64c12.1338 -1.46582 24.916 -2.20117 38.3506 -2.20117c48.9678 0 88.4023 12.833 118.304 38.499s44.8525 65.6318 44.8525 119.897c0 19.4326 -3.3584 38.3154 -10.0762 56.6484c-6.7168 18.333 -15.0586 32.999 -25.0254 43.999
c-13.4346 14.2998 -30.6602 24.0166 -51.6768 29.1504c-21.0176 5.13281 -41.9268 7.51562 -62.7275 7.14941h-45.502c-35.5342 -4.0332 -57.8516 -15.9492 -66.9521 -35.749l-40.9521 13.75l27.9512 50.0488h173.557c48.9688 0 99.9961 -17.2334 153.081 -51.6992
s79.6279 -76.0811 79.6279 -124.846c0 -46.9326 -24.7012 -86.8984 -74.1025 -119.897c-23.4014 -15.0332 -49.1855 -26.7666 -77.3535 -35.1992c76.7031 -9.5332 142.789 -32.083 198.258 -67.6484c74.9697 -49.1318 112.454 -108.348 112.454 -177.646
c0 -67.0986 -35.4268 -124.022 -106.279 -170.771s-160.014 -70.123 -267.484 -70.123h-157.307h-59.1514v83.5977l33.8008 -0.549805c0.433594 -33.7324 13.6504 -50.5986 39.6514 -50.5986h149.506c34.668 0 73.2363 18.1494 115.704 54.4492
c42.4678 36.2988 63.7021 92.9473 63.7021 169.946c0 27.8662 -4.6582 54.7236 -13.9756 80.5732c-9.31641 25.8486 -20.9082 46.6562 -34.7754 62.4229c-19.0674 20.5332 -43.4434 36.9414 -73.1279 49.2246c-29.6846 12.2822 -63.8105 18.4238 -102.378 18.4238
c-29.0342 0 -55.6855 -3.4834 -79.9531 -10.4492v39.5986zM180.998 11.998l26.001 56c30.667 2.66699 61 15 91 37l598 1285c-7.33301 26 -25.333 39.667 -54 41l32 69h313l-32 -69c-31.333 -1.33301 -63 -15 -95 -41l-598 -1285c9.33301 -22 28.666 -34.333 57.999 -37
l-26 -56h-313zM698.349 322.291l300.963 435.59c-17.334 14.2998 -38.7852 21.6328 -64.3525 21.999v38.499h323.062v-38.499c-26.4346 -0.366211 -48.3193 -7.69922 -65.6533 -21.999v-453.739h35.1016c14.3008 11.3662 22.3174 25.4824 24.0508 42.3486h36.4014v-174.896
h-36.4014c-1.7334 16.1338 -9.75 29.7002 -24.0508 40.6992h-35.1016v-161.146c17.334 -12.0996 39.2188 -18.8828 65.6533 -20.3496v-30.7988h-267.16v30.7988c25.5674 1.4668 47.4512 8.25 65.6514 20.3496v161.146h-355.563l-2.60059 -3.84961v113.848zM1056.51 304.142
v415.24l-291.211 -415.24h291.211z" />
    <glyph glyph-name="questiondown" unicode="&#xbf;" horiz-adv-x="854" 
d="M762 788c12 -128.667 17.999 -202.666 17.999 -221.999c2.66699 -97.333 -31 -185 -101 -263c-28 -31.333 -63.667 -62.333 -107 -93c-17.333 -12.667 -37.666 -26 -60.999 -40l-172 -105c-39.333 -23.333 -70.333 -44.666 -93 -63.999
c-58 -47.333 -86.333 -98.666 -85 -153.999c2 -50 22.667 -93 62 -129c47.333 -42.667 111.666 -64 192.999 -64c65.333 0 125.333 20.333 180 61c46.667 34 76.334 62.333 89.001 85c2.66699 20.667 4 41 4 61l117 -1v-288h-99c8 18 9 36.667 3 56l-48 -11
c-20.667 -4 -42 -7.66699 -64 -11c-57.333 -8.66699 -112.333 -13 -165 -13c-138.667 0 -247.667 37.667 -327 113c-66 63.333 -100.333 138.333 -103 225c-2 98 31 184.667 99 260c28.667 31.333 66 63.666 112 96.999c32 24 78 55 138 93l96 60
c33.333 23.333 66.833 48.666 100.5 75.999s44.5 117.666 32.5 270.999h181zM666.999 893.001c-16.667 0 -32.834 4.33301 -48.501 13s-28.167 20.834 -37.5 36.501s-14 31.834 -14 48.501c0 17.333 4.5 33.833 13.5 49.5s21.333 27.834 37 36.501s32.167 13 49.5 13
c18 0 35 -4.33301 51 -13s28.333 -20.834 37 -36.501s13 -32.167 13 -49.5c0 -16.667 -4.33301 -32.834 -13 -48.501s-21.167 -27.834 -37.5 -36.501s-33.166 -13 -50.499 -13z" />
    <glyph glyph-name="Agrave" unicode="&#xc0;" horiz-adv-x="1186" 
d="M644 934l-108 434l-118 -434h226zM391 836l-196.002 -743c26.667 -22 60.334 -34.333 101.001 -37v-56h-297v56c39.333 2.66699 72.333 15 99 37l350 1285c-26.667 26 -53 39.333 -79 40v70h457v-70c-27.333 -0.666992 -54.333 -14 -81 -40l320 -1285
c26.667 -22 60.334 -34.333 101.001 -37v-56h-411v56c39.333 2.66699 72.333 15 99 37l-185 743h-278zM347.998 1680c7.33301 8 19.833 13.667 37.5 17s38.5 3.83301 62.5 1.5s46.667 -7.16602 68 -14.499c22 -7.33301 41 -16.333 57 -27s59.667 -32.834 131 -66.501
s103 -54.5 95 -62.5c-7.33301 -8 -53.666 -2.5 -138.999 16.5s-139.833 29.833 -163.5 32.5s-46.167 7.66699 -67.5 15c-22 7.33301 -41 16.333 -57 27s-25.833 21.5 -29.5 32.5s-1.83398 20.5 5.49902 28.5z" />
    <glyph glyph-name="Aacute" unicode="&#xc1;" horiz-adv-x="1186" 
d="M644 934l-108 434l-118 -434h226zM391 836l-196.002 -743c26.667 -22 60.334 -34.333 101.001 -37v-56h-297v56c39.333 2.66699 72.333 15 99 37l350 1285c-26.667 26 -53 39.333 -79 40v70h457v-70c-27.333 -0.666992 -54.333 -14 -81 -40l320 -1285
c26.667 -22 60.334 -34.333 101.001 -37v-56h-411v56c39.333 2.66699 72.333 15 99 37l-185 743h-278zM798.498 1659.5c-3.66699 -11 -13.6689 -21.833 -30.002 -32.5s-35.166 -19.667 -56.499 -27s-43.833 -12.333 -67.5 -15s-78.167 -13.5 -163.5 -32.5
s-132 -24.5 -140 -16.5c-7.33301 8 24.667 28.833 96 62.5s115 55.834 131 66.501s34.667 19.667 56 27c22 7.33301 44.833 12.166 68.5 14.499s44.334 1.83301 62.001 -1.5s30.167 -9 37.5 -17c8 -8 10.167 -17.5 6.5 -28.5z" />
    <glyph glyph-name="Acircumflex" unicode="&#xc2;" horiz-adv-x="1186" 
d="M644 934l-108 434l-118 -434h226zM391 836l-196.002 -743c26.667 -22 60.334 -34.333 101.001 -37v-56h-297v56c39.333 2.66699 72.333 15 99 37l350 1285c-26.667 26 -53 39.333 -79 40v70h457v-70c-27.333 -0.666992 -54.333 -14 -81 -40l320 -1285
c26.667 -22 60.334 -34.333 101.001 -37v-56h-411v56c39.333 2.66699 72.333 15 99 37l-185 743h-278zM596.998 1811l-112.002 -259c8.66699 -4.66699 19.667 -7 33 -7v-12h-105v12c12.667 0 23.334 2.33301 32.001 7l113 261c-8.66699 5.33301 -19.334 8 -32.001 8v14h171
v-14c-12.667 0 -23.667 -2.66699 -33 -8l104 -261c8.66699 -4.66699 19.334 -7 32.001 -7v-12h-132v12c12.667 0 23.334 2.33301 32.001 7z" />
    <glyph glyph-name="Atilde" unicode="&#xc3;" horiz-adv-x="1186" 
d="M644 934l-108 434l-118 -434h226zM391 836l-196.002 -743c26.667 -22 60.334 -34.333 101.001 -37v-56h-297v56c39.333 2.66699 72.333 15 99 37l350 1285c-26.667 26 -53 39.333 -79 40v70h457v-70c-27.333 -0.666992 -54.333 -14 -81 -40l320 -1285
c26.667 -22 60.334 -34.333 101.001 -37v-56h-411v56c39.333 2.66699 72.333 15 99 37l-185 743h-278zM815.998 1769l20.001 -40.001c-1.33301 -62 -12.333 -110.167 -33 -144.5s-46 -51.5 -76 -51.5c-13.333 0 -27.833 3.66699 -43.5 11s-56.5 32.333 -122.5 75
c-45.333 30 -77.666 45 -96.999 45c-20.667 0 -38.167 -10.167 -52.5 -30.5s-24.166 -53.5 -29.499 -99.5h-20c1.33301 91.333 12.166 153.833 32.499 187.5s44.166 50.5 71.499 50.5c12.667 0 25.667 -3.66699 39 -11c31.333 -14 72.166 -38.167 122.499 -72.5
s85.5 -51.5 105.5 -51.5c22 0 40.667 11.333 56 34s24.333 55.334 27 98.001z" />
    <glyph glyph-name="Adieresis" unicode="&#xc4;" horiz-adv-x="1186" 
d="M644 934l-108 434l-118 -434h226zM391 836l-196.002 -743c26.667 -22 60.334 -34.333 101.001 -37v-56h-297v56c39.333 2.66699 72.333 15 99 37l350 1285c-26.667 26 -53 39.333 -79 40v70h457v-70c-27.333 -0.666992 -54.333 -14 -81 -40l320 -1285
c26.667 -22 60.334 -34.333 101.001 -37v-56h-411v56c39.333 2.66699 72.333 15 99 37l-185 743h-278zM507.998 1689c13.333 0 26.333 -3.33301 39 -10s22.667 -16.167 30 -28.5s11 -25.5 11 -39.5c0 -13.333 -3.5 -26.333 -10.5 -39s-16.833 -22.334 -29.5 -29.001
s-26 -10 -40 -10s-27.333 3.33301 -40 10s-22.5 16.334 -29.5 29.001s-10.5 25.667 -10.5 39c0 14 3.5 27.167 10.5 39.5s17 21.833 30 28.5s26.167 10 39.5 10zM719.998 1689c13.333 0 26.332 -3.33301 38.999 -10s22.667 -16.167 30 -28.5s11 -25.5 11 -39.5
c0 -13.333 -3.66699 -26.333 -11 -39s-17.166 -22.334 -29.499 -29.001s-25.5 -10 -39.5 -10s-27.333 3.33301 -40 10s-22.5 16.334 -29.5 29.001s-10.5 25.667 -10.5 39c0 14 3.5 27.167 10.5 39.5s17 21.833 30 28.5s26.167 10 39.5 10z" />
    <glyph glyph-name="Aring" unicode="&#xc5;" horiz-adv-x="1186" 
d="M644 934l-108 434l-118 -434h226zM391 836l-196.002 -743c26.667 -22 60.334 -34.333 101.001 -37v-56h-297v56c39.333 2.66699 72.333 15 99 37l350 1285c-26.667 26 -53 39.333 -79 40v70h457v-70c-27.333 -0.666992 -54.333 -14 -81 -40l320 -1285
c26.667 -22 60.334 -34.333 101.001 -37v-56h-411v56c39.333 2.66699 72.333 15 99 37l-185 743h-278zM352.998 1667c0 22 10.5 43.667 31.5 65s51.167 38.166 90.5 50.499s80.333 18.5 123 18.5c42 0 82.5 -6 121.5 -18s69.167 -28.5 90.5 -49.5s32 -43.167 32 -66.5
s-10.667 -45.666 -32 -66.999s-51.5 -37.833 -90.5 -49.5s-79.5 -17.5 -121.5 -17.5c-42.667 0 -83.667 6 -123 18s-69.5 28.667 -90.5 50s-31.5 43.333 -31.5 66zM434.998 1642.5c16.667 -8.33301 40.5 -14.9961 71.5 -19.9961s63.5 -7.5 97.5 -7.5s66.333 2.33301 97 7
s54.667 11.167 72 19.5s26 17.166 26 26.499s-8.66699 18.166 -26 26.499s-41.333 14.833 -72 19.5s-63 7 -97 7s-66.5 -2.33301 -97.5 -7s-54.833 -11.334 -71.5 -20.001s-25 -17.334 -25 -26.001s8.33301 -17.167 25 -25.5z" />
    <glyph glyph-name="AE" unicode="&#xc6;" horiz-adv-x="1640" 
d="M546 934l-108 434l-118 -434h226zM838 611v757c-26.667 26 -59.667 39.333 -99 40v80h884v-196h-26c-1.33301 64 -30.333 96 -87 96h-350c-40.667 -0.666992 -74.334 -14 -101.001 -40v-416h332c56.667 0 85.667 32 87 96h26v-292h-26c-1.33301 64 -30.333 96 -87 96
h-332v-709c11.333 -9.33301 24 -17 38 -23h452c56.667 0 85.667 32 87 96h26v-196h-1005v56c31.333 2 58.666 10.333 81.999 25v5c3.33301 0 6.33301 0.333008 9 1c2.66699 1.33301 5.33398 3.33301 8.00098 6l-185 743h-278l-196 -743
c26.667 -22 60.334 -34.333 101.001 -37v-56h-297v56c39.333 2.66699 72.333 15 99 37l350 1285c-26.667 26 -53 39.333 -79 40v70h457v-50c-27.333 -14 -54.333 -34 -81 -60z" />
    <glyph glyph-name="Ccedilla" unicode="&#xc7;" horiz-adv-x="1133" 
d="M1027 219c-113.333 -146 -250.335 -219 -411.002 -219c-159.333 0 -295.666 73.167 -408.999 219.5s-170 323.5 -170 531.5s56.167 385.5 168.5 532.5s249.166 220.5 410.499 220.5c151.333 0 281 -64.333 389 -193c42.667 -5.33301 73 7.33398 91 38.001l38 -54
l-156 -285l-68 57c15.333 66.667 16 117 2 151c-41.333 114 -114.666 171 -219.999 171c-110.667 0 -204.5 -62.667 -281.5 -188s-115.5 -277.333 -115.5 -456s38.5 -330.834 115.5 -456.501s170.833 -188.5 281.5 -188.5c109.333 0 186 62.667 230 188
c12.667 21.333 24.667 43.333 36 66l127 -49c-17.333 -30 -36.666 -58.667 -57.999 -86zM598.998 56c17.333 0 33.833 -4.16699 49.5 -12.5s28.167 -20.5 37.5 -36.5s14 -32.333 14 -49c0 -17.333 -4.5 -33.833 -13.5 -49.5s-36.333 -54.334 -82 -116.001
s-77.5 -92.5 -95.5 -92.5c-17.333 0 -14 30.833 10 92.5s26.667 100.334 8 116.001s-28 32.167 -28 49.5c0 16.667 4.33301 33 13 49s21.167 28.167 37.5 36.5s32.833 12.5 49.5 12.5z" />
    <glyph glyph-name="Egrave" unicode="&#xc8;" horiz-adv-x="903" 
d="M-32 0l0.000976562 86c39.333 2.66699 72.333 15 99 37v1225c-26.667 26 -59.667 39.333 -99 40v100h884v-196h-26c-1.33301 64 -30.333 96 -87 96h-350c-40.667 -0.666992 -74.334 -14 -101.001 -40v-416h332c56.667 0 85.667 32 87 96h26v-292h-26
c-1.33301 64 -30.333 96 -87 96h-332v-709c11.333 -9.33301 24 -17 38 -23h452c56.667 0 85.667 32 87 96h26v-196h-923zM207.001 1689c7.33301 8 19.833 13.667 37.5 17s38.5 3.83301 62.5 1.5s46.667 -7.16602 68 -14.499c22 -7.33301 41 -16.333 57 -27
s59.667 -32.834 131 -66.501s103 -54.5 95 -62.5c-7.33301 -8 -53.666 -2.5 -138.999 16.5s-139.833 29.833 -163.5 32.5s-46.167 7.66699 -67.5 15c-22 7.33301 -41 16.333 -57 27s-25.833 21.5 -29.5 32.5s-1.83398 20.5 5.49902 28.5z" />
    <glyph glyph-name="Eacute" unicode="&#xc9;" horiz-adv-x="903" 
d="M-32 0l0.000976562 86c39.333 2.66699 72.333 15 99 37v1225c-26.667 26 -59.667 39.333 -99 40v100h884v-196h-26c-1.33301 64 -30.333 96 -87 96h-350c-40.667 -0.666992 -74.334 -14 -101.001 -40v-416h332c56.667 0 85.667 32 87 96h26v-292h-26
c-1.33301 64 -30.333 96 -87 96h-332v-709c11.333 -9.33301 24 -17 38 -23h452c56.667 0 85.667 32 87 96h26v-196h-923zM658.501 1660.5c-3.66699 -11 -13.6689 -21.833 -30.002 -32.5s-35.166 -19.667 -56.499 -27s-43.833 -12.333 -67.5 -15s-78.167 -13.5 -163.5 -32.5
s-132 -24.5 -140 -16.5c-7.33301 8 24.667 28.833 96 62.5s115 55.834 131 66.501s34.667 19.667 56 27c22 7.33301 44.833 12.166 68.5 14.499s44.334 1.83301 62.001 -1.5s30.167 -9 37.5 -17c8 -8 10.167 -17.5 6.5 -28.5z" />
    <glyph glyph-name="Ecircumflex" unicode="&#xca;" horiz-adv-x="903" 
d="M-32 0l0.000976562 86c39.333 2.66699 72.333 15 99 37v1225c-26.667 26 -59.667 39.333 -99 40v100h884v-196h-26c-1.33301 64 -30.333 96 -87 96h-350c-40.667 -0.666992 -74.334 -14 -101.001 -40v-416h332c56.667 0 85.667 32 87 96h26v-292h-26
c-1.33301 64 -30.333 96 -87 96h-332v-709c11.333 -9.33301 24 -17 38 -23h452c56.667 0 85.667 32 87 96h26v-196h-923zM436.001 1811l-112.002 -259c8.66699 -4.66699 19.667 -7 33 -7v-12h-105v12c12.667 0 23.334 2.33301 32.001 7l113 261
c-8.66699 5.33301 -19.334 8 -32.001 8v14h171v-14c-12.667 0 -23.667 -2.66699 -33 -8l104 -261c8.66699 -4.66699 19.334 -7 32.001 -7v-12h-132v12c12.667 0 23.334 2.33301 32.001 7z" />
    <glyph glyph-name="Edieresis" unicode="&#xcb;" horiz-adv-x="903" 
d="M-32 0l0.000976562 86c39.333 2.66699 72.333 15 99 37v1225c-26.667 26 -59.667 39.333 -99 40v100h884v-196h-26c-1.33301 64 -30.333 96 -87 96h-350c-40.667 -0.666992 -74.334 -14 -101.001 -40v-416h332c56.667 0 85.667 32 87 96h26v-292h-26
c-1.33301 64 -30.333 96 -87 96h-332v-709c11.333 -9.33301 24 -17 38 -23h452c56.667 0 85.667 32 87 96h26v-196h-923zM380.001 1689c13.333 0 26.333 -3.33301 39 -10s22.667 -16.167 30 -28.5s11 -25.5 11 -39.5c0 -13.333 -3.5 -26.333 -10.5 -39
s-16.833 -22.334 -29.5 -29.001s-26 -10 -40 -10s-27.333 3.33301 -40 10s-22.5 16.334 -29.5 29.001s-10.5 25.667 -10.5 39c0 14 3.5 27.167 10.5 39.5s17 21.833 30 28.5s26.167 10 39.5 10zM592.001 1689c13.333 0 26.332 -3.33301 38.999 -10s22.667 -16.167 30 -28.5
s11 -25.5 11 -39.5c0 -13.333 -3.66699 -26.333 -11 -39s-17.166 -22.334 -29.499 -29.001s-25.5 -10 -39.5 -10s-27.333 3.33301 -40 10s-22.5 16.334 -29.5 29.001s-10.5 25.667 -10.5 39c0 14 3.5 27.167 10.5 39.5s17 21.833 30 28.5s26.167 10 39.5 10z" />
    <glyph glyph-name="Igrave" unicode="&#xcc;" horiz-adv-x="459" 
d="M3 0v56c39.333 2.66699 72.333 15 99 37v1285c-26.667 26 -59.667 39.667 -99 41v69h421v-69c-40.667 -1.33301 -74.334 -15 -101.001 -41v-1285c26.667 -22 60.334 -34.333 101.001 -37v-56h-421zM10 1689c7.33301 8 19.833 13.667 37.5 17s38.5 3.83301 62.5 1.5
s46.667 -7.16602 68 -14.499c22 -7.33301 41 -16.333 57 -27s59.667 -32.834 131 -66.501s103 -54.5 95 -62.5c-7.33301 -8 -53.666 -2.5 -138.999 16.5s-139.833 29.833 -163.5 32.5s-46.167 7.66699 -67.5 15c-22 7.33301 -41 16.333 -57 27s-25.833 21.5 -29.5 32.5
s-1.83398 20.5 5.49902 28.5z" />
    <glyph glyph-name="Iacute" unicode="&#xcd;" horiz-adv-x="459" 
d="M10 0v56c39.333 2.66699 72.333 15 99 37v1285c-26.667 26 -59.667 39.667 -99 41v69h421v-69c-40.667 -1.33301 -74.334 -15 -101.001 -41v-1285c26.667 -22 60.334 -34.333 101.001 -37v-56h-421zM445 1660.5c-3.33301 -11 -12.6709 -21.833 -28.0039 -32.5
s-33.333 -19.667 -54 -27s-42.167 -12.333 -64.5 -15s-74 -13.5 -155 -32.5s-125.167 -24.5 -132.5 -16.5s22.834 28.833 90.501 62.5s109.167 55.834 124.5 66.501s33.333 19.667 54 27s42.334 12.166 65.001 14.499s42.334 1.83301 59.001 -1.5s28.667 -9 36 -17
c6.66699 -8 8.33398 -17.5 5.00098 -28.5z" />
    <glyph glyph-name="Icircumflex" unicode="&#xce;" horiz-adv-x="459" 
d="M-1 0v56c39.333 2.66699 72.333 15 99 37v1285c-26.667 26 -59.667 39.667 -99 41v69h421v-69c-40.667 -1.33301 -74.334 -15 -101.001 -41v-1285c26.667 -22 60.334 -34.333 101.001 -37v-56h-421zM289 1543c-6.66699 -2 -15 -3.33301 -25 -4v-6h103v6
c-10 0.666992 -18.333 2 -25 4l-81 133c6.66699 2.66699 15.334 4 26.001 4v7h-134v-7c10 0 18.333 -1.33301 25 -4l-88 -133c-6.66699 -2 -15 -3.33301 -25 -4v-6h82v6c-10.667 0.666992 -19.334 2 -26.001 4l88 132z" />
    <glyph glyph-name="Idieresis" unicode="&#xcf;" horiz-adv-x="459" 
d="M-1 0v56c39.333 2.66699 72.333 15 99 37v1285c-26.667 26 -59.667 39.667 -99 41v69h421v-69c-40.667 -1.33301 -74.334 -15 -101.001 -41v-1285c26.667 -22 60.334 -34.333 101.001 -37v-56h-421zM108 1689c13.333 0 26.333 -3.33301 39 -10s22.667 -16.167 30 -28.5
s11 -25.5 11 -39.5c0 -13.333 -3.5 -26.333 -10.5 -39s-16.833 -22.334 -29.5 -29.001s-26 -10 -40 -10s-27.333 3.33301 -40 10s-22.5 16.334 -29.5 29.001s-10.5 25.667 -10.5 39c0 14 3.5 27.167 10.5 39.5s17 21.833 30 28.5s26.167 10 39.5 10zM320 1689
c13.333 0 26.332 -3.33301 38.999 -10s22.667 -16.167 30 -28.5s11 -25.5 11 -39.5c0 -13.333 -3.66699 -26.333 -11 -39s-17.166 -22.334 -29.499 -29.001s-25.5 -10 -39.5 -10s-27.333 3.33301 -40 10s-22.5 16.334 -29.5 29.001s-10.5 25.667 -10.5 39
c0 14 3.5 27.167 10.5 39.5s17 21.833 30 28.5s26.167 10 39.5 10z" />
    <glyph glyph-name="Eth" unicode="&#xd0;" horiz-adv-x="1081" 
d="M310 710v-605.001c29.333 -14 62.333 -21 99 -21c110.667 0 204.5 62.833 281.5 188.5s115.5 277.834 115.5 456.501s-38.5 330.667 -115.5 456s-170.833 188 -281.5 188c-37.333 0 -70.333 -7 -99 -21v-510h113c8.66699 16 13 36 13 60h22v-253h-22
c0 24.667 -4.33301 45 -13 61h-113zM99 841.999l0.000976562 536c-26.667 26 -59.667 39.333 -99 40v70h411v-5c24 3.33301 48.667 5 74 5c161.333 0 298.166 -73.5 410.499 -220.5s168.5 -324.5 168.5 -532.5s-56.667 -385 -170 -531s-249.666 -219 -408.999 -219
c-42.667 0 -83.334 5 -122.001 15h-363v56c39.333 2.66699 72.333 15 99 37v617h-87c-7.33301 -16 -11.333 -36.333 -12 -61h-19v253h19c0.666992 -24 4.66699 -44 12 -60h87z" />
    <glyph glyph-name="Ntilde" unicode="&#xd1;" horiz-adv-x="1228" 
d="M860 379l-551 929v-1215c28 -22 61.667 -34.333 101 -37v-56h-411v56c40.667 2.66699 74.334 15 101.001 37v1285c-26.667 26 -60.334 39.333 -101.001 40v70h497v-70c-39.333 -0.666992 -72.333 -14 -99 -40l463 -792v792c-26.667 26 -59.667 39.667 -99 41v69h381v-69
c-40.667 -1.33301 -74.334 -15 -101.001 -41v-1285c26.667 -22 60.334 -34.333 101.001 -37v-56h-381v56c39.333 2.66699 72.333 15 99 37v286zM854 1769l20.001 -40.001c-1.33301 -62 -12.333 -110.167 -33 -144.5s-46 -51.5 -76 -51.5c-13.333 0 -27.833 3.66699 -43.5 11
s-56.5 32.333 -122.5 75c-45.333 30 -77.666 45 -96.999 45c-20.667 0 -38.167 -10.167 -52.5 -30.5s-24.166 -53.5 -29.499 -99.5h-20c1.33301 91.333 12.166 153.833 32.499 187.5s44.166 50.5 71.499 50.5c12.667 0 25.667 -3.66699 39 -11
c31.333 -14 72.166 -38.167 122.499 -72.5s85.5 -51.5 105.5 -51.5c22 0 40.667 11.333 56 34s24.333 55.334 27 98.001z" />
    <glyph glyph-name="Ograve" unicode="&#xd2;" horiz-adv-x="1130" 
d="M552 1498c92.667 0 183.004 -32.333 271.004 -97s157 -157.334 207 -278.001s75 -246.667 75 -378s-24.333 -256.666 -73 -375.999s-116.834 -212 -204.501 -278s-179.5 -99 -275.5 -99s-187.833 33 -275.5 99s-155.834 158.667 -204.501 278s-73 244.666 -73 375.999
s24.667 257.333 74 378s118.166 213.334 206.499 278.001s179.166 97 272.499 97zM415.004 1329.5c-49.333 -57.667 -87.999 -140.334 -115.999 -248.001s-42 -219.834 -42 -336.501s13.667 -228.167 41 -334.5s65.833 -189.166 115.5 -248.499s101.167 -89 154.5 -89
c54 0 105.833 29.667 155.5 89s88.167 142.166 115.5 248.499s41 217.833 41 334.5s-14 228.834 -42 336.501s-66.833 190.334 -116.5 248.001s-100.834 86.5 -153.501 86.5s-103.667 -28.833 -153 -86.5zM348.005 1656c7.33301 8 19.833 13.667 37.5 17
s38.5 3.83301 62.5 1.5s46.667 -7.16602 68 -14.499c22 -7.33301 41 -16.333 57 -27s59.667 -32.834 131 -66.501s103 -54.5 95 -62.5c-7.33301 -8 -53.666 -2.5 -138.999 16.5s-139.833 29.833 -163.5 32.5s-46.167 7.66699 -67.5 15c-22 7.33301 -41 16.333 -57 27
s-25.833 21.5 -29.5 32.5s-1.83398 20.5 5.49902 28.5z" />
    <glyph glyph-name="Oacute" unicode="&#xd3;" horiz-adv-x="1130" 
d="M552 1498c92.667 0 183.004 -32.333 271.004 -97s157 -157.334 207 -278.001s75 -246.667 75 -378s-24.333 -256.666 -73 -375.999s-116.834 -212 -204.501 -278s-179.5 -99 -275.5 -99s-187.833 33 -275.5 99s-155.834 158.667 -204.501 278s-73 244.666 -73 375.999
s24.667 257.333 74 378s118.166 213.334 206.499 278.001s179.166 97 272.499 97zM415.004 1329.5c-49.333 -57.667 -87.999 -140.334 -115.999 -248.001s-42 -219.834 -42 -336.501s13.667 -228.167 41 -334.5s65.833 -189.166 115.5 -248.499s101.167 -89 154.5 -89
c54 0 105.833 29.667 155.5 89s88.167 142.166 115.5 248.499s41 217.833 41 334.5s-14 228.834 -42 336.501s-66.833 190.334 -116.5 248.001s-100.834 86.5 -153.501 86.5s-103.667 -28.833 -153 -86.5zM758.505 1660.5c-3.66699 -11 -13.6689 -21.833 -30.002 -32.5
s-35.166 -19.667 -56.499 -27s-43.833 -12.333 -67.5 -15s-78.167 -13.5 -163.5 -32.5s-132 -24.5 -140 -16.5c-7.33301 8 24.667 28.833 96 62.5s115 55.834 131 66.501s34.667 19.667 56 27c22 7.33301 44.833 12.166 68.5 14.499s44.334 1.83301 62.001 -1.5
s30.167 -9 37.5 -17c8 -8 10.167 -17.5 6.5 -28.5z" />
    <glyph glyph-name="Ocircumflex" unicode="&#xd4;" horiz-adv-x="1130" 
d="M552 1498c92.667 0 183.004 -32.333 271.004 -97s157 -157.334 207 -278.001s75 -246.667 75 -378s-24.333 -256.666 -73 -375.999s-116.834 -212 -204.501 -278s-179.5 -99 -275.5 -99s-187.833 33 -275.5 99s-155.834 158.667 -204.501 278s-73 244.666 -73 375.999
s24.667 257.333 74 378s118.166 213.334 206.499 278.001s179.166 97 272.499 97zM415.004 1329.5c-49.333 -57.667 -87.999 -140.334 -115.999 -248.001s-42 -219.834 -42 -336.501s13.667 -228.167 41 -334.5s65.833 -189.166 115.5 -248.499s101.167 -89 154.5 -89
c54 0 105.833 29.667 155.5 89s88.167 142.166 115.5 248.499s41 217.833 41 334.5s-14 228.834 -42 336.501s-66.833 190.334 -116.5 248.001s-100.834 86.5 -153.501 86.5s-103.667 -28.833 -153 -86.5zM547.005 1811l-112.002 -259c8.66699 -4.66699 19.667 -7 33 -7v-12
h-105v12c12.667 0 23.334 2.33301 32.001 7l113 261c-8.66699 5.33301 -19.334 8 -32.001 8v14h171v-14c-12.667 0 -23.667 -2.66699 -33 -8l104 -261c8.66699 -4.66699 19.334 -7 32.001 -7v-12h-132v12c12.667 0 23.334 2.33301 32.001 7z" />
    <glyph glyph-name="Otilde" unicode="&#xd5;" horiz-adv-x="1130" 
d="M552 1498c92.667 0 183.004 -32.333 271.004 -97s157 -157.334 207 -278.001s75 -246.667 75 -378s-24.333 -256.666 -73 -375.999s-116.834 -212 -204.501 -278s-179.5 -99 -275.5 -99s-187.833 33 -275.5 99s-155.834 158.667 -204.501 278s-73 244.666 -73 375.999
s24.667 257.333 74 378s118.166 213.334 206.499 278.001s179.166 97 272.499 97zM415.004 1329.5c-49.333 -57.667 -87.999 -140.334 -115.999 -248.001s-42 -219.834 -42 -336.501s13.667 -228.167 41 -334.5s65.833 -189.166 115.5 -248.499s101.167 -89 154.5 -89
c54 0 105.833 29.667 155.5 89s88.167 142.166 115.5 248.499s41 217.833 41 334.5s-14 228.834 -42 336.501s-66.833 190.334 -116.5 248.001s-100.834 86.5 -153.501 86.5s-103.667 -28.833 -153 -86.5zM780.005 1769l20.001 -40.001
c-1.33301 -62 -12.333 -110.167 -33 -144.5s-46 -51.5 -76 -51.5c-13.333 0 -27.833 3.66699 -43.5 11s-56.5 32.333 -122.5 75c-45.333 30 -77.666 45 -96.999 45c-20.667 0 -38.167 -10.167 -52.5 -30.5s-24.166 -53.5 -29.499 -99.5h-20
c1.33301 91.333 12.166 153.833 32.499 187.5s44.166 50.5 71.499 50.5c12.667 0 25.667 -3.66699 39 -11c31.333 -14 72.166 -38.167 122.499 -72.5s85.5 -51.5 105.5 -51.5c22 0 40.667 11.333 56 34s24.333 55.334 27 98.001z" />
    <glyph glyph-name="Odieresis" unicode="&#xd6;" horiz-adv-x="1130" 
d="M552 1498c92.667 0 183.004 -32.333 271.004 -97s157 -157.334 207 -278.001s75 -246.667 75 -378s-24.333 -256.666 -73 -375.999s-116.834 -212 -204.501 -278s-179.5 -99 -275.5 -99s-187.833 33 -275.5 99s-155.834 158.667 -204.501 278s-73 244.666 -73 375.999
s24.667 257.333 74 378s118.166 213.334 206.499 278.001s179.166 97 272.499 97zM415.004 1329.5c-49.333 -57.667 -87.999 -140.334 -115.999 -248.001s-42 -219.834 -42 -336.501s13.667 -228.167 41 -334.5s65.833 -189.166 115.5 -248.499s101.167 -89 154.5 -89
c54 0 105.833 29.667 155.5 89s88.167 142.166 115.5 248.499s41 217.833 41 334.5s-14 228.834 -42 336.501s-66.833 190.334 -116.5 248.001s-100.834 86.5 -153.501 86.5s-103.667 -28.833 -153 -86.5zM460.005 1689c13.333 0 26.333 -3.33301 39 -10
s22.667 -16.167 30 -28.5s11 -25.5 11 -39.5c0 -13.333 -3.5 -26.333 -10.5 -39s-16.833 -22.334 -29.5 -29.001s-26 -10 -40 -10s-27.333 3.33301 -40 10s-22.5 16.334 -29.5 29.001s-10.5 25.667 -10.5 39c0 14 3.5 27.167 10.5 39.5s17 21.833 30 28.5s26.167 10 39.5 10
zM672.005 1689c13.333 0 26.332 -3.33301 38.999 -10s22.667 -16.167 30 -28.5s11 -25.5 11 -39.5c0 -13.333 -3.66699 -26.333 -11 -39s-17.166 -22.334 -29.499 -29.001s-25.5 -10 -39.5 -10s-27.333 3.33301 -40 10s-22.5 16.334 -29.5 29.001s-10.5 25.667 -10.5 39
c0 14 3.5 27.167 10.5 39.5s17 21.833 30 28.5s26.167 10 39.5 10z" />
    <glyph glyph-name="multiply" unicode="&#xd7;" horiz-adv-x="784" 
d="M448 561l191 -189.999c19.333 3.33301 38 13.333 56 30l20 -20l-179 -179l-20 20c16 17.333 25.667 35.666 29 54.999l-190 191l-185 -186c3.33301 -19.333 13 -38 29 -56l-20 -21l-179 179l21 21c17.333 -16 35.666 -25.667 54.999 -29l186 185l-176 176
c-21.333 -2 -40.666 -11 -57.999 -27l-24 24l178 179l25 -25c-16.667 -17.333 -26 -36.666 -28 -57.999l176 -176l181 181c-2 21.333 -11.333 40.666 -28 57.999l24 24l179 -179l-24 -24c-18 16.667 -37.333 26 -58 28z" />
    <glyph glyph-name="Oslash" unicode="&#xd8;" horiz-adv-x="1152" 
d="M350 266c18.667 -40 40.334 -74.666 65.001 -103.999c49.333 -59.333 100.666 -89 153.999 -89c54 0 105.833 29.667 155.5 89s88.167 142.166 115.5 248.499s41 217.833 41 334.5c0 101.333 -10.667 199.333 -32 294zM293 433.001l502 777.002
c-20.667 47.333 -44.667 87.333 -72 120c-50 57.333 -101.333 86 -154 86s-103.667 -28.833 -153 -86.5s-88 -140.334 -116 -248.001s-42 -219.834 -42 -336.501c0 -108.667 11.667 -212.667 35 -312zM251 113.003l-12.9961 -20.001c5.33301 -22 22.333 -34.333 51 -37
l-36 -56h-313l37 56c30.667 2.66699 63 15 97 37l81 125c-32 44.667 -59.333 95 -82 151c-48.667 119.333 -73 244.666 -73 375.999s24.667 257.333 74 378s118.166 213.334 206.499 278.001s179.166 97 272.499 97c92.667 0 183 -32.333 271 -97
c21.333 -16 41.666 -33.333 60.999 -52l19 29c-2.66699 26 -18.334 39.667 -47.001 41l45 69h313l-45 -69c-31.333 -1.33301 -65.333 -15 -102 -41l-93 -144c20.667 -34 39.334 -71 56.001 -111c50 -120.667 75 -246.667 75 -378s-24.333 -256.666 -73 -375.999
s-116.834 -212 -204.501 -278s-179.5 -99 -275.5 -99s-187.667 33 -275 99c-9.33301 6.66699 -18.333 14 -27 22z" />
    <glyph glyph-name="Ugrave" unicode="&#xd9;" horiz-adv-x="1098" 
d="M5 744l-0.00195312 634.999c-26.667 26 -60 39.667 -100 41v69h456v-69c-41.333 -1.33301 -75.333 -15 -102 -41v-635h1c2.66699 -172.667 41.334 -319.667 116.001 -441c76.667 -125.333 170.334 -188 281.001 -188c37.333 0 69.666 7 96.999 21v1241
c-25.333 26 -56.666 39.667 -93.999 41v69h400v-69c-38.667 -1.33301 -70.667 -15 -96 -41v-1267c28.667 -26 62.667 -39.333 102 -40v-70h-411v5c-24 -3.33301 -48.667 -5 -74 -5c-161.333 0 -298 73.333 -410 220c-110.667 144.667 -166.667 319.334 -168 524.001h2z
M247.998 1688c7.33301 8 19.833 13.667 37.5 17s38.5 3.83301 62.5 1.5s46.667 -7.16602 68 -14.499c22 -7.33301 41 -16.333 57 -27s59.667 -32.834 131 -66.501s103 -54.5 95 -62.5c-7.33301 -8 -53.666 -2.5 -138.999 16.5s-139.833 29.833 -163.5 32.5
s-46.167 7.66699 -67.5 15c-22 7.33301 -41 16.333 -57 27s-25.833 21.5 -29.5 32.5s-1.83398 20.5 5.49902 28.5z" />
    <glyph glyph-name="Uacute" unicode="&#xda;" horiz-adv-x="1098" 
d="M5 744l-0.00195312 634.999c-26.667 26 -60 39.667 -100 41v69h456v-69c-41.333 -1.33301 -75.333 -15 -102 -41v-635h1c2.66699 -172.667 41.334 -319.667 116.001 -441c76.667 -125.333 170.334 -188 281.001 -188c37.333 0 69.666 7 96.999 21v1241
c-25.333 26 -56.666 39.667 -93.999 41v69h400v-69c-38.667 -1.33301 -70.667 -15 -96 -41v-1267c28.667 -26 62.667 -39.333 102 -40v-70h-411v5c-24 -3.33301 -48.667 -5 -74 -5c-161.333 0 -298 73.333 -410 220c-110.667 144.667 -166.667 319.334 -168 524.001h2z
M758.498 1651.5c-3.66699 -11 -13.6689 -21.833 -30.002 -32.5s-35.166 -19.667 -56.499 -27s-43.833 -12.333 -67.5 -15s-78.167 -13.5 -163.5 -32.5s-132 -24.5 -140 -16.5c-7.33301 8 24.667 28.833 96 62.5s115 55.834 131 66.501s34.667 19.667 56 27
c22 7.33301 44.833 12.166 68.5 14.499s44.334 1.83301 62.001 -1.5s30.167 -9 37.5 -17c8 -8 10.167 -17.5 6.5 -28.5z" />
    <glyph glyph-name="Ucircumflex" unicode="&#xdb;" horiz-adv-x="1098" 
d="M5 744l-0.00195312 634.999c-26.667 26 -60 39.667 -100 41v69h456v-69c-41.333 -1.33301 -75.333 -15 -102 -41v-635h1c2.66699 -172.667 41.334 -319.667 116.001 -441c76.667 -125.333 170.334 -188 281.001 -188c37.333 0 69.666 7 96.999 21v1241
c-25.333 26 -56.666 39.667 -93.999 41v69h400v-69c-38.667 -1.33301 -70.667 -15 -96 -41v-1267c28.667 -26 62.667 -39.333 102 -40v-70h-411v5c-24 -3.33301 -48.667 -5 -74 -5c-161.333 0 -298 73.333 -410 220c-110.667 144.667 -166.667 319.334 -168 524.001h2z
M496.998 1811l-112.002 -259c8.66699 -4.66699 19.667 -7 33 -7v-12h-105v12c12.667 0 23.334 2.33301 32.001 7l113 261c-8.66699 5.33301 -19.334 8 -32.001 8v14h171v-14c-12.667 0 -23.667 -2.66699 -33 -8l104 -261c8.66699 -4.66699 19.334 -7 32.001 -7v-12h-132v12
c12.667 0 23.334 2.33301 32.001 7z" />
    <glyph glyph-name="Udieresis" unicode="&#xdc;" horiz-adv-x="1098" 
d="M5 744l-0.00195312 634.999c-26.667 26 -60 39.667 -100 41v69h456v-69c-41.333 -1.33301 -75.333 -15 -102 -41v-635h1c2.66699 -172.667 41.334 -319.667 116.001 -441c76.667 -125.333 170.334 -188 281.001 -188c37.333 0 69.666 7 96.999 21v1241
c-25.333 26 -56.666 39.667 -93.999 41v69h400v-69c-38.667 -1.33301 -70.667 -15 -96 -41v-1267c28.667 -26 62.667 -39.333 102 -40v-70h-411v5c-24 -3.33301 -48.667 -5 -74 -5c-161.333 0 -298 73.333 -410 220c-110.667 144.667 -166.667 319.334 -168 524.001h2z
M407.998 1689c13.333 0 26.333 -3.33301 39 -10s22.667 -16.167 30 -28.5s11 -25.5 11 -39.5c0 -13.333 -3.5 -26.333 -10.5 -39s-16.833 -22.334 -29.5 -29.001s-26 -10 -40 -10s-27.333 3.33301 -40 10s-22.5 16.334 -29.5 29.001s-10.5 25.667 -10.5 39
c0 14 3.5 27.167 10.5 39.5s17 21.833 30 28.5s26.167 10 39.5 10zM619.998 1689c13.333 0 26.332 -3.33301 38.999 -10s22.667 -16.167 30 -28.5s11 -25.5 11 -39.5c0 -13.333 -3.66699 -26.333 -11 -39s-17.166 -22.334 -29.499 -29.001s-25.5 -10 -39.5 -10
s-27.333 3.33301 -40 10s-22.5 16.334 -29.5 29.001s-10.5 25.667 -10.5 39c0 14 3.5 27.167 10.5 39.5s17 21.833 30 28.5s26.167 10 39.5 10z" />
    <glyph glyph-name="Yacute" unicode="&#xdd;" horiz-adv-x="956" 
d="M347 835h-6.99902l-241 543c-26.667 26 -59.667 39.667 -99 41v69h421v-69c-40.667 -1.33301 -74.334 -15 -101.001 -41l176 -396l175 396c-26.667 26 -60.334 39.667 -101.001 41v69h341v-69c-39.333 -1.33301 -72.333 -15 -99 -41l-241 -543h-3v-742
c26.667 -22 60.334 -34.333 101.001 -37v-56h-421v56c39.333 2.66699 72.333 15 99 37v742zM658.501 1651.5c-3.66699 -11 -13.6689 -21.833 -30.002 -32.5s-35.166 -19.667 -56.499 -27s-43.833 -12.333 -67.5 -15s-78.167 -13.5 -163.5 -32.5s-132 -24.5 -140 -16.5
c-7.33301 8 24.667 28.833 96 62.5s115 55.834 131 66.501s34.667 19.667 56 27c22 7.33301 44.833 12.166 68.5 14.499s44.334 1.83301 62.001 -1.5s30.167 -9 37.5 -17c8 -8 10.167 -17.5 6.5 -28.5z" />
    <glyph glyph-name="Thorn" unicode="&#xde;" horiz-adv-x="941" 
d="M99 1451c-26.667 22 -59.667 34.3311 -99 36.998v56h421v-56c-40.667 -2.66699 -74.334 -15 -101.001 -37v-332c18.667 1.33301 37.334 2 56.001 2c88 0 172.333 -18.667 253 -56s143.334 -80.666 188.001 -129.999s67 -101 67 -155v-16c0 -54 -22.333 -105.667 -67 -155
s-107.334 -92.666 -188.001 -129.999s-165 -56 -253 -56c-18.667 0 -37.334 0.666992 -56.001 2v-332c26.667 -22 60.334 -34.333 101.001 -37v-56h-421v56c39.333 2.66699 72.333 15 99 37v1358zM320 525.998c23.333 -6 47 -8.99902 71 -8.99902
c49.333 0 96.833 7.16699 142.5 21.5s81.167 43.5 106.5 87.5c18.667 33.333 30.334 68 35.001 104h-3c2.66699 14 4.33398 28 5.00098 42c-0.666992 14 -2.33398 28 -5.00098 42h3c-4.66699 36 -16.334 71 -35.001 105c-25.333 43.333 -60.833 72.166 -106.5 86.499
s-93.167 21.5 -142.5 21.5c-24 0 -47.667 -3 -71 -9v-492z" />
    <glyph glyph-name="germandbls" unicode="&#xdf;" horiz-adv-x="1002" 
d="M99 1378c-26.667 26 -59.666 39.333 -98.999 40v70l433 -1c100.667 0 183.5 -31.333 248.5 -94s97.5 -138.334 97.5 -227.001c0 -85.333 -30.333 -158 -91 -218c-28.667 -27.333 -60.334 -48.666 -95.001 -63.999c94 -17.333 175 -58.333 243 -123
c92 -89.333 138 -197 138 -323c0 -122 -43.333 -225.5 -130 -310.5s-196 -127.5 -328 -127.5h-95l-178 -440l-187 40c164 44 178.333 208.333 43 493v1285zM320.001 1378v-454.999c29.333 -16 62 -24 98 -24c60 0 108.333 23.333 145 70s55 119.334 55 218.001
c0 35.333 -4.16699 69.666 -12.5 102.999s-18.5 60 -30.5 80c-16.667 26 -37.834 43.667 -63.501 53s-58.167 10.666 -97.5 3.99902s-70.666 -23 -93.999 -49zM320.001 802.001l-0.00292969 -707.999c42 -23.333 89 -35 141 -35c84.667 0 153 33 205 99s78 169 78 309
c0 50.667 -5.66699 99.5 -17 146.5s-25.666 84.833 -42.999 113.5c-23.333 37.333 -53.166 67.166 -89.499 89.499s-78.166 33.5 -125.499 33.5c-57.333 0 -107 -16 -149 -48z" />
    <glyph glyph-name="agrave" unicode="&#xe0;" horiz-adv-x="931" 
d="M538 622c-90 0 -166.5 -25.668 -229.5 -77.001s-94.5 -113.666 -94.5 -186.999c0 -72.667 31.5 -134.667 94.5 -186s139.5 -77 229.5 -77c68 0 120 14.667 156 44v440c-36.667 28.667 -88.667 43 -156 43zM880 736.999l0.000976562 -661.999
c26.667 -18 59 -27.333 97 -28v-47h-283v39c-65.333 -26 -138 -39 -218 -39c-131.333 -0 -243 35.333 -335 106s-138 156 -138 256s46.333 185.167 139 255.5s204 105.5 334 105.5c79.333 0 153.333 -12.667 222 -38v37c0 5.33301 -0.333008 10.333 -1 15h1
c-4 16 -18.667 44 -44 84c-30 47.333 -71.5 83.666 -124.5 108.999s-108.167 38 -165.5 38c-56 0 -110.333 -12.333 -163 -37c-49.333 -24 -88.333 -57.667 -117 -101l-51 40l9 15c40 57.333 95.667 101.333 167 132s144.666 46 219.999 46
c74.667 0 147.334 -15.333 218.001 -46s126 -75 166 -133c33.333 -47.333 55.666 -96.333 66.999 -147zM248.001 1246c7.33301 8 19.833 13.667 37.5 17s38.5 3.83301 62.5 1.5s46.667 -7.16602 68 -14.499c22 -7.33301 41 -16.333 57 -27s59.667 -32.834 131 -66.501
s103 -54.5 95 -62.5c-7.33301 -8 -53.666 -2.5 -138.999 16.5s-139.833 29.833 -163.5 32.5s-46.167 7.66699 -67.5 15c-22 7.33301 -41 16.333 -57 27s-25.833 21.5 -29.5 32.5s-1.83398 20.5 5.49902 28.5z" />
    <glyph glyph-name="aacute" unicode="&#xe1;" horiz-adv-x="931" 
d="M535 622c-90 0 -166.5 -25.668 -229.5 -77.001s-94.5 -113.666 -94.5 -186.999c0 -72.667 31.5 -134.667 94.5 -186s139.5 -77 229.5 -77c68 0 120 14.667 156 44v440c-36.667 28.667 -88.667 43 -156 43zM877 736.999l0.000976562 -661.999
c26.667 -18 59 -27.333 97 -28v-47h-283v39c-65.333 -26 -138 -39 -218 -39c-131.333 -0 -243 35.333 -335 106s-138 156 -138 256s46.333 185.167 139 255.5s204 105.5 334 105.5c79.333 0 153.333 -12.667 222 -38v37c0 5.33301 -0.333008 10.333 -1 15h1
c-4 16 -18.667 44 -44 84c-30 47.333 -71.5 83.666 -124.5 108.999s-108.167 38 -165.5 38c-56 0 -110.333 -12.333 -163 -37c-49.333 -24 -88.333 -57.667 -117 -101l-51 40l9 15c40 57.333 95.667 101.333 167 132s144.666 46 219.999 46
c74.667 0 147.334 -15.333 218.001 -46s126 -75 166 -133c33.333 -47.333 55.666 -96.333 66.999 -147zM758.501 1217.5c-3.66699 -11 -13.6689 -21.833 -30.002 -32.5s-35.166 -19.667 -56.499 -27s-43.833 -12.333 -67.5 -15s-78.167 -13.5 -163.5 -32.5
s-132 -24.5 -140 -16.5c-7.33301 8 24.667 28.833 96 62.5s115 55.834 131 66.501s34.667 19.667 56 27c22 7.33301 44.833 12.166 68.5 14.499s44.334 1.83301 62.001 -1.5s30.167 -9 37.5 -17c8 -8 10.167 -17.5 6.5 -28.5z" />
    <glyph glyph-name="acircumflex" unicode="&#xe2;" horiz-adv-x="931" 
d="M535 622c-90 0 -166.5 -25.668 -229.5 -77.001s-94.5 -113.666 -94.5 -186.999c0 -72.667 31.5 -134.667 94.5 -186s139.5 -77 229.5 -77c68 0 120 14.667 156 44v440c-36.667 28.667 -88.667 43 -156 43zM877 736.999l0.000976562 -661.999
c26.667 -18 59 -27.333 97 -28v-47h-283v39c-65.333 -26 -138 -39 -218 -39c-131.333 -0 -243 35.333 -335 106s-138 156 -138 256s46.333 185.167 139 255.5s204 105.5 334 105.5c79.333 0 153.333 -12.667 222 -38v37c0 5.33301 -0.333008 10.333 -1 15h1
c-4 16 -18.667 44 -44 84c-30 47.333 -71.5 83.666 -124.5 108.999s-108.167 38 -165.5 38c-56 0 -110.333 -12.333 -163 -37c-49.333 -24 -88.333 -57.667 -117 -101l-51 40l9 15c40 57.333 95.667 101.333 167 132s144.666 46 219.999 46
c74.667 0 147.334 -15.333 218.001 -46s126 -75 166 -133c33.333 -47.333 55.666 -96.333 66.999 -147zM484.001 1368l-112.002 -259c8.66699 -4.66699 19.667 -7 33 -7v-12h-105v12c12.667 0 23.334 2.33301 32.001 7l113 261c-8.66699 5.33301 -19.334 8 -32.001 8v14h171
v-14c-12.667 0 -23.667 -2.66699 -33 -8l104 -261c8.66699 -4.66699 19.334 -7 32.001 -7v-12h-132v12c12.667 0 23.334 2.33301 32.001 7z" />
    <glyph glyph-name="atilde" unicode="&#xe3;" horiz-adv-x="931" 
d="M535 622c-90 0 -166.5 -25.668 -229.5 -77.001s-94.5 -113.666 -94.5 -186.999c0 -72.667 31.5 -134.667 94.5 -186s139.5 -77 229.5 -77c68 0 120 14.667 156 44v440c-36.667 28.667 -88.667 43 -156 43zM877 736.999l0.000976562 -661.999
c26.667 -18 59 -27.333 97 -28v-47h-283v39c-65.333 -26 -138 -39 -218 -39c-131.333 -0 -243 35.333 -335 106s-138 156 -138 256s46.333 185.167 139 255.5s204 105.5 334 105.5c79.333 0 153.333 -12.667 222 -38v37c0 5.33301 -0.333008 10.333 -1 15h1
c-4 16 -18.667 44 -44 84c-30 47.333 -71.5 83.666 -124.5 108.999s-108.167 38 -165.5 38c-56 0 -110.333 -12.333 -163 -37c-49.333 -24 -88.333 -57.667 -117 -101l-51 40l9 15c40 57.333 95.667 101.333 167 132s144.666 46 219.999 46
c74.667 0 147.334 -15.333 218.001 -46s126 -75 166 -133c33.333 -47.333 55.666 -96.333 66.999 -147zM680.001 1326l20.001 -40.001c-1.33301 -62 -12.333 -110.167 -33 -144.5s-46 -51.5 -76 -51.5c-13.333 0 -27.833 3.66699 -43.5 11s-56.5 32.333 -122.5 75
c-45.333 30 -77.666 45 -96.999 45c-20.667 0 -38.167 -10.167 -52.5 -30.5s-24.166 -53.5 -29.499 -99.5h-20c1.33301 91.333 12.166 153.833 32.499 187.5s44.166 50.5 71.499 50.5c12.667 0 25.667 -3.66699 39 -11c31.333 -14 72.166 -38.167 122.499 -72.5
s85.5 -51.5 105.5 -51.5c22 0 40.667 11.333 56 34s24.333 55.334 27 98.001z" />
    <glyph glyph-name="adieresis" unicode="&#xe4;" horiz-adv-x="931" 
d="M535 622c-90 0 -166.5 -25.668 -229.5 -77.001s-94.5 -113.666 -94.5 -186.999c0 -72.667 31.5 -134.667 94.5 -186s139.5 -77 229.5 -77c68 0 120 14.667 156 44v440c-36.667 28.667 -88.667 43 -156 43zM877 736.999l0.000976562 -661.999
c26.667 -18 59 -27.333 97 -28v-47h-283v39c-65.333 -26 -138 -39 -218 -39c-131.333 -0 -243 35.333 -335 106s-138 156 -138 256s46.333 185.167 139 255.5s204 105.5 334 105.5c79.333 0 153.333 -12.667 222 -38v37c0 5.33301 -0.333008 10.333 -1 15h1
c-4 16 -18.667 44 -44 84c-30 47.333 -71.5 83.666 -124.5 108.999s-108.167 38 -165.5 38c-56 0 -110.333 -12.333 -163 -37c-49.333 -24 -88.333 -57.667 -117 -101l-51 40l9 15c40 57.333 95.667 101.333 167 132s144.666 46 219.999 46
c74.667 0 147.334 -15.333 218.001 -46s126 -75 166 -133c33.333 -47.333 55.666 -96.333 66.999 -147zM380.001 1246c13.333 0 26.333 -3.33301 39 -10s22.667 -16.167 30 -28.5s11 -25.5 11 -39.5c0 -13.333 -3.5 -26.333 -10.5 -39s-16.833 -22.334 -29.5 -29.001
s-26 -10 -40 -10s-27.333 3.33301 -40 10s-22.5 16.334 -29.5 29.001s-10.5 25.667 -10.5 39c0 14 3.5 27.167 10.5 39.5s17 21.833 30 28.5s26.167 10 39.5 10zM592.001 1246c13.333 0 26.332 -3.33301 38.999 -10s22.667 -16.167 30 -28.5s11 -25.5 11 -39.5
c0 -13.333 -3.66699 -26.333 -11 -39s-17.166 -22.334 -29.499 -29.001s-25.5 -10 -39.5 -10s-27.333 3.33301 -40 10s-22.5 16.334 -29.5 29.001s-10.5 25.667 -10.5 39c0 14 3.5 27.167 10.5 39.5s17 21.833 30 28.5s26.167 10 39.5 10z" />
    <glyph glyph-name="aring" unicode="&#xe5;" horiz-adv-x="931" 
d="M535 622c-90 0 -166.5 -25.668 -229.5 -77.001s-94.5 -113.666 -94.5 -186.999c0 -72.667 31.5 -134.667 94.5 -186s139.5 -77 229.5 -77c68 0 120 14.667 156 44v440c-36.667 28.667 -88.667 43 -156 43zM877 736.999l0.000976562 -661.999
c26.667 -18 59 -27.333 97 -28v-47h-283v39c-65.333 -26 -138 -39 -218 -39c-131.333 -0 -243 35.333 -335 106s-138 156 -138 256s46.333 185.167 139 255.5s204 105.5 334 105.5c79.333 0 153.333 -12.667 222 -38v37c0 5.33301 -0.333008 10.333 -1 15h1
c-4 16 -18.667 44 -44 84c-30 47.333 -71.5 83.666 -124.5 108.999s-108.167 38 -165.5 38c-56 0 -110.333 -12.333 -163 -37c-49.333 -24 -88.333 -57.667 -117 -101l-51 40l9 15c40 57.333 95.667 101.333 167 132s144.666 46 219.999 46
c74.667 0 147.334 -15.333 218.001 -46s126 -75 166 -133c33.333 -47.333 55.666 -96.333 66.999 -147zM255.001 1225c0 22 10.5 43.667 31.5 65s51.167 38.166 90.5 50.499s80.333 18.5 123 18.5c42 0 82.5 -6 121.5 -18s69.167 -28.5 90.5 -49.5s32 -43.167 32 -66.5
s-10.667 -45.666 -32 -66.999s-51.5 -37.833 -90.5 -49.5s-79.5 -17.5 -121.5 -17.5c-42.667 0 -83.667 6 -123 18s-69.5 28.667 -90.5 50s-31.5 43.333 -31.5 66zM337.001 1200.5c16.667 -8.33301 40.5 -14.9961 71.5 -19.9961s63.5 -7.5 97.5 -7.5s66.333 2.33301 97 7
s54.667 11.167 72 19.5s26 17.166 26 26.499s-8.66699 18.166 -26 26.499s-41.333 14.833 -72 19.5s-63 7 -97 7s-66.5 -2.33301 -97.5 -7s-54.833 -11.334 -71.5 -20.001s-25 -17.334 -25 -26.001s8.33301 -17.167 25 -25.5z" />
    <glyph glyph-name="ae" unicode="&#xe6;" horiz-adv-x="1700" 
d="M959 771h511.999c4.66699 26 -1.66602 55 -18.999 87c-36 66.667 -100 100 -192 100c-96 0 -177.667 -36.333 -245 -109c-22 -24.667 -40.667 -50.667 -56 -78zM533.999 679c-90 0 -166.5 -30.332 -229.5 -90.999s-94.5 -134.334 -94.5 -221.001
c0 -86 31.5 -159.333 94.5 -220s139.5 -91 229.5 -91c68 0 120 17.333 156 52v520c-36.667 34 -88.667 51 -156 51zM845.999 886.001c98 100.667 217.338 151.002 358.005 151.002c132 0 245 -44.333 339 -133c58 -58.667 99.667 -144 125 -256h-729
c-10 -41.333 -15 -85.666 -15 -132.999c0 -122.667 33.667 -227.167 101 -313.5s149 -129.5 245 -129.5c95.333 0 162.333 43 201 129c11.333 14.667 21.666 29.667 30.999 45l111 -33c-14.667 -20.667 -31.334 -40.334 -50.001 -59.001
c-99.333 -100.667 -219 -151 -359 -151c-124.667 0 -233.334 40.667 -326.001 122v-50c25.333 -18 57 -27.333 95 -28v-42h-283v34c-65.333 -26 -138 -39 -218 -39c-131.333 0 -242.833 35.333 -334.5 106s-137.5 156 -137.5 256s46.167 185.167 138.5 255.5
s203.5 105.5 333.5 105.5c79.333 0 153.333 -12.667 222 -38v37c-0.666992 47.333 -12 92.666 -34 135.999c-22.667 44.667 -54.334 79.5 -95.001 104.5s-82 37.5 -124 37.5c-45.333 0 -88 -12.5 -128 -37.5s-71.333 -59.833 -94 -104.5l-8 -18l-100 1
c4.66699 7.33301 9.66699 14.666 15 21.999c35.333 50.667 84.833 90 148.5 118s131.167 42 202.5 42c68 0 134.167 -14 198.5 -42s114.166 -67.333 149.499 -118c6.66699 8 13.667 15.667 21 23z" />
    <glyph glyph-name="ccedilla" unicode="&#xe7;" 
d="M901 151c-99.333 -100.667 -218.997 -150.999 -358.997 -150.999c-138.667 0 -257.5 50.333 -356.5 151s-148.5 222.334 -148.5 365.001c0 143.333 49 265.5 147 366.5s217.333 151.5 358 151.5c132 0 245 -44.333 339 -133c37.333 -3.33301 64 5.33398 80 26.001l33 -37
l-136 -226l-59 40c13.333 45.333 13.666 79.666 0.999023 102.999c-36 78.667 -100 118 -192 118c-96 0 -177.667 -38.167 -245 -114.5s-101 -175.833 -101 -298.5s33.667 -218.834 101 -288.501s149 -104.5 245 -104.5c95.333 0 162.333 43 201 129
c11.333 14.667 21.666 29.667 30.999 45l111 -83c-14.667 -20.667 -31.334 -40.334 -50.001 -59.001zM542.003 57.001c17.333 0 33.833 -4.16699 49.5 -12.5s28.167 -20.5 37.5 -36.5s14 -32.333 14 -49c0 -17.333 -4.5 -33.833 -13.5 -49.5s-36.333 -54.334 -82 -116.001
s-77.5 -92.5 -95.5 -92.5c-17.333 0 -14 30.833 10 92.5s26.667 100.334 8 116.001s-28 32.167 -28 49.5c0 16.667 4.33301 33 13 49s21.167 28.167 37.5 36.5s32.833 12.5 49.5 12.5z" />
    <glyph glyph-name="egrave" unicode="&#xe8;" horiz-adv-x="1015" 
d="M277 768h511.999c4.66699 26 -1.66602 55 -18.999 87c-62.667 53.333 -140 80 -232 80c-96 0 -164.333 -29.667 -205 -89c-22 -24.667 -40.667 -50.667 -56 -78zM256.999 645c-10 -41.333 -14.998 -85.666 -14.998 -132.999c0 -122.667 33.667 -218.834 101 -288.501
s149 -104.5 245 -104.5c95.333 0 162.333 43 201 129c11.333 14.667 21.666 29.667 30.999 45l111 -83c-14.667 -20.667 -31.334 -40.334 -50.001 -59.001c-99.333 -100.667 -219 -151 -359 -151c-138.667 0 -257.5 50.333 -356.5 151s-148.5 222.334 -148.5 365.001
c0 143.333 49 265.5 147 366.5s217.333 151.5 358 151.5c132 0 245 -44.333 339 -133c58 -58.667 99.667 -144 125 -256h-729zM307.001 1246c7.33301 8 19.833 13.667 37.5 17s38.5 3.83301 62.5 1.5s46.667 -7.16602 68 -14.499c22 -7.33301 41 -16.333 57 -27
s59.667 -32.834 131 -66.501s103 -54.5 95 -62.5c-7.33301 -8 -53.666 -2.5 -138.999 16.5s-139.833 29.833 -163.5 32.5s-46.167 7.66699 -67.5 15c-22 7.33301 -41 16.333 -57 27s-25.833 21.5 -29.5 32.5s-1.83398 20.5 5.49902 28.5z" />
    <glyph glyph-name="eacute" unicode="&#xe9;" horiz-adv-x="1015" 
d="M277 768h511.999c4.66699 26 -1.66602 55 -18.999 87c-62.667 53.333 -140 80 -232 80c-96 0 -164.333 -29.667 -205 -89c-22 -24.667 -40.667 -50.667 -56 -78zM256.999 645c-10 -41.333 -14.998 -85.666 -14.998 -132.999c0 -122.667 33.667 -218.834 101 -288.501
s149 -104.5 245 -104.5c95.333 0 162.333 43 201 129c11.333 14.667 21.666 29.667 30.999 45l111 -83c-14.667 -20.667 -31.334 -40.334 -50.001 -59.001c-99.333 -100.667 -219 -151 -359 -151c-138.667 0 -257.5 50.333 -356.5 151s-148.5 222.334 -148.5 365.001
c0 143.333 49 265.5 147 366.5s217.333 151.5 358 151.5c132 0 245 -44.333 339 -133c58 -58.667 99.667 -144 125 -256h-729zM758.501 1217.5c-3.66699 -11 -13.6689 -21.833 -30.002 -32.5s-35.166 -19.667 -56.499 -27s-43.833 -12.333 -67.5 -15
s-78.167 -13.5 -163.5 -32.5s-132 -24.5 -140 -16.5c-7.33301 8 24.667 28.833 96 62.5s115 55.834 131 66.501s34.667 19.667 56 27c22 7.33301 44.833 12.166 68.5 14.499s44.334 1.83301 62.001 -1.5s30.167 -9 37.5 -17c8 -8 10.167 -17.5 6.5 -28.5z" />
    <glyph glyph-name="ecircumflex" unicode="&#xea;" horiz-adv-x="1015" 
d="M277 768h511.999c4.66699 26 -1.66602 55 -18.999 87c-62.667 53.333 -140 80 -232 80c-96 0 -164.333 -29.667 -205 -89c-22 -24.667 -40.667 -50.667 -56 -78zM256.999 645c-10 -41.333 -14.998 -85.666 -14.998 -132.999c0 -122.667 33.667 -218.834 101 -288.501
s149 -104.5 245 -104.5c95.333 0 162.333 43 201 129c11.333 14.667 21.666 29.667 30.999 45l111 -83c-14.667 -20.667 -31.334 -40.334 -50.001 -59.001c-99.333 -100.667 -219 -151 -359 -151c-138.667 0 -257.5 50.333 -356.5 151s-148.5 222.334 -148.5 365.001
c0 143.333 49 265.5 147 366.5s217.333 151.5 358 151.5c132 0 245 -44.333 339 -133c58 -58.667 99.667 -144 125 -256h-729zM533.001 1369l-112.002 -259c8.66699 -4.66699 19.667 -7 33 -7v-12h-105v12c12.667 0 23.334 2.33301 32.001 7l113 261
c-8.66699 5.33301 -19.334 8 -32.001 8v14h171v-14c-12.667 0 -23.667 -2.66699 -33 -8l104 -261c8.66699 -4.66699 19.334 -7 32.001 -7v-12h-132v12c12.667 0 23.334 2.33301 32.001 7z" />
    <glyph glyph-name="edieresis" unicode="&#xeb;" horiz-adv-x="1015" 
d="M277 768h511.999c4.66699 26 -1.66602 55 -18.999 87c-62.667 53.333 -140 80 -232 80c-96 0 -164.333 -29.667 -205 -89c-22 -24.667 -40.667 -50.667 -56 -78zM256.999 645c-10 -41.333 -14.998 -85.666 -14.998 -132.999c0 -122.667 33.667 -218.834 101 -288.501
s149 -104.5 245 -104.5c95.333 0 162.333 43 201 129c11.333 14.667 21.666 29.667 30.999 45l111 -83c-14.667 -20.667 -31.334 -40.334 -50.001 -59.001c-99.333 -100.667 -219 -151 -359 -151c-138.667 0 -257.5 50.333 -356.5 151s-148.5 222.334 -148.5 365.001
c0 143.333 49 265.5 147 366.5s217.333 151.5 358 151.5c132 0 245 -44.333 339 -133c58 -58.667 99.667 -144 125 -256h-729zM408.001 1246c13.333 0 26.333 -3.33301 39 -10s22.667 -16.167 30 -28.5s11 -25.5 11 -39.5c0 -13.333 -3.5 -26.333 -10.5 -39
s-16.833 -22.334 -29.5 -29.001s-26 -10 -40 -10s-27.333 3.33301 -40 10s-22.5 16.334 -29.5 29.001s-10.5 25.667 -10.5 39c0 14 3.5 27.167 10.5 39.5s17 21.833 30 28.5s26.167 10 39.5 10zM620.001 1246c13.333 0 26.332 -3.33301 38.999 -10s22.667 -16.167 30 -28.5
s11 -25.5 11 -39.5c0 -13.333 -3.66699 -26.333 -11 -39s-17.166 -22.334 -29.499 -29.001s-25.5 -10 -39.5 -10s-27.333 3.33301 -40 10s-22.5 16.334 -29.5 29.001s-10.5 25.667 -10.5 39c0 14 3.5 27.167 10.5 39.5s17 21.833 30 28.5s26.167 10 39.5 10z" />
    <glyph glyph-name="igrave" unicode="&#xec;" horiz-adv-x="446" 
d="M114 1246c5.33301 8 14.333 13.667 27 17s27.5 3.83301 44.5 1.5s33.5 -7.16602 49.5 -14.499c15.333 -7.33301 28.833 -16.333 40.5 -27s43.167 -32.834 94.5 -66.501s74.333 -54.5 69 -62.5s-38.833 -2.5 -100.5 16.5s-101 29.833 -118 32.5s-33.167 7.66699 -48.5 15
s-29 16.333 -41 27s-19.333 21.5 -22 32.5s-1 20.5 5 28.5zM40 0v56c66 0 99 15.667 99 47v791c0 26 -33 39.667 -99 41v85h381v-85c-67.333 -1.33301 -101 -15 -101 -41v-791c0 -31.333 33.667 -47 101 -47v-56h-381z" />
    <glyph glyph-name="iacute" unicode="&#xed;" horiz-adv-x="401" 
d="M365 1217.5c-2.66699 -11 -9.83301 -21.833 -21.5 -32.5s-25.5 -19.667 -41.5 -27c-15.333 -7.33301 -31.5 -12.333 -48.5 -15s-56.333 -13.5 -118 -32.5s-95.167 -24.5 -100.5 -16.5s17.667 28.833 69 62.5s82.833 55.834 94.5 66.501s25.167 19.667 40.5 27
c16 7.33301 32.5 12.166 49.5 14.499s31.833 1.83301 44.5 -1.5s21.667 -9 27 -17c6 -8 7.66699 -17.5 5 -28.5zM2.00098 0v56c66 0 99 15.667 99 47v791c0 26 -33 39.667 -99 41v85h381v-85c-67.333 -1.33301 -101 -15 -101 -41v-791c0 -31.333 33.667 -47 101 -47v-56
h-381z" />
    <glyph glyph-name="icircumflex" unicode="&#xee;" horiz-adv-x="436" 
d="M224 1232l-88 -132c6.66699 -2 15.334 -3.33301 26.001 -4v-6h-82v6c10 0.666992 18.333 2 25 4l88 133c-6.66699 2.66699 -15 4 -25 4v7h134v-7c-10.667 0 -19.334 -1.33301 -26.001 -4l81 -133c6.66699 -2 15 -3.33301 25 -4v-6h-103v6c10 0.666992 18.333 2 25 4z
M30 0v56c66 0 99 15.667 99 47v791c0 26 -33 39.667 -99 41v85h381v-85c-67.333 -1.33301 -101 -15 -101 -41v-791c0 -31.333 33.667 -47 101 -47v-56h-381z" />
    <glyph glyph-name="idieresis" unicode="&#xef;" horiz-adv-x="436" 
d="M130 1246c13.333 0 26.333 -3.33301 39 -10s22.667 -16.167 30 -28.5s11 -25.5 11 -39.5c0 -13.333 -3.5 -26.333 -10.5 -39s-16.833 -22.334 -29.5 -29.001s-26 -10 -40 -10s-27.333 3.33301 -40 10s-22.5 16.334 -29.5 29.001s-10.5 25.667 -10.5 39
c0 14 3.5 27.167 10.5 39.5s17 21.833 30 28.5s26.167 10 39.5 10zM322 1246c13.333 0 26.332 -3.33301 38.999 -10s22.667 -16.167 30 -28.5s11 -25.5 11 -39.5c0 -13.333 -3.66699 -26.333 -11 -39s-17.166 -22.334 -29.499 -29.001s-25.5 -10 -39.5 -10
s-27.333 3.33301 -40 10s-22.5 16.334 -29.5 29.001s-10.5 25.667 -10.5 39c0 14 3.5 27.167 10.5 39.5s17 21.833 30 28.5s26.167 10 39.5 10zM33.999 0v56c39.333 2.66699 72.333 15 99 37v805c-26.667 26 -59.667 39.667 -99 41v79h381v-79
c-40.667 -1.33301 -74.334 -15 -101.001 -41v-805c26.667 -22 60.334 -34.333 101.001 -37v-56h-381z" />
    <glyph glyph-name="eth" unicode="&#xf0;" horiz-adv-x="1068" 
d="M207 532c0 -82.667 10.5 -161.834 31.5 -237.501s50.5 -134.5 88.5 -176.5s77.333 -63 118 -63c41.333 0 81 21 119 63s67.333 100.833 88 176.5s31 154.834 31 237.501c0 83.333 -10.5 154.833 -31.5 214.5s-50.667 110 -89 151s-77.5 61.5 -117.5 61.5
c-40.667 0 -79.667 -20.5 -117 -61.5s-66.833 -91.333 -88.5 -151s-32.5 -131.167 -32.5 -214.5zM685 1171l-119 0.000976562c-11.333 -16 -17.666 -36.333 -18.999 -61h-29v213h29c1.33301 -24 7.66602 -44 18.999 -60h119v225h325v-83
c-62 19.333 -99.667 14.666 -113 -14.001v-128h59c13.333 16 20.333 36 21 60h34v-213h-34c-0.666992 24.667 -7.66699 45 -21 61h-59v-1063c27.333 -16 58.333 -24.333 93 -25v-86h-279v104c-79.333 -86 -164.666 -124.667 -255.999 -116c-88 8 -165.5 35.5 -232.5 82.5
s-119 112.833 -156 197.5s-55.5 173.667 -55.5 267c0 94 18.833 175.167 56.5 243.5s90.167 125.833 157.5 172.5s136.666 70 207.999 70c70.667 0 139.667 -23 207 -69c16 -12 31 -24.333 45 -37v259z" />
    <glyph glyph-name="ntilde" unicode="&#xf1;" 
d="M325 832l0.000976562 -832.001h-296v66c34.667 0.666992 65.667 9 93 25v799c-13.333 35.333 -51 50 -113 44l1 87h315v-61c0.666992 0.666992 1.66699 1.33398 3 2.00098c68.667 38.667 139.667 58 213 58c72.667 0 142.667 -19.5 210 -58.5
s120.666 -86.833 159.999 -143.5c30.667 -44.667 50 -96.334 58 -155.001v-560c26.667 -22 60.334 -34.333 101.001 -37v-66h-398v66c39.333 2.66699 71.666 15 96.999 37v517c-4.66699 46.667 -16 88.334 -34 125.001c-24.667 50 -58.334 92.333 -101.001 127
s-86.667 52 -132 52c-46 0 -90.667 -17.333 -134 -52c-15.333 -12.667 -29.666 -26 -42.999 -40zM722.001 1326l20.001 -40.001c-1.33301 -62 -12.333 -110.167 -33 -144.5s-46 -51.5 -76 -51.5c-13.333 0 -27.833 3.66699 -43.5 11s-56.5 32.333 -122.5 75
c-45.333 30 -77.666 45 -96.999 45c-20.667 0 -38.167 -10.167 -52.5 -30.5s-24.166 -53.5 -29.499 -99.5h-20c1.33301 91.333 12.166 153.833 32.499 187.5s44.166 50.5 71.499 50.5c12.667 0 25.667 -3.66699 39 -11c31.333 -14 72.166 -38.167 122.499 -72.5
s85.5 -51.5 105.5 -51.5c22 0 40.667 11.333 56 34s24.333 55.334 27 98.001z" />
    <glyph glyph-name="ograve" unicode="&#xf2;" horiz-adv-x="1046" 
d="M509 1028c85.333 0 168.501 -22.5 249.501 -67.5s144.5 -109.333 190.5 -193s69 -170.834 69 -261.501c0 -91.333 -22.5 -178.5 -67.5 -261.5s-107.833 -147.333 -188.5 -193s-165 -68.5 -253 -68.5c-88.667 0 -173.334 22.833 -254.001 68.5s-143.5 110 -188.5 193
s-67.5 170.167 -67.5 261.5c0 90.667 22.667 177.834 68 261.501s108.833 148 190.5 193s165.5 67.5 251.5 67.5zM372.001 864c-45.333 -36 -80.832 -87.667 -106.499 -155s-38.5 -137.333 -38.5 -210c0 -73.333 12.5 -143.166 37.5 -209.499s60.5 -118.166 106.5 -155.499
s93.333 -56 142 -56c50 0 97.833 18.667 143.5 56s81.167 89.166 106.5 155.499s38 136.166 38 209.499c0 72.667 -13 142.667 -39 210s-61.833 119 -107.5 155s-92.834 54 -141.501 54s-95.667 -18 -141 -54zM308.002 1246c7.33301 8 19.833 13.667 37.5 17
s38.5 3.83301 62.5 1.5s46.667 -7.16602 68 -14.499c22 -7.33301 41 -16.333 57 -27s59.667 -32.834 131 -66.501s103 -54.5 95 -62.5c-7.33301 -8 -53.666 -2.5 -138.999 16.5s-139.833 29.833 -163.5 32.5s-46.167 7.66699 -67.5 15c-22 7.33301 -41 16.333 -57 27
s-25.833 21.5 -29.5 32.5s-1.83398 20.5 5.49902 28.5z" />
    <glyph glyph-name="oacute" unicode="&#xf3;" horiz-adv-x="1046" 
d="M509 1028c85.333 0 168.501 -22.5 249.501 -67.5s144.5 -109.333 190.5 -193s69 -170.834 69 -261.501c0 -91.333 -22.5 -178.5 -67.5 -261.5s-107.833 -147.333 -188.5 -193s-165 -68.5 -253 -68.5c-88.667 0 -173.334 22.833 -254.001 68.5s-143.5 110 -188.5 193
s-67.5 170.167 -67.5 261.5c0 90.667 22.667 177.834 68 261.501s108.833 148 190.5 193s165.5 67.5 251.5 67.5zM372.001 864c-45.333 -36 -80.832 -87.667 -106.499 -155s-38.5 -137.333 -38.5 -210c0 -73.333 12.5 -143.166 37.5 -209.499s60.5 -118.166 106.5 -155.499
s93.333 -56 142 -56c50 0 97.833 18.667 143.5 56s81.167 89.166 106.5 155.499s38 136.166 38 209.499c0 72.667 -13 142.667 -39 210s-61.833 119 -107.5 155s-92.834 54 -141.501 54s-95.667 -18 -141 -54zM758.502 1217.5c-3.66699 -11 -13.6689 -21.833 -30.002 -32.5
s-35.166 -19.667 -56.499 -27s-43.833 -12.333 -67.5 -15s-78.167 -13.5 -163.5 -32.5s-132 -24.5 -140 -16.5c-7.33301 8 24.667 28.833 96 62.5s115 55.834 131 66.501s34.667 19.667 56 27c22 7.33301 44.833 12.166 68.5 14.499s44.334 1.83301 62.001 -1.5
s30.167 -9 37.5 -17c8 -8 10.167 -17.5 6.5 -28.5z" />
    <glyph glyph-name="ocircumflex" unicode="&#xf4;" horiz-adv-x="1046" 
d="M509 1028c85.333 0 168.501 -22.5 249.501 -67.5s144.5 -109.333 190.5 -193s69 -170.834 69 -261.501c0 -91.333 -22.5 -178.5 -67.5 -261.5s-107.833 -147.333 -188.5 -193s-165 -68.5 -253 -68.5c-88.667 0 -173.334 22.833 -254.001 68.5s-143.5 110 -188.5 193
s-67.5 170.167 -67.5 261.5c0 90.667 22.667 177.834 68 261.501s108.833 148 190.5 193s165.5 67.5 251.5 67.5zM372.001 864c-45.333 -36 -80.832 -87.667 -106.499 -155s-38.5 -137.333 -38.5 -210c0 -73.333 12.5 -143.166 37.5 -209.499s60.5 -118.166 106.5 -155.499
s93.333 -56 142 -56c50 0 97.833 18.667 143.5 56s81.167 89.166 106.5 155.499s38 136.166 38 209.499c0 72.667 -13 142.667 -39 210s-61.833 119 -107.5 155s-92.834 54 -141.501 54s-95.667 -18 -141 -54zM497.002 1368l-112.002 -259c8.66699 -4.66699 19.667 -7 33 -7
v-12h-105v12c12.667 0 23.334 2.33301 32.001 7l113 261c-8.66699 5.33301 -19.334 8 -32.001 8v14h171v-14c-12.667 0 -23.667 -2.66699 -33 -8l104 -261c8.66699 -4.66699 19.334 -7 32.001 -7v-12h-132v12c12.667 0 23.334 2.33301 32.001 7z" />
    <glyph glyph-name="otilde" unicode="&#xf5;" horiz-adv-x="1046" 
d="M509 1028c85.333 0 168.501 -22.5 249.501 -67.5s144.5 -109.333 190.5 -193s69 -170.834 69 -261.501c0 -91.333 -22.5 -178.5 -67.5 -261.5s-107.833 -147.333 -188.5 -193s-165 -68.5 -253 -68.5c-88.667 0 -173.334 22.833 -254.001 68.5s-143.5 110 -188.5 193
s-67.5 170.167 -67.5 261.5c0 90.667 22.667 177.834 68 261.501s108.833 148 190.5 193s165.5 67.5 251.5 67.5zM372.001 864c-45.333 -36 -80.832 -87.667 -106.499 -155s-38.5 -137.333 -38.5 -210c0 -73.333 12.5 -143.166 37.5 -209.499s60.5 -118.166 106.5 -155.499
s93.333 -56 142 -56c50 0 97.833 18.667 143.5 56s81.167 89.166 106.5 155.499s38 136.166 38 209.499c0 72.667 -13 142.667 -39 210s-61.833 119 -107.5 155s-92.834 54 -141.501 54s-95.667 -18 -141 -54zM718.002 1326l20.001 -40.001
c-1.33301 -62 -12.333 -110.167 -33 -144.5s-46 -51.5 -76 -51.5c-13.333 0 -27.833 3.66699 -43.5 11s-56.5 32.333 -122.5 75c-45.333 30 -77.666 45 -96.999 45c-20.667 0 -38.167 -10.167 -52.5 -30.5s-24.166 -53.5 -29.499 -99.5h-20
c1.33301 91.333 12.166 153.833 32.499 187.5s44.166 50.5 71.499 50.5c12.667 0 25.667 -3.66699 39 -11c31.333 -14 72.166 -38.167 122.499 -72.5s85.5 -51.5 105.5 -51.5c22 0 40.667 11.333 56 34s24.333 55.334 27 98.001z" />
    <glyph glyph-name="odieresis" unicode="&#xf6;" horiz-adv-x="1046" 
d="M509 1028c85.333 0 168.501 -22.5 249.501 -67.5s144.5 -109.333 190.5 -193s69 -170.834 69 -261.501c0 -91.333 -22.5 -178.5 -67.5 -261.5s-107.833 -147.333 -188.5 -193s-165 -68.5 -253 -68.5c-88.667 0 -173.334 22.833 -254.001 68.5s-143.5 110 -188.5 193
s-67.5 170.167 -67.5 261.5c0 90.667 22.667 177.834 68 261.501s108.833 148 190.5 193s165.5 67.5 251.5 67.5zM372.001 864c-45.333 -36 -80.832 -87.667 -106.499 -155s-38.5 -137.333 -38.5 -210c0 -73.333 12.5 -143.166 37.5 -209.499s60.5 -118.166 106.5 -155.499
s93.333 -56 142 -56c50 0 97.833 18.667 143.5 56s81.167 89.166 106.5 155.499s38 136.166 38 209.499c0 72.667 -13 142.667 -39 210s-61.833 119 -107.5 155s-92.834 54 -141.501 54s-95.667 -18 -141 -54zM408.002 1246c13.333 0 26.333 -3.33301 39 -10
s22.667 -16.167 30 -28.5s11 -25.5 11 -39.5c0 -13.333 -3.5 -26.333 -10.5 -39s-16.833 -22.334 -29.5 -29.001s-26 -10 -40 -10s-27.333 3.33301 -40 10s-22.5 16.334 -29.5 29.001s-10.5 25.667 -10.5 39c0 14 3.5 27.167 10.5 39.5s17 21.833 30 28.5s26.167 10 39.5 10
zM620.002 1246c13.333 0 26.332 -3.33301 38.999 -10s22.667 -16.167 30 -28.5s11 -25.5 11 -39.5c0 -13.333 -3.66699 -26.333 -11 -39s-17.166 -22.334 -29.499 -29.001s-25.5 -10 -39.5 -10s-27.333 3.33301 -40 10s-22.5 16.334 -29.5 29.001s-10.5 25.667 -10.5 39
c0 14 3.5 27.167 10.5 39.5s17 21.833 30 28.5s26.167 10 39.5 10z" />
    <glyph glyph-name="divide" unicode="&#xf7;" horiz-adv-x="800" 
d="M394 335c24.667 0 48.6699 -6.16699 72.0029 -18.5s41.833 -30 55.5 -53s20.5 -47.5 20.5 -73.5c0 -24.667 -6.66699 -48.834 -20 -72.501s-31.5 -41.667 -54.5 -54s-47.5 -18.5 -73.5 -18.5c-26.667 0 -51.834 6.16699 -75.501 18.5s-41.834 30.333 -54.501 54
s-19 47.834 -19 72.501c0 26 6.33301 50.5 19 73.5s31.167 40.667 55.5 53s49.166 18.5 74.499 18.5zM387.003 940c24.667 0 48.6699 -6.16699 72.0029 -18.5s41.833 -30.166 55.5 -53.499s20.5 -47.666 20.5 -72.999c0 -24.667 -6.66699 -48.834 -20 -72.501
s-31.5 -41.667 -54.5 -54s-47.5 -18.5 -73.5 -18.5c-26.667 0 -51.834 6.16699 -75.501 18.5s-41.834 30.333 -54.501 54s-19 47.834 -19 72.501c0 25.333 6.33301 49.666 19 72.999s31.167 41.166 55.5 53.499s49.166 18.5 74.499 18.5zM0.00585938 617h28
c1.33301 -24 7.66602 -44 18.999 -60h650c13.333 16 20.333 36 21 60h35v-253h-35c-0.666992 24.667 -7.66699 45 -21 61h-650c-11.333 -16 -17.666 -36.333 -18.999 -61h-28v253z" />
    <glyph glyph-name="oslash" unicode="&#xf8;" horiz-adv-x="1157" 
d="M296 221c22.667 -49.333 51.333 -89.333 86 -120c46 -41.333 93.333 -62 142 -62c50 0 97.833 20.667 143.5 62s81.167 98.833 106.5 172.5s38 151.167 38 232.5c0 68 -9.33301 134 -28 198zM252.999 358l478 473.001c-19.333 32 -41 58.667 -65 80
c-46 40 -93.333 60 -142 60s-95.667 -20 -141 -60s-80.833 -97.333 -106.5 -172s-38.5 -152.334 -38.5 -233.001c0 -50.667 5 -100 15 -148zM178.999 105.001l-40.9971 -41.001c6.66699 -15.333 26 -24 58 -26l-39 -38h-347l39 38c34 2 69.667 10.667 107 26l138 137
c-9.33301 14 -18 28.667 -26 44c-45.333 82.667 -68 169.667 -68 261c0 90.667 22.667 177.834 68 261.501s108.833 148 190.5 193s165.5 67.5 251.5 67.5c85.333 0 168.666 -22.333 249.999 -67c21.333 -12.667 41.666 -26.334 60.999 -41.001l24 24
c-4 18 -21.667 27.667 -53 29l47 47h348l-47 -47c-35.333 -1.33301 -73 -11 -113 -29l-116 -115c14 -19.333 27 -39.666 39 -60.999c46 -84 69 -171.333 69 -262c0 -91.333 -22.5 -178.5 -67.5 -261.5s-107.833 -147.333 -188.5 -193s-165 -68.5 -253 -68.5
c-88.667 0 -173.334 23 -254.001 69c-27.333 15.333 -53 33 -77 53z" />
    <glyph glyph-name="ugrave" unicode="&#xf9;" 
d="M744 159l-0.000976562 862h296v-86c-62 0 -93 -20.333 -93 -61v-737c13.333 -42 51 -60 113 -54v-83h-316v61c-0.666992 -0.666992 -1.66699 -1 -3 -1c-68.667 -39.333 -139.667 -59 -213 -59c-72.667 0 -142.667 19.5 -210 58.5s-120.666 86.833 -159.999 143.5
c-30.667 44.667 -50 96.334 -58 155.001v516c0 40.667 -33.667 61 -101 61v86h398v-86c-64.667 0 -97 -20.333 -97 -61v-503c4.66699 -46.667 16 -88.334 34 -125.001c24.667 -50 58.334 -92.333 101.001 -127s86.667 -52 132 -52c46 0 90.667 17.333 134 52
c15.333 12.667 29.666 26 42.999 40zM306.999 1246c7.33301 8 19.833 13.667 37.5 17s38.5 3.83301 62.5 1.5s46.667 -7.16602 68 -14.499c22 -7.33301 41 -16.333 57 -27s59.667 -32.834 131 -66.501s103 -54.5 95 -62.5c-7.33301 -8 -53.666 -2.5 -138.999 16.5
s-139.833 29.833 -163.5 32.5s-46.167 7.66699 -67.5 15c-22 7.33301 -41 16.333 -57 27s-25.833 21.5 -29.5 32.5s-1.83398 20.5 5.49902 28.5z" />
    <glyph glyph-name="uacute" unicode="&#xfa;" 
d="M744 159l-0.000976562 862h296v-86c-62 0 -93 -20.333 -93 -61v-737c13.333 -42 51 -60 113 -54v-83h-316v61c-0.666992 -0.666992 -1.66699 -1 -3 -1c-68.667 -39.333 -139.667 -59 -213 -59c-72.667 0 -142.667 19.5 -210 58.5s-120.666 86.833 -159.999 143.5
c-30.667 44.667 -50 96.334 -58 155.001v516c0 40.667 -33.667 61 -101 61v86h398v-86c-64.667 0 -97 -20.333 -97 -61v-503c4.66699 -46.667 16 -88.334 34 -125.001c24.667 -50 58.334 -92.333 101.001 -127s86.667 -52 132 -52c46 0 90.667 17.333 134 52
c15.333 12.667 29.666 26 42.999 40zM758.499 1217.5c-3.66699 -11 -13.6689 -21.833 -30.002 -32.5s-35.166 -19.667 -56.499 -27s-43.833 -12.333 -67.5 -15s-78.167 -13.5 -163.5 -32.5s-132 -24.5 -140 -16.5c-7.33301 8 24.667 28.833 96 62.5s115 55.834 131 66.501
s34.667 19.667 56 27c22 7.33301 44.833 12.166 68.5 14.499s44.334 1.83301 62.001 -1.5s30.167 -9 37.5 -17c8 -8 10.167 -17.5 6.5 -28.5z" />
    <glyph glyph-name="ucircumflex" unicode="&#xfb;" 
d="M744 159l-0.000976562 862h296v-86c-62 0 -93 -20.333 -93 -61v-737c13.333 -42 51 -60 113 -54v-83h-316v61c-0.666992 -0.666992 -1.66699 -1 -3 -1c-68.667 -39.333 -139.667 -59 -213 -59c-72.667 0 -142.667 19.5 -210 58.5s-120.666 86.833 -159.999 143.5
c-30.667 44.667 -50 96.334 -58 155.001v516c0 40.667 -33.667 61 -101 61v86h398v-86c-64.667 0 -97 -20.333 -97 -61v-503c4.66699 -46.667 16 -88.334 34 -125.001c24.667 -50 58.334 -92.333 101.001 -127s86.667 -52 132 -52c46 0 90.667 17.333 134 52
c15.333 12.667 29.666 26 42.999 40zM541.999 1369l-112.002 -259c8.66699 -4.66699 19.667 -7 33 -7v-12h-105v12c12.667 0 23.334 2.33301 32.001 7l113 261c-8.66699 5.33301 -19.334 8 -32.001 8v14h171v-14c-12.667 0 -23.667 -2.66699 -33 -8l104 -261
c8.66699 -4.66699 19.334 -7 32.001 -7v-12h-132v12c12.667 0 23.334 2.33301 32.001 7z" />
    <glyph glyph-name="udieresis" unicode="&#xfc;" 
d="M744 159l-0.000976562 862h296v-86c-62 0 -93 -20.333 -93 -61v-737c13.333 -42 51 -60 113 -54v-83h-316v61c-0.666992 -0.666992 -1.66699 -1 -3 -1c-68.667 -39.333 -139.667 -59 -213 -59c-72.667 0 -142.667 19.5 -210 58.5s-120.666 86.833 -159.999 143.5
c-30.667 44.667 -50 96.334 -58 155.001v516c0 40.667 -33.667 61 -101 61v86h398v-86c-64.667 0 -97 -20.333 -97 -61v-503c4.66699 -46.667 16 -88.334 34 -125.001c24.667 -50 58.334 -92.333 101.001 -127s86.667 -52 132 -52c46 0 90.667 17.333 134 52
c15.333 12.667 29.666 26 42.999 40zM427.999 1247c13.333 0 26.333 -3.33301 39 -10s22.667 -16.167 30 -28.5s11 -25.5 11 -39.5c0 -13.333 -3.5 -26.333 -10.5 -39s-16.833 -22.334 -29.5 -29.001s-26 -10 -40 -10s-27.333 3.33301 -40 10s-22.5 16.334 -29.5 29.001
s-10.5 25.667 -10.5 39c0 14 3.5 27.167 10.5 39.5s17 21.833 30 28.5s26.167 10 39.5 10zM639.999 1247c13.333 0 26.332 -3.33301 38.999 -10s22.667 -16.167 30 -28.5s11 -25.5 11 -39.5c0 -13.333 -3.66699 -26.333 -11 -39s-17.166 -22.334 -29.499 -29.001
s-25.5 -10 -39.5 -10s-27.333 3.33301 -40 10s-22.5 16.334 -29.5 29.001s-10.5 25.667 -10.5 39c0 14 3.5 27.167 10.5 39.5s17 21.833 30 28.5s26.167 10 39.5 10z" />
    <glyph glyph-name="yacute" unicode="&#xfd;" 
d="M744 -49l0.000976562 109.001c-0.666992 -0.666992 -1.66699 -1.33398 -3 -2.00098c-68.667 -38.667 -139.667 -58 -213 -58c-72.667 0 -142.667 19.5 -210 58.5s-120.666 86.833 -159.999 143.5c-30.667 44.667 -50 96.334 -58 155.001v540
c-26.667 22 -60.334 34.333 -101.001 37v86h398v-86c-39.333 -2.66699 -71.666 -15 -96.999 -37v-527c4.66699 -46.667 16 -88.334 34 -125.001c24.667 -50 58.334 -92.333 101.001 -127s86.667 -52 132 -52c46 0 90.667 17.333 134 52c15.333 12 29.666 25.333 42.999 40
v862h296v-82c-34.667 -0.666992 -65.667 -9 -93 -25v-963c-12 -50.667 -30.667 -100.667 -56 -150c-38 -72 -91.333 -128 -160 -168s-139.334 -60 -212.001 -60c-76 0 -148 20 -216 60s-120.667 95.667 -158 167c-6 10.667 -11.333 21.334 -16 32.001l106 1
c2.66699 -8.66699 5.66699 -17.334 9 -26.001c24 -63.333 57.333 -112.666 100 -147.999s88 -53 136 -53c45.333 0 89.666 17.667 132.999 53s77 84.666 101 147.999c17.333 46.667 27.333 95 30 145zM758.501 1217.5c-3.66699 -11 -13.6689 -21.833 -30.002 -32.5
s-35.166 -19.667 -56.499 -27s-43.833 -12.333 -67.5 -15s-78.167 -13.5 -163.5 -32.5s-132 -24.5 -140 -16.5c-7.33301 8 24.667 28.833 96 62.5s115 55.834 131 66.501s34.667 19.667 56 27c22 7.33301 44.833 12.166 68.5 14.499s44.334 1.83301 62.001 -1.5
s30.167 -9 37.5 -17c8 -8 10.167 -17.5 6.5 -28.5z" />
    <glyph glyph-name="thorn" unicode="&#xfe;" horiz-adv-x="900" 
d="M99 1021c-26.667 22 -59.667 34.332 -99 36.999v56h421v-56c-40.667 -2.66699 -74.334 -15 -101.001 -37v-332c18.667 1.33301 37.334 2 56.001 2c88 0 172.333 -18.667 253 -56s143.334 -80.666 188.001 -129.999s67 -101 67 -155v-16c0 -54 -22.333 -105.667 -67 -155
s-107.334 -92.5 -188.001 -129.5s-165 -55.5 -253 -55.5c-18.667 0 -37.334 0.666992 -56.001 2v-332c26.667 -22 60.334 -34.333 101.001 -37v-56h-421v56c39.333 2.66699 72.333 15 99 37v1357zM320 95.999c23.333 -6 47 -8.99902 71 -8.99902
c49.333 0 96.833 7.16699 142.5 21.5s81.167 43.5 106.5 87.5c18.667 33.333 30.334 68 35.001 104h-3c2.66699 14 4.33398 28 5.00098 42c-0.666992 14 -2.33398 28 -5.00098 42h3c-4.66699 36 -16.334 71 -35.001 105c-25.333 43.333 -60.833 72.166 -106.5 86.499
s-93.167 21.5 -142.5 21.5c-24 0 -47.667 -3 -71 -9v-492z" />
    <glyph glyph-name="ydieresis" unicode="&#xff;" 
d="M744 -49l0.000976562 109.001c-0.666992 -0.666992 -1.66699 -1.33398 -3 -2.00098c-68.667 -38.667 -139.667 -58 -213 -58c-72.667 0 -142.667 19.5 -210 58.5s-120.666 86.833 -159.999 143.5c-30.667 44.667 -50 96.334 -58 155.001v540
c-26.667 22 -60.334 34.333 -101.001 37v86h398v-86c-39.333 -2.66699 -71.666 -15 -96.999 -37v-527c4.66699 -46.667 16 -88.334 34 -125.001c24.667 -50 58.334 -92.333 101.001 -127s86.667 -52 132 -52c46 0 90.667 17.333 134 52c15.333 12 29.666 25.333 42.999 40
v862h296v-82c-34.667 -0.666992 -65.667 -9 -93 -25v-963c-12 -50.667 -30.667 -100.667 -56 -150c-38 -72 -91.333 -128 -160 -168s-139.334 -60 -212.001 -60c-76 0 -148 20 -216 60s-120.667 95.667 -158 167c-6 10.667 -11.333 21.334 -16 32.001l106 1
c2.66699 -8.66699 5.66699 -17.334 9 -26.001c24 -63.333 57.333 -112.666 100 -147.999s88 -53 136 -53c45.333 0 89.666 17.667 132.999 53s77 84.666 101 147.999c17.333 46.667 27.333 95 30 145zM441.001 1246c13.333 0 26.333 -3.33301 39 -10
s22.667 -16.167 30 -28.5s11 -25.5 11 -39.5c0 -13.333 -3.5 -26.333 -10.5 -39s-16.833 -22.334 -29.5 -29.001s-26 -10 -40 -10s-27.333 3.33301 -40 10s-22.5 16.334 -29.5 29.001s-10.5 25.667 -10.5 39c0 14 3.5 27.167 10.5 39.5s17 21.833 30 28.5s26.167 10 39.5 10
zM653.001 1246c13.333 0 26.332 -3.33301 38.999 -10s22.667 -16.167 30 -28.5s11 -25.5 11 -39.5c0 -13.333 -3.66699 -26.333 -11 -39s-17.166 -22.334 -29.499 -29.001s-25.5 -10 -39.5 -10s-27.333 3.33301 -40 10s-22.5 16.334 -29.5 29.001s-10.5 25.667 -10.5 39
c0 14 3.5 27.167 10.5 39.5s17 21.833 30 28.5s26.167 10 39.5 10z" />
    <glyph glyph-name="Amacron" unicode="&#x100;" horiz-adv-x="1186" 
d="M644 934l-108 434l-118 -434h226zM391 836l-196.002 -743c26.667 -22 60.334 -34.333 101.001 -37v-56h-297v56c39.333 2.66699 72.333 15 99 37l350 1285c-26.667 26 -53 39.333 -79 40v70h457v-70c-27.333 -0.666992 -54.333 -14 -81 -40l320 -1285
c26.667 -22 60.334 -34.333 101.001 -37v-56h-411v56c39.333 2.66699 72.333 15 99 37l-185 743h-278zM256.998 1786h25c1.33301 -24 7 -44 17 -60h587c12 16 18.333 36 19 60h32v-253h-32c-0.666992 24.667 -7 45 -19 61h-587c-10 -16 -15.667 -36.333 -17 -61h-25v253z
" />
    <glyph glyph-name="amacron" unicode="&#x101;" horiz-adv-x="931" 
d="M535 622c-90 0 -166.5 -25.668 -229.5 -77.001s-94.5 -113.666 -94.5 -186.999c0 -72.667 31.5 -134.667 94.5 -186s139.5 -77 229.5 -77c68 0 120 14.667 156 44v440c-36.667 28.667 -88.667 43 -156 43zM877 736.999l0.000976562 -661.999
c26.667 -18 59 -27.333 97 -28v-47h-283v39c-65.333 -26 -138 -39 -218 -39c-131.333 -0 -243 35.333 -335 106s-138 156 -138 256s46.333 185.167 139 255.5s204 105.5 334 105.5c79.333 0 153.333 -12.667 222 -38v37c0 5.33301 -0.333008 10.333 -1 15h1
c-4 16 -18.667 44 -44 84c-30 47.333 -71.5 83.666 -124.5 108.999s-108.167 38 -165.5 38c-56 0 -110.333 -12.333 -163 -37c-49.333 -24 -88.333 -57.667 -117 -101l-51 40l9 15c40 57.333 95.667 101.333 167 132s144.666 46 219.999 46
c74.667 0 147.334 -15.333 218.001 -46s126 -75 166 -133c33.333 -47.333 55.666 -96.333 66.999 -147zM120.001 1301h25c1.33301 -24 7 -44 17 -60h587c12 16 18.333 36 19 60h32v-253h-32c-0.666992 24.667 -7 45 -19 61h-587c-10 -16 -15.667 -36.333 -17 -61h-25v253z
" />
    <glyph glyph-name="Abreve" unicode="&#x102;" horiz-adv-x="1186" 
d="M644 934l-108 434l-118 -434h226zM391 836l-196.002 -743c26.667 -22 60.334 -34.333 101.001 -37v-56h-297v56c39.333 2.66699 72.333 15 99 37l350 1285c-26.667 26 -53 39.333 -79 40v70h457v-70c-27.333 -0.666992 -54.333 -14 -81 -40l320 -1285
c26.667 -22 60.334 -34.333 101.001 -37v-56h-411v56c39.333 2.66699 72.333 15 99 37l-185 743h-278zM457.998 1706c10 -24 21.002 -44.667 33.002 -62c27.333 -38.667 55.666 -58 84.999 -58s57.666 19.333 84.999 58c12.667 17.333 24 38 34 62h105
c-22.667 -44 -50 -80.333 -82 -109c-48 -42.667 -98.333 -64 -151 -64s-102.667 21.333 -150 64c-32 28.667 -59.333 65 -82 109h123z" />
    <glyph glyph-name="abreve" unicode="&#x103;" horiz-adv-x="931" 
d="M535 622c-90 0 -166.5 -25.668 -229.5 -77.001s-94.5 -113.666 -94.5 -186.999c0 -72.667 31.5 -134.667 94.5 -186s139.5 -77 229.5 -77c68 0 120 14.667 156 44v440c-36.667 28.667 -88.667 43 -156 43zM877 736.999l0.000976562 -661.999
c26.667 -18 59 -27.333 97 -28v-47h-283v39c-65.333 -26 -138 -39 -218 -39c-131.333 -0 -243 35.333 -335 106s-138 156 -138 256s46.333 185.167 139 255.5s204 105.5 334 105.5c79.333 0 153.333 -12.667 222 -38v37c0 5.33301 -0.333008 10.333 -1 15h1
c-4 16 -18.667 44 -44 84c-30 47.333 -71.5 83.666 -124.5 108.999s-108.167 38 -165.5 38c-56 0 -110.333 -12.333 -163 -37c-49.333 -24 -88.333 -57.667 -117 -101l-51 40l9 15c40 57.333 95.667 101.333 167 132s144.666 46 219.999 46
c74.667 0 147.334 -15.333 218.001 -46s126 -75 166 -133c33.333 -47.333 55.666 -96.333 66.999 -147zM358.001 1263c10 -24 21.002 -44.667 33.002 -62c27.333 -38.667 55.666 -58 84.999 -58s57.666 19.333 84.999 58c12.667 17.333 24 38 34 62h105
c-22.667 -44 -50 -80.333 -82 -109c-48 -42.667 -98.333 -64 -151 -64s-102.667 21.333 -150 64c-32 28.667 -59.333 65 -82 109h123z" />
    <glyph glyph-name="Aogonek" unicode="&#x104;" horiz-adv-x="1163" 
d="M644 934l-108 434l-118 -434h226zM391 836l-196.002 -743c26.667 -22 60.334 -34.333 101.001 -37v-56h-297v56c39.333 2.66699 72.333 15 99 37l350 1285c-26.667 26 -53 39.333 -79 40v70h457v-70c-27.333 -0.666992 -54.333 -14 -81 -40l320 -1285
c26.667 -22 60.334 -34.333 101.001 -37v-56h-411v56c39.333 2.66699 72.333 15 99 37l-185 743h-278zM900.998 -300c-17.333 0 -33.833 4.16699 -49.5 12.5s-28.167 20.5 -37.5 36.5s-14 32.333 -14 49c0 17.333 4.5 33.833 13.5 49.5s36.333 54.167 82 115.5
s77.5 92 95.5 92c17.333 0 14 -30.667 -10 -92s-26.667 -99.833 -8 -115.5s28 -32.167 28 -49.5c0 -16.667 -4.33301 -33 -13 -49s-21.167 -28.167 -37.5 -36.5s-32.833 -12.5 -49.5 -12.5z" />
    <glyph glyph-name="aogonek" unicode="&#x105;" horiz-adv-x="931" 
d="M535 622c-90 0 -166.5 -25.668 -229.5 -77.001s-94.5 -113.666 -94.5 -186.999c0 -72.667 31.5 -134.667 94.5 -186s139.5 -77 229.5 -77c68 0 120 14.667 156 44v440c-36.667 28.667 -88.667 43 -156 43zM877 736.999l0.000976562 -661.999
c26.667 -18 59 -27.333 97 -28v-47h-283v39c-65.333 -26 -138 -39 -218 -39c-131.333 -0 -243 35.333 -335 106s-138 156 -138 256s46.333 185.167 139 255.5s204 105.5 334 105.5c79.333 0 153.333 -12.667 222 -38v37c0 5.33301 -0.333008 10.333 -1 15h1
c-4 16 -18.667 44 -44 84c-30 47.333 -71.5 83.666 -124.5 108.999s-108.167 38 -165.5 38c-56 0 -110.333 -12.333 -163 -37c-49.333 -24 -88.333 -57.667 -117 -101l-51 40l9 15c40 57.333 95.667 101.333 167 132s144.666 46 219.999 46
c74.667 0 147.334 -15.333 218.001 -46s126 -75 166 -133c33.333 -47.333 55.666 -96.333 66.999 -147zM701.001 -300c-17.333 0 -33.833 4.16699 -49.5 12.5s-28.167 20.5 -37.5 36.5s-14 32.333 -14 49c0 17.333 4.5 33.833 13.5 49.5s36.333 54.167 82 115.5
s77.5 92 95.5 92c17.333 0 14 -30.667 -10 -92s-26.667 -99.833 -8 -115.5s28 -32.167 28 -49.5c0 -16.667 -4.33301 -33 -13 -49s-21.167 -28.167 -37.5 -36.5s-32.833 -12.5 -49.5 -12.5z" />
    <glyph glyph-name="Cacute" unicode="&#x106;" horiz-adv-x="1133" 
d="M1027 219c-113.333 -146 -250.335 -219 -411.002 -219c-159.333 0 -295.666 73.167 -408.999 219.5s-170 323.5 -170 531.5s56.167 385.5 168.5 532.5s249.166 220.5 410.499 220.5c151.333 0 281 -64.333 389 -193c42.667 -5.33301 73 7.33398 91 38.001l38 -54
l-156 -285l-68 57c15.333 66.667 16 117 2 151c-41.333 114 -114.666 171 -219.999 171c-110.667 0 -204.5 -62.667 -281.5 -188s-115.5 -277.333 -115.5 -456s38.5 -330.834 115.5 -456.501s170.833 -188.5 281.5 -188.5c109.333 0 186 62.667 230 188
c12.667 21.333 24.667 43.333 36 66l127 -49c-17.333 -30 -36.666 -58.667 -57.999 -86zM798.498 1651.5c-3.66699 -11 -13.6689 -21.833 -30.002 -32.5s-35.166 -19.667 -56.499 -27s-43.833 -12.333 -67.5 -15s-78.167 -13.5 -163.5 -32.5s-132 -24.5 -140 -16.5
c-7.33301 8 24.667 28.833 96 62.5s115 55.834 131 66.501s34.667 19.667 56 27c22 7.33301 44.833 12.166 68.5 14.499s44.334 1.83301 62.001 -1.5s30.167 -9 37.5 -17c8 -8 10.167 -17.5 6.5 -28.5z" />
    <glyph glyph-name="cacute" unicode="&#x107;" 
d="M901 151c-99.333 -100.667 -218.997 -150.999 -358.997 -150.999c-138.667 0 -257.5 50.333 -356.5 151s-148.5 222.334 -148.5 365.001c0 143.333 49 265.5 147 366.5s217.333 151.5 358 151.5c132 0 245 -44.333 339 -133c37.333 -3.33301 64 5.33398 80 26.001l33 -37
l-136 -226l-59 40c13.333 45.333 13.666 79.666 0.999023 102.999c-36 78.667 -100 118 -192 118c-96 0 -177.667 -38.167 -245 -114.5s-101 -175.833 -101 -298.5s33.667 -218.834 101 -288.501s149 -104.5 245 -104.5c95.333 0 162.333 43 201 129
c11.333 14.667 21.666 29.667 30.999 45l111 -83c-14.667 -20.667 -31.334 -40.334 -50.001 -59.001zM758.503 1217.5c-3.66699 -11 -13.6689 -21.833 -30.002 -32.5s-35.166 -19.667 -56.499 -27s-43.833 -12.333 -67.5 -15s-78.167 -13.5 -163.5 -32.5
s-132 -24.5 -140 -16.5c-7.33301 8 24.667 28.833 96 62.5s115 55.834 131 66.501s34.667 19.667 56 27c22 7.33301 44.833 12.166 68.5 14.499s44.334 1.83301 62.001 -1.5s30.167 -9 37.5 -17c8 -8 10.167 -17.5 6.5 -28.5z" />
    <glyph glyph-name="Ccircumflex" unicode="&#x108;" horiz-adv-x="1133" 
d="M1027 219c-113.333 -146 -250.335 -219 -411.002 -219c-159.333 0 -295.666 73.167 -408.999 219.5s-170 323.5 -170 531.5s56.167 385.5 168.5 532.5s249.166 220.5 410.499 220.5c151.333 0 281 -64.333 389 -193c42.667 -5.33301 73 7.33398 91 38.001l38 -54
l-156 -285l-68 57c15.333 66.667 16 117 2 151c-41.333 114 -114.666 171 -219.999 171c-110.667 0 -204.5 -62.667 -281.5 -188s-115.5 -277.333 -115.5 -456s38.5 -330.834 115.5 -456.501s170.833 -188.5 281.5 -188.5c109.333 0 186 62.667 230 188
c12.667 21.333 24.667 43.333 36 66l127 -49c-17.333 -30 -36.666 -58.667 -57.999 -86zM596.998 1811l-112.002 -259c8.66699 -4.66699 19.667 -7 33 -7v-12h-105v12c12.667 0 23.334 2.33301 32.001 7l113 261c-8.66699 5.33301 -19.334 8 -32.001 8v14h171v-14
c-12.667 0 -23.667 -2.66699 -33 -8l104 -261c8.66699 -4.66699 19.334 -7 32.001 -7v-12h-132v12c12.667 0 23.334 2.33301 32.001 7z" />
    <glyph glyph-name="ccircumflex" unicode="&#x109;" 
d="M901 151c-99.333 -100.667 -218.997 -150.999 -358.997 -150.999c-138.667 0 -257.5 50.333 -356.5 151s-148.5 222.334 -148.5 365.001c0 143.333 49 265.5 147 366.5s217.333 151.5 358 151.5c132 0 245 -44.333 339 -133c37.333 -3.33301 64 5.33398 80 26.001l33 -37
l-136 -226l-59 40c13.333 45.333 13.666 79.666 0.999023 102.999c-36 78.667 -100 118 -192 118c-96 0 -177.667 -38.167 -245 -114.5s-101 -175.833 -101 -298.5s33.667 -218.834 101 -288.501s149 -104.5 245 -104.5c95.333 0 162.333 43 201 129
c11.333 14.667 21.666 29.667 30.999 45l111 -83c-14.667 -20.667 -31.334 -40.334 -50.001 -59.001zM550.003 1368l-112.002 -259c8.66699 -4.66699 19.667 -7 33 -7v-12h-105v12c12.667 0 23.334 2.33301 32.001 7l113 261c-8.66699 5.33301 -19.334 8 -32.001 8v14h171
v-14c-12.667 0 -23.667 -2.66699 -33 -8l104 -261c8.66699 -4.66699 19.334 -7 32.001 -7v-12h-132v12c12.667 0 23.334 2.33301 32.001 7z" />
    <glyph glyph-name="Cdotaccent" unicode="&#x10a;" horiz-adv-x="1133" 
d="M1027 219c-113.333 -146 -250.335 -219 -411.002 -219c-159.333 0 -295.666 73.167 -408.999 219.5s-170 323.5 -170 531.5s56.167 385.5 168.5 532.5s249.166 220.5 410.499 220.5c151.333 0 281 -64.333 389 -193c42.667 -5.33301 73 7.33398 91 38.001l38 -54
l-156 -285l-68 57c15.333 66.667 16 117 2 151c-41.333 114 -114.666 171 -219.999 171c-110.667 0 -204.5 -62.667 -281.5 -188s-115.5 -277.333 -115.5 -456s38.5 -330.834 115.5 -456.501s170.833 -188.5 281.5 -188.5c109.333 0 186 62.667 230 188
c12.667 21.333 24.667 43.333 36 66l127 -49c-17.333 -30 -36.666 -58.667 -57.999 -86zM600.998 1729c16.667 0 32.834 -4.16699 48.501 -12.5s28.167 -20.333 37.5 -36s14 -32.167 14 -49.5c0 -16.667 -4.5 -33 -13.5 -49s-21.333 -28.167 -37 -36.5
s-32.167 -12.5 -49.5 -12.5c-18 0 -35 4.16699 -51 12.5s-28.333 20.5 -37 36.5s-13 32.333 -13 49c0 17.333 4.33301 33.833 13 49.5s21.167 27.667 37.5 36s33.166 12.5 50.499 12.5z" />
    <glyph glyph-name="cdotaccent" unicode="&#x10b;" 
d="M901 151c-99.333 -100.667 -218.997 -150.999 -358.997 -150.999c-138.667 0 -257.5 50.333 -356.5 151s-148.5 222.334 -148.5 365.001c0 143.333 49 265.5 147 366.5s217.333 151.5 358 151.5c132 0 245 -44.333 339 -133c37.333 -3.33301 64 5.33398 80 26.001l33 -37
l-136 -226l-59 40c13.333 45.333 13.666 79.666 0.999023 102.999c-36 78.667 -100 118 -192 118c-96 0 -177.667 -38.167 -245 -114.5s-101 -175.833 -101 -298.5s33.667 -218.834 101 -288.501s149 -104.5 245 -104.5c95.333 0 162.333 43 201 129
c11.333 14.667 21.666 29.667 30.999 45l111 -83c-14.667 -20.667 -31.334 -40.334 -50.001 -59.001zM561.003 1286c16.667 0 32.834 -4.16699 48.501 -12.5s28.167 -20.333 37.5 -36s14 -32.167 14 -49.5c0 -16.667 -4.5 -33 -13.5 -49s-21.333 -28.167 -37 -36.5
s-32.167 -12.5 -49.5 -12.5c-18 0 -35 4.16699 -51 12.5s-28.333 20.5 -37 36.5s-13 32.333 -13 49c0 17.333 4.33301 33.833 13 49.5s21.167 27.667 37.5 36s33.166 12.5 50.499 12.5z" />
    <glyph glyph-name="Ccaron" unicode="&#x10c;" horiz-adv-x="1133" 
d="M1027 219c-113.333 -146 -250.335 -219 -411.002 -219c-159.333 0 -295.666 73.167 -408.999 219.5s-170 323.5 -170 531.5s56.167 385.5 168.5 532.5s249.166 220.5 410.499 220.5c151.333 0 281 -64.333 389 -193c42.667 -5.33301 73 7.33398 91 38.001l38 -54
l-156 -285l-68 57c15.333 66.667 16 117 2 151c-41.333 114 -114.666 171 -219.999 171c-110.667 0 -204.5 -62.667 -281.5 -188s-115.5 -277.333 -115.5 -456s38.5 -330.834 115.5 -456.501s170.833 -188.5 281.5 -188.5c109.333 0 186 62.667 230 188
c12.667 21.333 24.667 43.333 36 66l127 -49c-17.333 -30 -36.666 -58.667 -57.999 -86zM692.998 1816c-8.66699 4.66699 -20.001 7.33398 -34.001 8.00098v11h141v-11c-14 -0.666992 -25.667 -3.33398 -35 -8.00098l-109 -261c9.33301 -5.33301 21 -8 35 -8v-14h-181v14
c13.333 0 24.333 2.66699 33 8l-119 261c-9.33301 4.66699 -20.666 7.33398 -33.999 8.00098v11h111v-11c-14 -0.666992 -25.667 -3.33398 -35 -8.00098l119 -259z" />
    <glyph glyph-name="ccaron" unicode="&#x10d;" 
d="M901 151c-99.333 -100.667 -218.997 -150.999 -358.997 -150.999c-138.667 0 -257.5 50.333 -356.5 151s-148.5 222.334 -148.5 365.001c0 143.333 49 265.5 147 366.5s217.333 151.5 358 151.5c132 0 245 -44.333 339 -133c37.333 -3.33301 64 5.33398 80 26.001l33 -37
l-136 -226l-59 40c13.333 45.333 13.666 79.666 0.999023 102.999c-36 78.667 -100 118 -192 118c-96 0 -177.667 -38.167 -245 -114.5s-101 -175.833 -101 -298.5s33.667 -218.834 101 -288.501s149 -104.5 245 -104.5c95.333 0 162.333 43 201 129
c11.333 14.667 21.666 29.667 30.999 45l111 -83c-14.667 -20.667 -31.334 -40.334 -50.001 -59.001zM603.003 1373c-8.66699 4.66699 -20.001 7.33398 -34.001 8.00098v11h141v-11c-14 -0.666992 -25.667 -3.33398 -35 -8.00098l-109 -261c9.33301 -5.33301 21 -8 35 -8
v-14h-181v14c13.333 0 24.333 2.66699 33 8l-119 261c-9.33301 4.66699 -20.666 7.33398 -33.999 8.00098v11h111v-11c-14 -0.666992 -25.667 -3.33398 -35 -8.00098l119 -259z" />
    <glyph glyph-name="Dcaron" unicode="&#x10e;" horiz-adv-x="1075" 
d="M342 0h-362.999v56c39.333 2.66699 72.333 15 99 37v1285c-26.667 26 -59.667 39.333 -99 40v70h411v-5c24 3.33301 48.667 5 74 5c161.333 0 298.166 -73.5 410.499 -220.5s168.5 -324.5 168.5 -532.5s-56.667 -385 -170 -531s-249.666 -219 -408.999 -219
c-42.667 0 -83.334 5 -122.001 15zM289.001 1352v-1247c29.333 -14 62.333 -21 99 -21c110.667 0 204.5 62.833 281.5 188.5s115.5 277.834 115.5 456.501s-38.5 330.667 -115.5 456s-170.833 188 -281.5 188c-37.333 0 -70.333 -7 -99 -21zM503.001 1816
c-8.66699 4.66699 -20.001 7.33398 -34.001 8.00098v11h141v-11c-14 -0.666992 -25.667 -3.33398 -35 -8.00098l-109 -261c9.33301 -5.33301 21 -8 35 -8v-14h-181v14c13.333 0 24.333 2.66699 33 8l-119 261c-9.33301 4.66699 -20.666 7.33398 -33.999 8.00098v11h111v-11
c-14 -0.666992 -25.667 -3.33398 -35 -8.00098l119 -259z" />
    <glyph glyph-name="dcaron" unicode="&#x10f;" horiz-adv-x="1162" 
d="M196 530c0 -76.667 10.5 -150 31.5 -220s50.5 -124.5 88.5 -163.5s77.333 -58.5 118 -58.5c41.333 0 81 19.5 119 58.5s67.333 93.5 88 163.5s31 143.333 31 220c0 77.333 -10.5 143.666 -31.5 198.999s-50.667 102 -89 140s-77.5 57 -117.5 57
c-40.667 0 -79.667 -19 -117 -57s-66.833 -84.667 -88.5 -140s-32.5 -121.666 -32.5 -198.999zM999 1488v-76.999c-62 19.333 -99.667 14.666 -113 -14.001v-1303c27.333 -16 58.333 -24.333 93 -25v-69h-279v107c-79.333 -86 -164.666 -124.667 -255.999 -116
c-88 8 -165.5 35.5 -232.5 82.5s-119 112.833 -156 197.5s-55.5 173.667 -55.5 267c0 94 18.833 175.167 56.5 243.5s90.167 125.833 157.5 172.5s136.666 70 207.999 70c70.667 0 139.667 -23 207 -69c16 -12 31 -24.333 45 -37v570h325zM1033 1488
c16.667 0 32.834 -4.16699 48.501 -12.5s28.167 -20.5 37.5 -36.5s14 -32.333 14 -49c0 -17.333 -4.5 -33.833 -13.5 -49.5s-21.333 -54.334 -37 -116.001s-32.167 -92.5 -49.5 -92.5c-18 0 -35 30.833 -51 92.5s-28.333 100.334 -37 116.001s-13 32.167 -13 49.5
c0 16.667 4.33301 33 13 49s21.167 28.167 37.5 36.5s33.166 12.5 50.499 12.5z" />
    <glyph glyph-name="Dcroat" unicode="&#x110;" horiz-adv-x="1081" 
d="M310 710v-605.001c29.333 -14 62.333 -21 99 -21c110.667 0 204.5 62.833 281.5 188.5s115.5 277.834 115.5 456.501s-38.5 330.667 -115.5 456s-170.833 188 -281.5 188c-37.333 0 -70.333 -7 -99 -21v-510h113c8.66699 16 13 36 13 60h22v-253h-22
c0 24.667 -4.33301 45 -13 61h-113zM99 841.999l0.000976562 536c-26.667 26 -59.667 39.333 -99 40v70h411v-5c24 3.33301 48.667 5 74 5c161.333 0 298.166 -73.5 410.499 -220.5s168.5 -324.5 168.5 -532.5s-56.667 -385 -170 -531s-249.666 -219 -408.999 -219
c-42.667 0 -83.334 5 -122.001 15h-363v56c39.333 2.66699 72.333 15 99 37v617h-87c-7.33301 -16 -11.333 -36.333 -12 -61h-19v253h19c0.666992 -24 4.66699 -44 12 -60h87z" />
    <glyph glyph-name="dcroat" unicode="&#x111;" horiz-adv-x="1068" 
d="M207 532c0 -82.667 10.5 -161.834 31.5 -237.501s50.5 -134.5 88.5 -176.5s77.333 -63 118 -63c41.333 0 81 21 119 63s67.333 100.833 88 176.5s31 154.834 31 237.501c0 83.333 -10.5 154.833 -31.5 214.5s-50.667 110 -89 151s-77.5 61.5 -117.5 61.5
c-40.667 0 -79.667 -20.5 -117 -61.5s-66.833 -91.333 -88.5 -151s-32.5 -131.167 -32.5 -214.5zM685 1171l-119 0.000976562c-11.333 -16 -17.666 -36.333 -18.999 -61h-29v213h29c1.33301 -24 7.66602 -44 18.999 -60h119v225h325v-83
c-62 19.333 -99.667 14.666 -113 -14.001v-128h59c13.333 16 20.333 36 21 60h34v-213h-34c-0.666992 24.667 -7.66699 45 -21 61h-59v-1063c27.333 -16 58.333 -24.333 93 -25v-86h-279v104c-79.333 -86 -164.666 -124.667 -255.999 -116c-88 8 -165.5 35.5 -232.5 82.5
s-119 112.833 -156 197.5s-55.5 173.667 -55.5 267c0 94 18.833 175.167 56.5 243.5s90.167 125.833 157.5 172.5s136.666 70 207.999 70c70.667 0 139.667 -23 207 -69c16 -12 31 -24.333 45 -37v259z" />
    <glyph glyph-name="Emacron" unicode="&#x112;" horiz-adv-x="903" 
d="M-32 0l0.000976562 86c39.333 2.66699 72.333 15 99 37v1225c-26.667 26 -59.667 39.333 -99 40v100h884v-196h-26c-1.33301 64 -30.333 96 -87 96h-350c-40.667 -0.666992 -74.334 -14 -101.001 -40v-416h332c56.667 0 85.667 32 87 96h26v-292h-26
c-1.33301 64 -30.333 96 -87 96h-332v-709c11.333 -9.33301 24 -17 38 -23h452c56.667 0 85.667 32 87 96h26v-196h-923zM100.001 1786h25c1.33301 -24 7 -44 17 -60h587c12 16 18.333 36 19 60h32v-253h-32c-0.666992 24.667 -7 45 -19 61h-587
c-10 -16 -15.667 -36.333 -17 -61h-25v253z" />
    <glyph glyph-name="emacron" unicode="&#x113;" horiz-adv-x="1015" 
d="M277 768h511.999c4.66699 26 -1.66602 55 -18.999 87c-62.667 53.333 -140 80 -232 80c-96 0 -164.333 -29.667 -205 -89c-22 -24.667 -40.667 -50.667 -56 -78zM256.999 645c-10 -41.333 -14.998 -85.666 -14.998 -132.999c0 -122.667 33.667 -218.834 101 -288.501
s149 -104.5 245 -104.5c95.333 0 162.333 43 201 129c11.333 14.667 21.666 29.667 30.999 45l111 -83c-14.667 -20.667 -31.334 -40.334 -50.001 -59.001c-99.333 -100.667 -219 -151 -359 -151c-138.667 0 -257.5 50.333 -356.5 151s-148.5 222.334 -148.5 365.001
c0 143.333 49 265.5 147 366.5s217.333 151.5 358 151.5c132 0 245 -44.333 339 -133c58 -58.667 99.667 -144 125 -256h-729zM200.001 1300h25c1.33301 -24 7 -44 17 -60h587c12 16 18.333 36 19 60h32v-253h-32c-0.666992 24.667 -7 45 -19 61h-587
c-10 -16 -15.667 -36.333 -17 -61h-25v253z" />
    <glyph glyph-name="Ebreve" unicode="&#x114;" horiz-adv-x="903" 
d="M-32 0l0.000976562 86c39.333 2.66699 72.333 15 99 37v1225c-26.667 26 -59.667 39.333 -99 40v100h884v-196h-26c-1.33301 64 -30.333 96 -87 96h-350c-40.667 -0.666992 -74.334 -14 -101.001 -40v-416h332c56.667 0 85.667 32 87 96h26v-292h-26
c-1.33301 64 -30.333 96 -87 96h-332v-709c11.333 -9.33301 24 -17 38 -23h452c56.667 0 85.667 32 87 96h26v-196h-923zM323.001 1700c10 -24 21.002 -44.667 33.002 -62c27.333 -38.667 55.666 -58 84.999 -58s57.666 19.333 84.999 58c12.667 17.333 24 38 34 62h105
c-22.667 -44 -50 -80.333 -82 -109c-48 -42.667 -98.333 -64 -151 -64s-102.667 21.333 -150 64c-32 28.667 -59.333 65 -82 109h123z" />
    <glyph glyph-name="ebreve" unicode="&#x115;" horiz-adv-x="1015" 
d="M277 768h511.999c4.66699 26 -1.66602 55 -18.999 87c-62.667 53.333 -140 80 -232 80c-96 0 -164.333 -29.667 -205 -89c-22 -24.667 -40.667 -50.667 -56 -78zM256.999 645c-10 -41.333 -14.998 -85.666 -14.998 -132.999c0 -122.667 33.667 -218.834 101 -288.501
s149 -104.5 245 -104.5c95.333 0 162.333 43 201 129c11.333 14.667 21.666 29.667 30.999 45l111 -83c-14.667 -20.667 -31.334 -40.334 -50.001 -59.001c-99.333 -100.667 -219 -151 -359 -151c-138.667 0 -257.5 50.333 -356.5 151s-148.5 222.334 -148.5 365.001
c0 143.333 49 265.5 147 366.5s217.333 151.5 358 151.5c132 0 245 -44.333 339 -133c58 -58.667 99.667 -144 125 -256h-729zM423.001 1263c10 -24 21.002 -44.667 33.002 -62c27.333 -38.667 55.666 -58 84.999 -58s57.666 19.333 84.999 58c12.667 17.333 24 38 34 62
h105c-22.667 -44 -50 -80.333 -82 -109c-48 -42.667 -98.333 -64 -151 -64s-102.667 21.333 -150 64c-32 28.667 -59.333 65 -82 109h123z" />
    <glyph glyph-name="Edotaccent" unicode="&#x116;" horiz-adv-x="903" 
d="M-32 0l0.000976562 86c39.333 2.66699 72.333 15 99 37v1225c-26.667 26 -59.667 39.333 -99 40v100h884v-196h-26c-1.33301 64 -30.333 96 -87 96h-350c-40.667 -0.666992 -74.334 -14 -101.001 -40v-416h332c56.667 0 85.667 32 87 96h26v-292h-26
c-1.33301 64 -30.333 96 -87 96h-332v-709c11.333 -9.33301 24 -17 38 -23h452c56.667 0 85.667 32 87 96h26v-196h-923zM442.001 1729c16.667 0 32.834 -4.16699 48.501 -12.5s28.167 -20.333 37.5 -36s14 -32.167 14 -49.5c0 -16.667 -4.5 -33 -13.5 -49
s-21.333 -28.167 -37 -36.5s-32.167 -12.5 -49.5 -12.5c-18 0 -35 4.16699 -51 12.5s-28.333 20.5 -37 36.5s-13 32.333 -13 49c0 17.333 4.33301 33.833 13 49.5s21.167 27.667 37.5 36s33.166 12.5 50.499 12.5z" />
    <glyph glyph-name="edotaccent" unicode="&#x117;" horiz-adv-x="1015" 
d="M277 768h511.999c4.66699 26 -1.66602 55 -18.999 87c-62.667 53.333 -140 80 -232 80c-96 0 -164.333 -29.667 -205 -89c-22 -24.667 -40.667 -50.667 -56 -78zM256.999 645c-10 -41.333 -14.998 -85.666 -14.998 -132.999c0 -122.667 33.667 -218.834 101 -288.501
s149 -104.5 245 -104.5c95.333 0 162.333 43 201 129c11.333 14.667 21.666 29.667 30.999 45l111 -83c-14.667 -20.667 -31.334 -40.334 -50.001 -59.001c-99.333 -100.667 -219 -151 -359 -151c-138.667 0 -257.5 50.333 -356.5 151s-148.5 222.334 -148.5 365.001
c0 143.333 49 265.5 147 366.5s217.333 151.5 358 151.5c132 0 245 -44.333 339 -133c58 -58.667 99.667 -144 125 -256h-729zM542.001 1287c16.667 0 32.834 -4.16699 48.501 -12.5s28.167 -20.333 37.5 -36s14 -32.167 14 -49.5c0 -16.667 -4.5 -33 -13.5 -49
s-21.333 -28.167 -37 -36.5s-32.167 -12.5 -49.5 -12.5c-18 0 -35 4.16699 -51 12.5s-28.333 20.5 -37 36.5s-13 32.333 -13 49c0 17.333 4.33301 33.833 13 49.5s21.167 27.667 37.5 36s33.166 12.5 50.499 12.5z" />
    <glyph glyph-name="Eogonek" unicode="&#x118;" horiz-adv-x="903" 
d="M-32 0l0.000976562 86c39.333 2.66699 72.333 15 99 37v1225c-26.667 26 -59.667 39.333 -99 40v100h884v-196h-26c-1.33301 64 -30.333 96 -87 96h-350c-40.667 -0.666992 -74.334 -14 -101.001 -40v-416h332c56.667 0 85.667 32 87 96h26v-292h-26
c-1.33301 64 -30.333 96 -87 96h-332v-709c11.333 -9.33301 24 -17 38 -23h452c56.667 0 85.667 32 87 96h26v-196h-923zM481.001 -256c-17.333 0 -33.833 4.16699 -49.5 12.5s-28.167 20.5 -37.5 36.5s-14 32.333 -14 49c0 17.333 4.5 33.833 13.5 49.5
s36.333 54.167 82 115.5s77.5 92 95.5 92c17.333 0 14 -30.667 -10 -92s-26.667 -99.833 -8 -115.5s28 -32.167 28 -49.5c0 -16.667 -4.33301 -33 -13 -49s-21.167 -28.167 -37.5 -36.5s-32.833 -12.5 -49.5 -12.5z" />
    <glyph glyph-name="eogonek" unicode="&#x119;" horiz-adv-x="1015" 
d="M277 768h511.999c4.66699 26 -1.66602 55 -18.999 87c-62.667 53.333 -140 80 -232 80c-96 0 -164.333 -29.667 -205 -89c-22 -24.667 -40.667 -50.667 -56 -78zM256.999 645c-10 -41.333 -14.998 -85.666 -14.998 -132.999c0 -122.667 33.667 -218.834 101 -288.501
s149 -104.5 245 -104.5c95.333 0 162.333 43 201 129c11.333 14.667 21.666 29.667 30.999 45l111 -83c-14.667 -20.667 -31.334 -40.334 -50.001 -59.001c-99.333 -100.667 -219 -151 -359 -151c-138.667 0 -257.5 50.333 -356.5 151s-148.5 222.334 -148.5 365.001
c0 143.333 49 265.5 147 366.5s217.333 151.5 358 151.5c132 0 245 -44.333 339 -133c58 -58.667 99.667 -144 125 -256h-729zM452.001 -300c-17.333 0 -33.833 4.16699 -49.5 12.5s-28.167 20.5 -37.5 36.5s-14 32.333 -14 49c0 17.333 4.5 33.833 13.5 49.5
s36.333 54.167 82 115.5s77.5 92 95.5 92c17.333 0 14 -30.667 -10 -92s-26.667 -99.833 -8 -115.5s28 -32.167 28 -49.5c0 -16.667 -4.33301 -33 -13 -49s-21.167 -28.167 -37.5 -36.5s-32.833 -12.5 -49.5 -12.5z" />
    <glyph glyph-name="Ecaron" unicode="&#x11a;" horiz-adv-x="903" 
d="M-32 0l0.000976562 86c39.333 2.66699 72.333 15 99 37v1225c-26.667 26 -59.667 39.333 -99 40v100h884v-196h-26c-1.33301 64 -30.333 96 -87 96h-350c-40.667 -0.666992 -74.334 -14 -101.001 -40v-416h332c56.667 0 85.667 32 87 96h26v-292h-26
c-1.33301 64 -30.333 96 -87 96h-332v-709c11.333 -9.33301 24 -17 38 -23h452c56.667 0 85.667 32 87 96h26v-196h-923zM533.001 1816c-8.66699 4.66699 -20.001 7.33398 -34.001 8.00098v11h141v-11c-14 -0.666992 -25.667 -3.33398 -35 -8.00098l-109 -261
c9.33301 -5.33301 21 -8 35 -8v-14h-181v14c13.333 0 24.333 2.66699 33 8l-119 261c-9.33301 4.66699 -20.666 7.33398 -33.999 8.00098v11h111v-11c-14 -0.666992 -25.667 -3.33398 -35 -8.00098l119 -259z" />
    <glyph glyph-name="ecaron" unicode="&#x11b;" horiz-adv-x="1015" 
d="M277 768h511.999c4.66699 26 -1.66602 55 -18.999 87c-62.667 53.333 -140 80 -232 80c-96 0 -164.333 -29.667 -205 -89c-22 -24.667 -40.667 -50.667 -56 -78zM256.999 645c-10 -41.333 -14.998 -85.666 -14.998 -132.999c0 -122.667 33.667 -218.834 101 -288.501
s149 -104.5 245 -104.5c95.333 0 162.333 43 201 129c11.333 14.667 21.666 29.667 30.999 45l111 -83c-14.667 -20.667 -31.334 -40.334 -50.001 -59.001c-99.333 -100.667 -219 -151 -359 -151c-138.667 0 -257.5 50.333 -356.5 151s-148.5 222.334 -148.5 365.001
c0 143.333 49 265.5 147 366.5s217.333 151.5 358 151.5c132 0 245 -44.333 339 -133c58 -58.667 99.667 -144 125 -256h-729zM603.001 1374c-8.66699 4.66699 -20.001 7.33398 -34.001 8.00098v11h141v-11c-14 -0.666992 -25.667 -3.33398 -35 -8.00098l-109 -261
c9.33301 -5.33301 21 -8 35 -8v-14h-181v14c13.333 0 24.333 2.66699 33 8l-119 261c-9.33301 4.66699 -20.666 7.33398 -33.999 8.00098v11h111v-11c-14 -0.666992 -25.667 -3.33398 -35 -8.00098l119 -259z" />
    <glyph glyph-name="Gcircumflex" unicode="&#x11c;" horiz-adv-x="1133" 
d="M1048 305c-17.333 -30 -36.668 -58.667 -58.001 -86c-113.333 -146 -250.333 -219 -411 -219c-159.333 0 -295.666 73.167 -408.999 219.5s-170 323.5 -170 531.5s56.167 385.5 168.5 532.5s249.166 220.5 410.499 220.5c151.333 0 281 -64.333 389 -193
c42.667 -5.33301 73 7.33398 91 38.001l38 -54l-156 -285l-68 57c15.333 66.667 16 117 2 151c-41.333 114 -114.666 171 -219.999 171c-110.667 0 -204.5 -62.667 -281.5 -188s-115.5 -277.333 -115.5 -456s38.5 -330.834 115.5 -456.501s170.833 -188.5 281.5 -188.5
c109.333 0 186 62.667 230 188c12.667 21.333 24.667 43.333 36 66v479h-383v101h510v-629zM596.998 1811l-112.002 -259c8.66699 -4.66699 19.667 -7 33 -7v-12h-105v12c12.667 0 23.334 2.33301 32.001 7l113 261c-8.66699 5.33301 -19.334 8 -32.001 8v14h171v-14
c-12.667 0 -23.667 -2.66699 -33 -8l104 -261c8.66699 -4.66699 19.334 -7 32.001 -7v-12h-132v12c12.667 0 23.334 2.33301 32.001 7z" />
    <glyph glyph-name="gcircumflex" unicode="&#x11d;" horiz-adv-x="1008" 
d="M736 164l0.000976562 670c-38 44.667 -93.333 67 -166 67c-96 0 -177.667 -39 -245 -117s-101 -172.667 -101 -284s33.667 -206 101 -284s149 -117 245 -117c71.333 0 126.666 21.667 165.999 65zM740.001 -6l0.00585938 51.999
c-72.667 -35.333 -151.334 -53 -236.001 -53c-138.667 0 -257.5 49.833 -356.5 149.5s-148.5 220.5 -148.5 362.5c0 142.667 49 264.167 147 364.5s217.333 150.5 358 150.5c85.333 0 162.666 -18.333 231.999 -55v55h302v-76
c-40.667 -1.33301 -74.334 -14.666 -101.001 -39.999v-886c0 -78 -18.833 -152.833 -56.5 -224.5s-85.834 -127.5 -144.501 -167.5s-134.334 -60 -227.001 -60c-96 0 -173 20 -231 60s-105.667 95.667 -143 167c-6 10.667 -11.333 21.334 -16 32.001l106 61
c2.66699 -8.66699 5.66699 -17.334 9 -26.001c24 -63.333 57.333 -112.666 100 -147.999s88 -53 136 -53c45.333 0 89.666 7.66699 132.999 23s77 54.666 101 117.999c23.333 62 35.333 126.667 36 194zM538.007 1369l-112.002 -259c8.66699 -4.66699 19.667 -7 33 -7v-12
h-105v12c12.667 0 23.334 2.33301 32.001 7l113 261c-8.66699 5.33301 -19.334 8 -32.001 8v14h171v-14c-12.667 0 -23.667 -2.66699 -33 -8l104 -261c8.66699 -4.66699 19.334 -7 32.001 -7v-12h-132v12c12.667 0 23.334 2.33301 32.001 7z" />
    <glyph glyph-name="Gbreve" unicode="&#x11e;" horiz-adv-x="1133" 
d="M1048 305c-17.333 -30 -36.668 -58.667 -58.001 -86c-113.333 -146 -250.333 -219 -411 -219c-159.333 0 -295.666 73.167 -408.999 219.5s-170 323.5 -170 531.5s56.167 385.5 168.5 532.5s249.166 220.5 410.499 220.5c151.333 0 281 -64.333 389 -193
c42.667 -5.33301 73 7.33398 91 38.001l38 -54l-156 -285l-68 57c15.333 66.667 16 117 2 151c-41.333 114 -114.666 171 -219.999 171c-110.667 0 -204.5 -62.667 -281.5 -188s-115.5 -277.333 -115.5 -456s38.5 -330.834 115.5 -456.501s170.833 -188.5 281.5 -188.5
c109.333 0 186 62.667 230 188c12.667 21.333 24.667 43.333 36 66v479h-383v101h510v-629zM457.998 1706c10 -24 21.002 -44.667 33.002 -62c27.333 -38.667 55.666 -58 84.999 -58s57.666 19.333 84.999 58c12.667 17.333 24 38 34 62h105
c-22.667 -44 -50 -80.333 -82 -109c-48 -42.667 -98.333 -64 -151 -64s-102.667 21.333 -150 64c-32 28.667 -59.333 65 -82 109h123z" />
    <glyph glyph-name="gbreve" unicode="&#x11f;" horiz-adv-x="1008" 
d="M736 164l0.000976562 670c-38 44.667 -93.333 67 -166 67c-96 0 -177.667 -39 -245 -117s-101 -172.667 -101 -284s33.667 -206 101 -284s149 -117 245 -117c71.333 0 126.666 21.667 165.999 65zM740.001 -6l0.00585938 51.999
c-72.667 -35.333 -151.334 -53 -236.001 -53c-138.667 0 -257.5 49.833 -356.5 149.5s-148.5 220.5 -148.5 362.5c0 142.667 49 264.167 147 364.5s217.333 150.5 358 150.5c85.333 0 162.666 -18.333 231.999 -55v55h302v-76
c-40.667 -1.33301 -74.334 -14.666 -101.001 -39.999v-886c0 -78 -18.833 -152.833 -56.5 -224.5s-85.834 -127.5 -144.501 -167.5s-134.334 -60 -227.001 -60c-96 0 -173 20 -231 60s-105.667 95.667 -143 167c-6 10.667 -11.333 21.334 -16 32.001l106 61
c2.66699 -8.66699 5.66699 -17.334 9 -26.001c24 -63.333 57.333 -112.666 100 -147.999s88 -53 136 -53c45.333 0 89.666 7.66699 132.999 23s77 54.666 101 117.999c23.333 62 35.333 126.667 36 194zM423.007 1264c10 -24 21.002 -44.667 33.002 -62
c27.333 -38.667 55.666 -58 84.999 -58s57.666 19.333 84.999 58c12.667 17.333 24 38 34 62h105c-22.667 -44 -50 -80.333 -82 -109c-48 -42.667 -98.333 -64 -151 -64s-102.667 21.333 -150 64c-32 28.667 -59.333 65 -82 109h123z" />
    <glyph glyph-name="Gdotaccent" unicode="&#x120;" horiz-adv-x="1133" 
d="M1048 305c-17.333 -30 -36.668 -58.667 -58.001 -86c-113.333 -146 -250.333 -219 -411 -219c-159.333 0 -295.666 73.167 -408.999 219.5s-170 323.5 -170 531.5s56.167 385.5 168.5 532.5s249.166 220.5 410.499 220.5c151.333 0 281 -64.333 389 -193
c42.667 -5.33301 73 7.33398 91 38.001l38 -54l-156 -285l-68 57c15.333 66.667 16 117 2 151c-41.333 114 -114.666 171 -219.999 171c-110.667 0 -204.5 -62.667 -281.5 -188s-115.5 -277.333 -115.5 -456s38.5 -330.834 115.5 -456.501s170.833 -188.5 281.5 -188.5
c109.333 0 186 62.667 230 188c12.667 21.333 24.667 43.333 36 66v479h-383v101h510v-629zM600.998 1729c16.667 0 32.834 -4.16699 48.501 -12.5s28.167 -20.333 37.5 -36s14 -32.167 14 -49.5c0 -16.667 -4.5 -33 -13.5 -49s-21.333 -28.167 -37 -36.5
s-32.167 -12.5 -49.5 -12.5c-18 0 -35 4.16699 -51 12.5s-28.333 20.5 -37 36.5s-13 32.333 -13 49c0 17.333 4.33301 33.833 13 49.5s21.167 27.667 37.5 36s33.166 12.5 50.499 12.5z" />
    <glyph glyph-name="gdotaccent" unicode="&#x121;" horiz-adv-x="1008" 
d="M736 164l0.000976562 670c-38 44.667 -93.333 67 -166 67c-96 0 -177.667 -39 -245 -117s-101 -172.667 -101 -284s33.667 -206 101 -284s149 -117 245 -117c71.333 0 126.666 21.667 165.999 65zM740.001 -6l0.00585938 51.999
c-72.667 -35.333 -151.334 -53 -236.001 -53c-138.667 0 -257.5 49.833 -356.5 149.5s-148.5 220.5 -148.5 362.5c0 142.667 49 264.167 147 364.5s217.333 150.5 358 150.5c85.333 0 162.666 -18.333 231.999 -55v55h302v-76
c-40.667 -1.33301 -74.334 -14.666 -101.001 -39.999v-886c0 -78 -18.833 -152.833 -56.5 -224.5s-85.834 -127.5 -144.501 -167.5s-134.334 -60 -227.001 -60c-96 0 -173 20 -231 60s-105.667 95.667 -143 167c-6 10.667 -11.333 21.334 -16 32.001l106 61
c2.66699 -8.66699 5.66699 -17.334 9 -26.001c24 -63.333 57.333 -112.666 100 -147.999s88 -53 136 -53c45.333 0 89.666 7.66699 132.999 23s77 54.666 101 117.999c23.333 62 35.333 126.667 36 194zM500.007 1286c16.667 0 32.834 -4.16699 48.501 -12.5
s28.167 -20.333 37.5 -36s14 -32.167 14 -49.5c0 -16.667 -4.5 -33 -13.5 -49s-21.333 -28.167 -37 -36.5s-32.167 -12.5 -49.5 -12.5c-18 0 -35 4.16699 -51 12.5s-28.333 20.5 -37 36.5s-13 32.333 -13 49c0 17.333 4.33301 33.833 13 49.5s21.167 27.667 37.5 36
s33.166 12.5 50.499 12.5z" />
    <glyph glyph-name="Gcommaaccent" unicode="&#x122;" horiz-adv-x="1170" 
d="M528 4c-131.333 18 -245.669 89.999 -343.002 215.999c-113.333 146 -170 323 -170 531s56.167 385.5 168.5 532.5s249.166 220.5 410.499 220.5c151.333 0 281 -64.333 389 -193c42.667 -5.33301 73 7.33398 91 38.001l38 -54l-156 -285l-68 57
c15.333 66.667 16 117 2 151c-41.333 114 -114.666 171 -219.999 171c-110.667 0 -204.5 -62.667 -281.5 -188s-115.5 -277.333 -115.5 -456s38.5 -330.834 115.5 -456.501s170.833 -188.5 281.5 -188.5c109.333 0 186 62.667 230 188c12.667 21.333 24.667 43.333 36 66
v479h-383v101h510v-629c-17.333 -30 -36.666 -58.667 -57.999 -86c-87.333 -112 -188.666 -181 -303.999 -207c1.33301 -1.33301 2.33301 -2.66602 3 -3.99902c9.33301 -16 14 -32.333 14 -49c0 -17.333 -4.5 -33.666 -13.5 -48.999s-36.333 -54 -82 -116
s-77.5 -93 -95.5 -93c-17.333 0 -14 31 10 93s26.667 100.667 8 116s-28 31.666 -28 48.999c0 16 3.66699 31 11 45z" />
    <glyph glyph-name="gcommaaccent" unicode="&#x123;" horiz-adv-x="1008" 
d="M736 164l0.000976562 670c-38 44.667 -93.333 67 -166 67c-96 0 -177.667 -39 -245 -117s-101 -172.667 -101 -284s33.667 -206 101 -284s149 -117 245 -117c71.333 0 126.666 21.667 165.999 65zM740.001 -6l0.00585938 51.999
c-72.667 -35.333 -151.334 -53 -236.001 -53c-138.667 0 -257.5 49.833 -356.5 149.5s-148.5 220.5 -148.5 362.5c0 142.667 49 264.167 147 364.5s217.333 150.5 358 150.5c85.333 0 162.666 -18.333 231.999 -55v55h302v-76
c-40.667 -1.33301 -74.334 -14.666 -101.001 -39.999v-886c0 -78 -18.833 -152.833 -56.5 -224.5s-85.834 -127.5 -144.501 -167.5s-134.334 -60 -227.001 -60c-96 0 -173 20 -231 60s-105.667 95.667 -143 167c-6 10.667 -11.333 21.334 -16 32.001l106 61
c2.66699 -8.66699 5.66699 -17.334 9 -26.001c24 -63.333 57.333 -112.666 100 -147.999s88 -53 136 -53c45.333 0 89.666 7.66699 132.999 23s77 54.666 101 117.999c23.333 62 35.333 126.667 36 194zM479.406 1097.63c-13.0664 5.63379 -23.0664 13.542 -30 23.7256
c-6.93262 10.1836 -10.3994 20.9092 -10.3994 32.1768c0 10.833 3.4668 21.3418 10.3994 31.5264c6.93359 10.1836 16.7998 35.4258 29.5996 75.7275s26.3994 60.4521 40.7988 60.4521c13.8662 0 27.0664 -20.1504 39.5996 -60.4521s22.3994 -65.5439 29.5996 -75.7275
c7.2002 -10.1846 10.7998 -20.6934 10.7998 -31.5264c0 -11.2676 -3.7334 -21.9932 -11.2002 -32.1768s-17.4668 -18.0918 -30 -23.7256c-12.5322 -5.63379 -25.4648 -8.4502 -38.7979 -8.4502c-13.8662 0 -27.333 2.81641 -40.3994 8.4502z" />
    <glyph glyph-name="Hcircumflex" unicode="&#x124;" horiz-adv-x="1123" 
d="M319 840v-747c26.667 -22 60.334 -34.333 101.001 -37v-56h-421v56c39.333 2.66699 72.333 15 99 37v1285c-26.667 26 -59.667 39.667 -99 41v69h421v-69c-40.667 -1.33301 -74.334 -15 -101.001 -41v-444h408v444c-26.667 26 -59.667 39.667 -99 41v69h421v-69
c-40.667 -1.33301 -74.334 -15 -101.001 -41v-1284c26.667 -22.667 60.334 -35.334 101.001 -38.001v-56h-421v56c39.333 2.66699 72.333 15.334 99 38.001v746h-408zM497 1811l-112.002 -259c8.66699 -4.66699 19.667 -7 33 -7v-12h-105v12
c12.667 0 23.334 2.33301 32.001 7l113 261c-8.66699 5.33301 -19.334 8 -32.001 8v14h171v-14c-12.667 0 -23.667 -2.66699 -33 -8l104 -261c8.66699 -4.66699 19.334 -7 32.001 -7v-12h-132v12c12.667 0 23.334 2.33301 32.001 7z" />
    <glyph glyph-name="hcircumflex" unicode="&#x125;" 
d="M325 822l0.000976562 -822.002h-296v66c34.667 0.666992 65.667 9 93 25v1303c-13.333 28.667 -51 33.334 -113 14.001l1 80h315v-528c0.666992 0.666992 1.66699 1.33398 3 2.00098c68.667 38.667 139.667 58 213 58c72.667 0 142.667 -19.5 210 -58.5
s120.666 -86.833 159.999 -143.5c30.667 -44.667 50 -96.334 58 -155.001v-570c26.667 -22 60.334 -34.333 101.001 -37v-56h-398v56c39.333 2.66699 71.666 15 96.999 37v517c-4.66699 46.667 -16 88.334 -34 125.001c-24.667 50 -58.334 92.333 -101.001 127
s-86.667 52 -132 52c-46 0 -90.667 -17.333 -134 -52c-15.333 -12.667 -29.666 -26 -42.999 -40zM497.001 1811l-112.002 -259c8.66699 -4.66699 19.667 -7 33 -7v-12h-105v12c12.667 0 23.334 2.33301 32.001 7l113 261c-8.66699 5.33301 -19.334 8 -32.001 8v14h171v-14
c-12.667 0 -23.667 -2.66699 -33 -8l104 -261c8.66699 -4.66699 19.334 -7 32.001 -7v-12h-132v12c12.667 0 23.334 2.33301 32.001 7z" />
    <glyph glyph-name="Hbar" unicode="&#x126;" horiz-adv-x="1100" 
d="M949 1139v-1045c26.667 -22.667 60.334 -35.334 101.001 -38.001v-56h-421v56c39.333 2.66699 72.333 15.334 99 38.001v746h-408v-747c26.667 -22 60.334 -34.333 101.001 -37v-56h-421v56c39.333 2.66699 72.333 15 99 37v1046h-18
c-18 -13.333 -27.333 -29.666 -28 -48.999h-48v208h48c0.666992 -20 10 -36.667 28 -50h18v130c-26.667 26 -59.667 39.667 -99 41v69h421v-69c-40.667 -1.33301 -74.334 -15 -101.001 -41v-130h408v130c-26.667 26 -59.667 39.667 -99 41v69h421v-69
c-40.667 -1.33301 -74.334 -15 -101.001 -41v-130h23c15.333 13.333 24 30 26 50h39v-208h-39c-2 19.333 -10.667 35.666 -26 48.999h-23zM320 1139v-205h408v205h-408z" />
    <glyph glyph-name="hbar" unicode="&#x127;" horiz-adv-x="1091" 
d="M113 1170l-88.999 -0.00195312c-7.33301 -10.667 -11.666 -24 -12.999 -40h-20v170h20c1.33301 -16 5.66602 -29.333 12.999 -40h89v134c-13.333 28.667 -51 33.334 -113 14.001l1 83h315v-231h156c9.33301 10.667 14 24 14 40h24v-170h-24c0 16 -4.66699 29.333 -14 40
h-156v-210c0.666992 0.666992 1.66699 1.33398 3 2.00098c68.667 38.667 139.667 58 213 58c72.667 0 142.667 -19.5 210 -58.5s120.666 -86.833 159.999 -143.5c30.667 -44.667 50 -96.334 58 -155.001v-570c26.667 -22 60.334 -34.333 101.001 -37v-56h-398v56
c39.333 2.66699 71.666 15 96.999 37v557c-4.66699 46.667 -16 88.334 -34 125.001c-24.667 50 -58.334 92.333 -101.001 127s-86.667 52 -132 52c-46 0 -90.667 -17.333 -134 -52c-15.333 -12.667 -29.666 -26 -42.999 -40v-862h-296v86c34.667 0.666992 65.667 9 93 25
v1059z" />
    <glyph glyph-name="Itilde" unicode="&#x128;" horiz-adv-x="459" 
d="M-1 0v56c39.333 2.66699 72.333 15 99 37v1285c-26.667 26 -59.667 39.667 -99 41v69h421v-69c-40.667 -1.33301 -74.334 -15 -101.001 -41v-1285c26.667 -22 60.334 -34.333 101.001 -37v-56h-421zM453 1769l20.001 -40.001c-1.33301 -62 -12.333 -110.167 -33 -144.5
s-46 -51.5 -76 -51.5c-13.333 0 -27.833 3.66699 -43.5 11s-56.5 32.333 -122.5 75c-45.333 30 -77.666 45 -96.999 45c-20.667 0 -38.167 -10.167 -52.5 -30.5s-24.166 -53.5 -29.499 -99.5h-20c1.33301 91.333 12.166 153.833 32.499 187.5s44.166 50.5 71.499 50.5
c12.667 0 25.667 -3.66699 39 -11c31.333 -14 72.166 -38.167 122.499 -72.5s85.5 -51.5 105.5 -51.5c22 0 40.667 11.333 56 34s24.333 55.334 27 98.001z" />
    <glyph glyph-name="itilde" unicode="&#x129;" horiz-adv-x="451" 
d="M0 0v56c66 0 99 15.667 99 47v791c0 26 -33 39.667 -99 41v85h381v-85c-67.333 -1.33301 -101 -15 -101 -41v-791c0 -31.333 33.667 -47 101 -47v-56h-381zM392.595 1326l15.999 -40.001c-1.06641 -62 -9.86621 -110.167 -26.3994 -144.5s-36.7998 -51.5 -60.7988 -51.5
c-10.667 0 -22.2666 3.66699 -34.7998 11s-45.1992 32.333 -97.999 75c-36.2656 30 -62.1318 45 -77.5986 45c-16.5332 0 -30.5332 -10.167 -41.999 -30.5c-11.4668 -20.333 -19.333 -53.5 -23.5996 -99.5h-16c1.06641 91.333 9.7334 153.833 26 187.5
s35.333 50.5 57.1992 50.5c10.1328 0 20.5322 -3.66699 31.1992 -11c25.0664 -14 57.7324 -38.167 97.998 -72.5c40.2666 -34.333 68.3994 -51.5 84.3994 -51.5c17.5996 0 32.5322 11.333 44.7988 34s19.4668 55.334 21.6006 98.001z" />
    <glyph glyph-name="Imacron" unicode="&#x12a;" horiz-adv-x="459" 
d="M0 0v56c39.333 2.66699 72.333 15 99 37v1285c-26.667 26 -59.667 39.667 -99 41v69h421v-69c-40.667 -1.33301 -74.334 -15 -101.001 -41v-1285c26.667 -22 60.334 -34.333 101.001 -37v-56h-421zM-1 1754h16c0.666992 -24 4.33398 -44 11.001 -60h371c8 16 12 36 12 60
h21v-253h-21c0 24.667 -4 45 -12 61h-371c-6.66699 -16 -10.334 -36.333 -11.001 -61h-16v253z" />
    <glyph glyph-name="imacron" unicode="&#x12b;" horiz-adv-x="451" 
d="M1 1353h14c0.666992 -24 4 -44 10 -60h327c6.66699 16 10.334 36 11.001 60h17v-253h-17c-0.666992 24.667 -4.33398 45 -11.001 61h-327c-6 -16 -9.33301 -36.333 -10 -61h-14v253zM0 0v56c66 0 99 15.667 99 47v791c0 26 -33 39.667 -99 41v85h381v-85
c-67.333 -1.33301 -101 -15 -101 -41v-791c0 -31.333 33.667 -47 101 -47v-56h-381z" />
    <glyph glyph-name="Ibreve" unicode="&#x12c;" horiz-adv-x="459" 
d="M-1 0v56c39.333 2.66699 72.333 15 99 37v1285c-26.667 26 -59.667 39.667 -99 41v69h421v-69c-40.667 -1.33301 -74.334 -15 -101.001 -41v-1285c26.667 -22 60.334 -34.333 101.001 -37v-56h-421zM122 1706c10 -24 21.002 -44.667 33.002 -62
c27.333 -38.667 55.666 -58 84.999 -58s57.666 19.333 84.999 58c12.667 17.333 24 38 34 62h105c-22.667 -44 -50 -80.333 -82 -109c-48 -42.667 -98.333 -64 -151 -64s-102.667 21.333 -150 64c-32 28.667 -59.333 65 -82 109h123z" />
    <glyph glyph-name="ibreve" unicode="&#x12d;" horiz-adv-x="451" 
d="M0 0v56c66 0 99 15.667 99 47v791c0 26 -33 39.667 -99 41v85h381v-85c-67.333 -1.33301 -101 -15 -101 -41v-791c0 -31.333 33.667 -47 101 -47v-56h-381zM99.3984 1263c8 -24 16.8008 -44.667 26.4004 -62c21.8662 -38.667 44.5322 -58 67.998 -58
s46.1318 19.333 67.998 58c10.1338 17.333 19.2002 38 27.2002 62h83.998c-18.1328 -44 -39.999 -80.333 -65.5986 -109c-38.3994 -42.667 -78.665 -64 -120.797 -64c-42.1328 0 -82.1328 21.333 -119.999 64c-25.5996 28.667 -47.4658 65 -65.5986 109h98.3984z" />
    <glyph glyph-name="Iogonek" unicode="&#x12e;" horiz-adv-x="459" 
d="M-1 0v56c39.333 2.66699 72.333 15 99 37v1285c-26.667 26 -59.667 39.667 -99 41v69h421v-69c-40.667 -1.33301 -74.334 -15 -101.001 -41v-1285c26.667 -22 60.334 -34.333 101.001 -37v-56h-421zM149 -299c-17.333 0 -33.833 4.16699 -49.5 12.5
s-28.167 20.5 -37.5 36.5s-14 32.333 -14 49c0 17.333 4.5 33.833 13.5 49.5s36.333 54.167 82 115.5s77.5 92 95.5 92c17.333 0 14 -30.667 -10 -92s-26.667 -99.833 -8 -115.5s28 -32.167 28 -49.5c0 -16.667 -4.33301 -33 -13 -49s-21.167 -28.167 -37.5 -36.5
s-32.833 -12.5 -49.5 -12.5z" />
    <glyph glyph-name="iogonek" unicode="&#x12f;" horiz-adv-x="379" 
d="M-1 0v56c66 0 99 15.667 99 47v791c0 26 -33 39.667 -99 41v85h381v-85c-67.333 -1.33301 -101 -15 -101 -41v-791c0 -31.333 33.667 -47 101 -47v-56h-381zM186 1352c22.667 0 44.4971 -5.66699 65.4971 -17s37.667 -27.5 50 -48.5s18.5 -42.833 18.5 -65.5
s-6 -44.5 -18 -65.5s-28.5 -37.167 -49.5 -48.5s-43.167 -17 -66.5 -17s-45.666 5.66699 -66.999 17s-37.833 27.5 -49.5 48.5s-17.5 42.833 -17.5 65.5s5.83301 44.5 17.5 65.5s28.334 37.167 50.001 48.5s43.834 17 66.501 17zM155.997 -299
c-17.333 0 -33.833 4.16699 -49.5 12.5s-28.167 20.5 -37.5 36.5s-14 32.333 -14 49c0 17.333 4.5 33.833 13.5 49.5s36.333 54.167 82 115.5s77.5 92 95.5 92c17.333 0 14 -30.667 -10 -92s-26.667 -99.833 -8 -115.5s28 -32.167 28 -49.5c0 -16.667 -4.33301 -33 -13 -49
s-21.167 -28.167 -37.5 -36.5s-32.833 -12.5 -49.5 -12.5z" />
    <glyph glyph-name="Idotaccent" unicode="&#x130;" horiz-adv-x="459" 
d="M-1 0v56c39.333 2.66699 72.333 15 99 37v1285c-26.667 26 -59.667 39.667 -99 41v69h421v-69c-40.667 -1.33301 -74.334 -15 -101.001 -41v-1285c26.667 -22 60.334 -34.333 101.001 -37v-56h-421zM201 1729c16.667 0 32.834 -4.16699 48.501 -12.5
s28.167 -20.333 37.5 -36s14 -32.167 14 -49.5c0 -16.667 -4.5 -33 -13.5 -49s-21.333 -28.167 -37 -36.5s-32.167 -12.5 -49.5 -12.5c-18 0 -35 4.16699 -51 12.5s-28.333 20.5 -37 36.5s-13 32.333 -13 49c0 17.333 4.33301 33.833 13 49.5s21.167 27.667 37.5 36
s33.166 12.5 50.499 12.5z" />
    <glyph glyph-name="dotlessi" unicode="&#x131;" horiz-adv-x="451" 
d="M0 0v56c66 0 99 15.667 99 47v791c0 26 -33 39.667 -99 41v85h381v-85c-67.333 -1.33301 -101 -15 -101 -41v-791c0 -31.333 33.667 -47 101 -47v-56h-381z" />
    <glyph glyph-name="IJ" unicode="&#x132;" horiz-adv-x="963" 
d="M623 -404l-113.999 176c50 100.667 73 215 69 343v1262c-26.667 26 -59.667 39.667 -99 41v69h421v-69c-40.667 -1.33301 -74.334 -15 -101.001 -41v-1262c-2 -203.333 -60.667 -376.333 -176 -519zM36.001 -1v56c39.333 2.66699 72.333 15 99 37v1285
c-26.667 26 -59.667 39.667 -99 41v69h421v-69c-40.667 -1.33301 -74.334 -15 -101.001 -41v-1285c26.667 -22 60.334 -34.333 101.001 -37v-56h-421z" />
    <glyph glyph-name="ij" unicode="&#x133;" horiz-adv-x="900" 
d="M-1 0v56c66 0 99 15.667 99 47v791c0 26 -33 39.667 -99 41v85h381v-85c-67.333 -1.33301 -101 -15 -101 -41v-791c0 -31.333 33.667 -47 101 -47v-56h-381zM186 1352c22.667 0 44.4971 -5.66699 65.4971 -17s37.667 -27.5 50 -48.5s18.5 -42.833 18.5 -65.5
s-6 -44.5 -18 -65.5s-28.5 -37.167 -49.5 -48.5s-43.167 -17 -66.5 -17s-45.666 5.66699 -66.999 17s-37.833 27.5 -49.5 48.5s-17.5 42.833 -17.5 65.5s5.83301 44.5 17.5 65.5s28.334 37.167 50.001 48.5s43.834 17 66.501 17zM628.997 1355
c22.667 0 44.4971 -5.66699 65.4971 -17s37.667 -27.5 50 -48.5s18.5 -42.833 18.5 -65.5s-6 -44.5 -18 -65.5s-28.5 -37.167 -49.5 -48.5s-43.167 -17 -66.5 -17s-45.666 5.66699 -66.999 17s-37.833 27.5 -49.5 48.5s-17.5 42.833 -17.5 65.5s5.83301 44.5 17.5 65.5
s28.334 37.167 50.001 48.5s43.834 17 66.501 17zM207.994 -356c30 -18.667 60.998 -28.001 92.998 -28.001c42 0 83.167 17.667 123.5 53s71.833 84.666 94.5 147.999c14 39.333 23.667 80 29 122v961c-26.667 26 -59.667 39.667 -99 41v79h381v-79
c-40.667 -1.33301 -74.334 -15 -101.001 -41v-935l-4 -39c-8.66699 -39.333 -22 -78 -40 -116c-36 -71.333 -86 -127 -150 -167s-130 -60 -198 -60c-70.667 0 -138 20 -202 60l-8 6c-6 2.66699 -12.333 5.33398 -19 8.00098c-21.333 11.333 -37.833 27.5 -49.5 48.5
s-17.5 42.833 -17.5 65.5s5.83301 44.5 17.5 65.5s28.334 37.167 50.001 48.5s43.834 17 66.501 17s44.5 -5.66699 65.5 -17s37.667 -27.5 50 -48.5s18.5 -42.833 18.5 -65.5s-6 -44.5 -18 -65.5s-28.333 -37.167 -49 -48.5
c-11.333 -5.33301 -22.666 -9.66602 -33.999 -12.999z" />
    <glyph glyph-name="Jcircumflex" unicode="&#x134;" horiz-adv-x="439" 
d="M144 -404l-113.999 175.999c50 100.667 73 215.334 69 344.001v1262c-26.667 26 -59.667 39.667 -99 41v69h421v-69c-40.667 -1.33301 -74.334 -15 -101.001 -41v-1262c-2 -204 -60.667 -377.333 -176 -520zM197.001 1811l-112.002 -259
c8.66699 -4.66699 19.667 -7 33 -7v-12h-105v12c12.667 0 23.334 2.33301 32.001 7l113 261c-8.66699 5.33301 -19.334 8 -32.001 8v14h171v-14c-12.667 0 -23.667 -2.66699 -33 -8l104 -261c8.66699 -4.66699 19.334 -7 32.001 -7v-12h-132v12
c12.667 0 23.334 2.33301 32.001 7z" />
    <glyph glyph-name="jcircumflex" unicode="&#x135;" horiz-adv-x="436" 
d="M317 -75c-8.66699 -39.333 -21.999 -77.999 -39.999 -115.999c-36 -71.333 -86 -127 -150 -167s-130 -60 -198 -60c-70.667 0 -138 20 -202 60c-9.33301 6 -18.333 12.333 -27 19h74c37.333 -30.667 77 -46 119 -46s83.167 17.667 123.5 53s71.833 84.666 94.5 147.999
c14 39.333 23.667 80 29 122v972c-26.667 26 -59.667 39.667 -99 41v69h381v-69c-40.667 -1.33301 -74.334 -15 -101.001 -41v-946zM231.001 1369l-112.002 -259c8.66699 -4.66699 19.667 -7 33 -7v-12h-105v12c12.667 0 23.334 2.33301 32.001 7l113 261
c-8.66699 5.33301 -19.334 8 -32.001 8v14h171v-14c-12.667 0 -23.667 -2.66699 -33 -8l104 -261c8.66699 -4.66699 19.334 -7 32.001 -7v-12h-132v12c12.667 0 23.334 2.33301 32.001 7z" />
    <glyph glyph-name="Kcommaaccent" unicode="&#x136;" horiz-adv-x="1101" 
d="M320 680v-587c26.667 -22 60.334 -34.333 101.001 -37v-56h-421v56c39.333 2.66699 72.333 15 99 37v1285c-26.667 26 -59.667 39.667 -99 41v69h421v-69c-40.667 -1.33301 -74.334 -15 -101.001 -41v-494l398 494c-26.667 26 -59.667 39.667 -99 41v69h351v-69
c-40.667 -1.33301 -74.334 -15 -101.001 -41l-280 -354l360 -930c26.667 -22.667 60.334 -35.334 101.001 -38.001v-56h-351v56c39.333 2.66699 72.333 15.334 99 38.001l-300 806zM561 100c17.333 0 33.833 -4.16699 49.5 -12.5s28.167 -20.5 37.5 -36.5s14 -32.333 14 -49
c0 -17.333 -4.5 -33.833 -13.5 -49.5s-36.333 -54.334 -82 -116.001s-77.5 -92.5 -95.5 -92.5c-17.333 0 -14 30.833 10 92.5s26.667 100.334 8 116.001s-28 32.167 -28 49.5c0 16.667 4.33301 33 13 49s21.167 28.167 37.5 36.5s32.833 12.5 49.5 12.5z" />
    <glyph glyph-name="kcommaaccent" unicode="&#x137;" horiz-adv-x="1024" 
d="M306 410v-317c26.667 -22 60.334 -34.333 101.001 -37v-56h-391v56c39.333 2.66699 72.333 15 99 37v1285c-26.667 26 -59.667 39.667 -99 41v69h391v-69c-40.667 -1.33301 -74.334 -15 -101.001 -41v-794l268 324c-26.667 26 -59.667 39.667 -99 41v71h351v-71
c-40.667 -1.33301 -74.334 -15 -101.001 -41l-150 -174l360 -640c26.667 -22.667 60.334 -35.334 101.001 -38.001v-56h-351v56c39.333 2.66699 72.333 15.334 99 38.001l-290 556zM537 100c17.333 0 33.833 -4.16699 49.5 -12.5s28.167 -20.5 37.5 -36.5s14 -32.333 14 -49
c0 -17.333 -4.5 -33.833 -13.5 -49.5s-36.333 -54.334 -82 -116.001s-77.5 -92.5 -95.5 -92.5c-17.333 0 -14 30.833 10 92.5s26.667 100.334 8 116.001s-28 32.167 -28 49.5c0 16.667 4.33301 33 13 49s21.167 28.167 37.5 36.5s32.833 12.5 49.5 12.5z" />
    <glyph glyph-name="kgreenlandic" unicode="&#x138;" horiz-adv-x="1024" 
d="M322 466l0.000976562 -402c27.333 -15.333 61.333 -24 102 -26v-38h-424v38c39.333 2 72.666 10.667 99.999 26v881c-27.333 17.333 -60.666 26.666 -99.999 27.999v47h424v-47c-40.667 -1.33301 -74.667 -10.666 -102 -27.999v-339l401 339
c-26.667 17.333 -59.667 26.666 -99 27.999v47h353v-47c-40.667 -1.33301 -74.334 -10.666 -101.001 -27.999l-283 -243l363 -638c27.333 -15.333 61.333 -24 102 -26v-38h-354v38c40 2 73.333 10.667 100 26l-302 553z" />
    <glyph glyph-name="Lacute" unicode="&#x139;" horiz-adv-x="934" 
d="M770 100c56.667 0 85.667 32 87 96h26v-196h-884v100c39.333 0.666992 72.333 14 99 40v1255c-26.667 22 -59.667 34.333 -99 37v56h421v-56c-40.667 -2.66699 -74.334 -15 -101.001 -37v-1255c26.667 -26 60.334 -39.333 101.001 -40h350zM658.5 1660.5
c-3.66699 -11 -13.6689 -21.833 -30.002 -32.5s-35.166 -19.667 -56.499 -27s-43.833 -12.333 -67.5 -15s-78.167 -13.5 -163.5 -32.5s-132 -24.5 -140 -16.5c-7.33301 8 24.667 28.833 96 62.5s115 55.834 131 66.501s34.667 19.667 56 27
c22 7.33301 44.833 12.166 68.5 14.499s44.334 1.83301 62.001 -1.5s30.167 -9 37.5 -17c8 -8 10.167 -17.5 6.5 -28.5z" />
    <glyph glyph-name="lacute" unicode="&#x13a;" horiz-adv-x="386" 
d="M0 0v56c39.333 2.66699 72.333 15 99 37v1285c-26.667 26 -59.667 39.667 -99 41v69h381v-69c-40.667 -1.33301 -74.334 -15 -101.001 -41v-1285c26.667 -22 60.334 -34.333 101.001 -37v-56h-381zM457.5 1659.5c-3.66699 -11 -13.6689 -21.833 -30.002 -32.5
s-35.166 -19.667 -56.499 -27s-43.833 -12.333 -67.5 -15s-78.167 -13.5 -163.5 -32.5s-132 -24.5 -140 -16.5c-7.33301 8 24.667 28.833 96 62.5s115 55.834 131 66.501s34.667 19.667 56 27c22 7.33301 44.833 12.166 68.5 14.499s44.334 1.83301 62.001 -1.5
s30.167 -9 37.5 -17c8 -8 10.167 -17.5 6.5 -28.5z" />
    <glyph glyph-name="Lcommaaccent" unicode="&#x13b;" horiz-adv-x="953" 
d="M381 0h-367v100c39.333 0.666992 72.333 14 99 40v1255c-26.667 22 -59.667 34.333 -99 37v56h421v-56c-40.667 -2.66699 -74.334 -15 -101.001 -37v-1255c26.667 -26 60.334 -39.333 101.001 -40h350c56.667 0 85.667 32 87 96h26v-196h-337
c7.33301 -14 11 -28.333 11 -43c0 -17.333 -4.5 -33.666 -13.5 -48.999s-36.333 -54 -82 -116s-77.5 -93 -95.5 -93c-17.333 0 -14 31 10 93s26.667 100.667 8 116s-28 31.666 -28 48.999c0 14.667 3.33301 29 10 43z" />
    <glyph glyph-name="lcommaaccent" unicode="&#x13c;" horiz-adv-x="401" 
d="M109 0h-109v56c39.333 2.66699 72.333 15 99 37v1285c-26.667 26 -59.667 39.667 -99 41v69h381v-69c-40.667 -1.33301 -74.334 -15 -101.001 -41v-1285c26.667 -22 60.334 -34.333 101.001 -37v-56h-91c6.66699 -13.333 10 -27.333 10 -42
c0 -17.333 -4.5 -33.666 -13.5 -48.999s-36.333 -54 -82 -116s-77.5 -93 -95.5 -93c-17.333 0 -14 31 10 93s26.667 100.667 8 116s-28 31.666 -28 48.999c0 14.667 3.33301 28.667 10 42z" />
    <glyph glyph-name="Lcaron" unicode="&#x13d;" horiz-adv-x="942" 
d="M771 100c56.667 0 85.667 32 87 96h26v-196h-884v100c39.333 0.666992 72.333 14 99 40v1255c-26.667 22 -59.667 34.333 -99 37v56h421v-56c-40.667 -2.66699 -74.334 -15 -101.001 -37v-1255c26.667 -26 60.334 -39.333 101.001 -40h350zM702 1500
c16.667 0 32.834 -4.16699 48.501 -12.5s28.167 -20.5 37.5 -36.5s14 -32.333 14 -49c0 -17.333 -4.5 -33.833 -13.5 -49.5s-21.333 -54.334 -37 -116.001s-32.167 -92.5 -49.5 -92.5c-18 0 -35 30.833 -51 92.5s-28.333 100.334 -37 116.001s-13 32.167 -13 49.5
c0 16.667 4.33301 33 13 49s21.167 28.167 37.5 36.5s33.166 12.5 50.499 12.5z" />
    <glyph glyph-name="lcaron" unicode="&#x13e;" horiz-adv-x="597" 
d="M0 0v56c39.333 2.66699 72.333 15 99 37v1285c-26.667 26 -59.667 39.667 -99 41v69h381v-69c-40.667 -1.33301 -74.334 -15 -101.001 -41v-1285c26.667 -22 60.334 -34.333 101.001 -37v-56h-381zM500 1488c16.667 0 32.834 -4.16699 48.501 -12.5
s28.167 -20.5 37.5 -36.5s14 -32.333 14 -49c0 -17.333 -4.5 -33.833 -13.5 -49.5s-21.333 -54.334 -37 -116.001s-32.167 -92.5 -49.5 -92.5c-18 0 -35 30.833 -51 92.5s-28.333 100.334 -37 116.001s-13 32.167 -13 49.5c0 16.667 4.33301 33 13 49
s21.167 28.167 37.5 36.5s33.166 12.5 50.499 12.5z" />
    <glyph glyph-name="Ldot" unicode="&#x13f;" horiz-adv-x="934" 
d="M770 100c56.667 0 85.667 32 87 96h26v-196h-884v100c39.333 0.666992 72.333 14 99 40v1255c-26.667 22 -59.667 34.333 -99 37v56h421v-56c-40.667 -2.66699 -74.334 -15 -101.001 -37v-1255c26.667 -26 60.334 -39.333 101.001 -40h350zM671 846
c16.667 0 32.834 -4.16699 48.501 -12.5s28.167 -20.333 37.5 -36s14 -32.167 14 -49.5c0 -16.667 -4.5 -33 -13.5 -49s-21.333 -28.167 -37 -36.5s-32.167 -12.5 -49.5 -12.5c-18 0 -35 4.16699 -51 12.5s-28.333 20.5 -37 36.5s-13 32.333 -13 49
c0 17.333 4.33301 33.833 13 49.5s21.167 27.667 37.5 36s33.166 12.5 50.499 12.5z" />
    <glyph glyph-name="ldot" unicode="&#x140;" horiz-adv-x="551" 
d="M0 0v56c39.333 2.66699 72.333 15 99 37v1285c-26.667 26 -59.667 39.667 -99 41v69h381v-69c-40.667 -1.33301 -74.334 -15 -101.001 -41v-1285c26.667 -22 60.334 -34.333 101.001 -37v-56h-381zM402 836c16.667 0 32.834 -4.16699 48.501 -12.5
s28.167 -20.333 37.5 -36s14 -32.167 14 -49.5c0 -16.667 -4.5 -33 -13.5 -49s-21.333 -28.167 -37 -36.5s-32.167 -12.5 -49.5 -12.5c-18 0 -35 4.16699 -51 12.5s-28.333 20.5 -37 36.5s-13 32.333 -13 49c0 17.333 4.33301 33.833 13 49.5s21.167 27.667 37.5 36
s33.166 12.5 50.499 12.5z" />
    </font>
</defs>
</svg>
